<?xml version="1.0" encoding="utf-8"?>
<!-- Generator: Adobe Illustrator 23.1.0, SVG Export Plug-In . SVG Version: 6.00 Build 0)  -->
<svg version="1.1" xmlns="http://www.w3.org/2000/svg" xmlns:xlink="http://www.w3.org/1999/xlink" x="0px" y="0px"
	 viewBox="0 0 97.67 97.75" style="enable-background:new 0 0 97.67 97.75;" xml:space="preserve">
<style type="text/css">
	.st0{fill:#E60012;}
	.st1{fill:#D1000E;}
	.st2{fill:#9D0000;}
	.st3{fill:#5A0C57;}
	.st4{fill:#F9D0BA;}
	.st5{display:none;}
	.st6{display:inline;fill:#FCFCFC;}
	.st7{display:inline;}
	.st8{fill:#F5DA82;}
	.st9{fill:#53679C;}
	.st10{fill:#FFFFFF;}
	.st11{fill:#F9CDD8;}
</style>
<symbol  id="Deleted_Symbol" viewBox="-35.72 -48.61 71.44 97.21">
	<g>
		<g>
			<g>
				<g>
					<path class="st0" d="M11.85,7.99c0.26-2-0.72-4.81-4-9.17C-0.74-12.6-8.24-39.56-1.13-48.61c0,0-0.93,5.2,2.87,12.29
						c0,0,1.98-4.68,7.53-10.26c0,0-1.23,9.19-0.37,18.73c0.72,8.05,2.18,16.01,6.12,22.28c0.54,1.44,1.22,3.27,1.82,4.98
						C17.79,2.09,15.07,5.39,11.85,7.99z"/>
					<path class="st1" d="M20.05,5.8c-1.96,3.02-5.16,5.15-7.47,6.4C11,13.06-0.53,21.35-5.73,29.17l-4.44-0.71
						c0,0,11.07-11.1,15.29-14.23c2.6-1.94,6.31-3,6.74-6.23c3.23-2.6,5.94-5.9,5-8.58c-0.6-1.71-1.28-3.54-1.82-4.98
						c1.3,2.06,2.86,3.94,4.76,5.58c0.01,0.01,0.02,0.02,0.04,0.04C20.55,1.66,21.21,4.01,20.05,5.8z"/>
					<path class="st2" d="M11.2,15.79C4.08,19.27,1.7,27.96,1.33,30.3l-7.06-1.13c5.2-7.82,16.73-16.11,18.31-16.96
						c2.31-1.25,5.51-3.38,7.47-6.4c1.16-1.79,0.5-4.14-0.22-5.76C27.43,6.64,18.31,12.31,11.2,15.79z"/>
				</g>
				<g>
					<path class="st1" d="M2.77,13.55c2.82,5.6-1.91,14.57-1.91,14.57l-0.65,0.07l-6.85,6.59c4.7-11.04,0.19-7,2.16-11.51
						c1.72-3.96-0.57-8.44-7.55-13.39c3.45,0.59,6.63,0.73,8.26,0.91C-1.48,11.04,1.34,12.65,2.77,13.55z"/>
					<path class="st0" d="M-3.77,10.78c-1.64-0.18-4.82-0.32-8.26-0.91c-2.68-1.9-6.06-3.87-10.17-5.9
						c-14.81-7.32-4.1-27.38,0.06-34.67c4.16-7.3,2.89-13.38,2.89-13.38c3.31,3.59,3.96,12.24,3.96,12.24
						c4.23-3.38,6.89-9.39,6.89-9.39c2.32,9.9-12.92,27.54-14.29,36.51C-24.08,4.24-0.57,7.65,2.62,13.22
						c0.06,0.11,0.1,0.22,0.15,0.33C1.34,12.65-1.48,11.04-3.77,10.78z"/>
				</g>
				<g>
					<path class="st1" d="M-29.87,37.61c-1.72,0.66-3.46,1.82-4.98,3.04c0.02-0.03,0.03-0.06,0.04-0.09c0.3-0.47,0.63-1.02,0.97-1.6
						c1.14-1.97,2.44-4.53,3.44-7.17c0.98-0.65,2.42-1.85,2.94-3.48c0.5-1.59-0.5-3.69-1.42-5.47c-0.13-0.76-0.34-1.45-0.69-2.06
						c-0.9-1.58-1.85-4.02-2.54-6.51c-0.54-1.96-0.92-3.95-1-5.6c3.55,5.8,10.1,11.3,12.09,15.92
						C-18.39,30.77-25.24,35.84-29.87,37.61z"/>
					<path class="st0" d="M-5.85,34.21c-0.01-0.08-0.17-0.1-1.42,1.29c-1.6,1.78-14.74,12.17-21.85,13.06
						c-4.21,0.52-8.47-3.5-5.73-7.91c1.52-1.21,3.27-2.38,4.98-3.04c4.64-1.77,11.48-6.84,8.83-13.03
						c-1.98-4.63-8.54-10.12-12.09-15.92c-0.13-2.83,0.65-4.62,3.1-3.4c0.04,0.02,0.1,0.05,0.14,0.07
						c-0.68,0.06-1.19,0.38-1.05,1.26c0.32,2.1,18.1,11.63,22.81,15.43c0.28,0.38,0.51,0.73,0.67,1.04
						C-5.4,27.17-5.82,33.74-5.85,34.21z"/>
					<path class="st2" d="M-27.46,28.3c-0.51,1.63-1.95,2.82-2.94,3.48c1.18-3.13,1.94-6.39,1.51-8.95
						C-27.96,24.62-26.96,26.72-27.46,28.3z"/>
				</g>
				<g>
					<path class="st1" d="M18.26,28.34c1.46-3.09,12.15-11.7,14.76-18.4c-0.17,1.35-0.48,2.84-0.89,4.31
						c-0.69,2.49-1.64,4.93-2.54,6.51c-0.35,0.61-0.57,1.31-0.69,2.06c-0.93,1.79-1.93,3.89-1.43,5.48
						c0.52,1.63,1.96,2.82,2.94,3.48c1,2.65,2.3,5.21,3.44,7.18c0.34,0.59,0.67,1.14,0.97,1.6c0.64,1,0.9,1.98,0.9,2.9
						c-0.98-0.85-2.74-1.67-5.76-2.76C24.44,38.71,16.27,32.53,18.26,28.34z"/>
					<path class="st0" d="M29.13,48.56C22.02,47.67,8.89,37.28,7.29,35.5c-1.25-1.39-1.41-1.36-1.42-1.29
						c-0.03-0.48-0.45-7.04,1.6-11.15c0.16-0.31,0.39-0.66,0.67-1.04c4.71-3.79,22.5-13.33,22.81-15.43
						c0.13-0.87-0.37-1.2-1.05-1.26c0.04-0.02,0.09-0.05,0.14-0.07c2.8-1.4,3.42,1.14,2.99,4.68c-2.61,6.7-13.3,15.3-14.76,18.4
						c-1.99,4.19,6.18,10.38,11.7,12.36c3.02,1.09,4.78,1.91,5.76,2.76C35.71,46.61,32.41,48.97,29.13,48.56z"/>
					<path class="st2" d="M27.47,28.3c-0.5-1.59,0.5-3.69,1.43-5.48c-0.43,2.56,0.33,5.82,1.51,8.95
						C29.43,31.13,27.99,29.93,27.47,28.3z"/>
				</g>
				<path class="st3" d="M30.94,6.59c0.13-0.87-0.37-1.2-1.05-1.26C24.54,8.06,11.68,17.31,8.13,22.02
					C12.85,18.23,30.63,8.69,30.94,6.59z"/>
				<path class="st0" d="M-5.86,34.26c0,0,0-0.03,0-0.04C-5.85,34.23-5.86,34.26-5.86,34.26z"/>
				<path class="st3" d="M-30.94,6.59c-0.13-0.87,0.37-1.2,1.05-1.26c5.36,2.72,18.21,11.97,21.76,16.69
					C-12.84,18.23-30.62,8.69-30.94,6.59z"/>
				<path class="st4" d="M-31.24,43.11c0,0-0.5,2.23,1.74,2.48c2.23,0.25,17.36-8.43,17.36-8.43s-11.41,5.45-13.89,5.21
					C-28.51,42.12-30.5,41.38-31.24,43.11z"/>
				<path class="st4" d="M12.68,37.09c0,0,12.13,9.42,18.39,9.42c0.69,0,2.27-3.76-0.35-2.84C27.16,44.91,12.68,37.09,12.68,37.09z"
					/>
				<path class="st2" d="M5.91,31.71c0,0,8.16,5.9,8.68,4.86c0.52-1.04-6.25-4.52-6.25-4.52s5.03,0.87,5.21,0.18
					c0.18-0.7-6.42-1.74-6.42-1.74s6.6-2.6,6.6-3.3c0-0.69-6.25,1.56-6.25,1.56s6.77-7.81,5.9-8.16c-0.87-0.35-6.08,5.56-6.77,6.42
					C5.91,27.89,5.91,31.71,5.91,31.71z"/>
				<path class="st2" d="M-6.24,31.71c0,0-8.16,5.9-8.68,4.86c-0.52-1.04,6.25-4.52,6.25-4.52s-5.03,0.87-5.21,0.18
					c-0.17-0.69,6.42-1.74,6.42-1.74s-6.6-2.6-6.6-3.3c0-0.69,6.25,1.56,6.25,1.56s-6.77-7.81-5.9-8.16
					c0.87-0.35,6.08,5.55,6.77,6.42C-6.24,27.89-6.24,31.71-6.24,31.71z"/>
				<g>
					<path class="st1" d="M7.45,24.08c-0.05,0.62-0.11,1.45-0.2,2.4c-8.14-2.13-13.56-0.99-15.79-0.26
						c-0.07-0.78-0.08-1.51-0.02-2.16C-4.61,23.53,1.46,23.08,7.45,24.08z"/>
					<path class="st2" d="M-8.56,24.06c0.14-1.46,0.66-2.49,1.81-2.59c4.09-0.36,14.39,0,14.22,2.31c-0.01,0.09-0.02,0.2-0.02,0.31
						C1.46,23.08-4.61,23.53-8.56,24.06z"/>
					<path class="st0" d="M7.25,26.48C6.98,29.45,6.5,33.4,5.7,34.43c-1.1,1.42-10.31,1.6-11.55,0.53
						c-0.73-0.63-2.34-5.11-2.68-8.75C-6.31,25.49-0.89,24.35,7.25,26.48z"/>
				</g>
				<path class="st4" d="M-5.72,33.1c0,0,0.87,1.21,4.69,1.21c3.82,0,6.42-1.39,6.42-1.39s-0.35-1.56-2.08-1.04
					c-1.74,0.52-3.65,1.91-5.56,1.04C-4.16,32.05-6.24,31.36-5.72,33.1z"/>
				<path class="st4" d="M-31.84,6.9c0,0,1.88,3.93,11.45,8.71C-20.4,15.61-31.67,11.68-31.84,6.9z"/>
				<path class="st4" d="M17,18.34c0,0,15.54-8.2,15.2-10.93C32.21,7.41,19.05,16.98,17,18.34z"/>
			</g>
		</g>
	</g>
</symbol>
<g id="레이어_2" class="st5">
	<rect x="-90.5" y="115.23" class="st6" width="566.93" height="566.93"/>
</g>
<g id="레이어_1" class="st5">
	<g class="st7">
		<rect x="140.88" y="115.23" class="st8" width="335.55" height="96"/>
	</g>
	<g class="st7">
		<path class="st9" d="M176.68,165.08v20.75h11.26v2.77h-14.49v-23.52H176.68z"/>
		<path class="st9" d="M194.49,165.08v23.52h-3.23v-23.52H194.49z"/>
		<path class="st9" d="M203.56,165.08l9.14,15.86c0.24,0.39,0.51,0.89,0.8,1.48c0.29,0.6,0.58,1.25,0.87,1.94v-19.28h3v23.52h-3.72
			l-9.14-15.79c-0.24-0.43-0.51-0.95-0.8-1.53c-0.29-0.59-0.58-1.23-0.87-1.92v19.25h-3v-23.52H203.56z"/>
		<path class="st9" d="M237.36,165.08v2.77h-11.42v7.31h10.73v2.77h-10.73v7.9h11.65v2.77h-14.88v-23.52H237.36z"/>
		<path class="st9" d="M253.61,165.08v23.52h-3.23v-23.52H253.61z"/>
		<path class="st9" d="M275.99,185.96c-1.17,1.13-2.46,1.91-3.85,2.35c-1.39,0.43-2.88,0.65-4.47,0.65c-1.41,0-2.7-0.21-3.85-0.64
			c-1.15-0.42-2.14-1.07-2.97-1.94c-0.83-0.87-1.47-1.95-1.92-3.23c-0.46-1.28-0.68-2.79-0.68-4.54v-3.56c0-1.72,0.23-3.22,0.68-4.5
			c0.46-1.28,1.1-2.36,1.94-3.23c0.84-0.87,1.83-1.52,2.99-1.96c1.15-0.43,2.42-0.65,3.82-0.65c1.63,0,3.06,0.2,4.27,0.6
			s2.38,1.04,3.49,1.91l-1.66,2.64c-1.07-0.87-2.08-1.45-3.05-1.73c-0.97-0.28-1.99-0.42-3.05-0.42c-0.89,0-1.71,0.15-2.46,0.46
			c-0.75,0.3-1.4,0.77-1.96,1.4c-0.55,0.63-0.98,1.44-1.29,2.41c-0.3,0.98-0.46,2.14-0.46,3.49v2.71c0,1.35,0.15,2.51,0.46,3.49
			c0.3,0.98,0.73,1.78,1.29,2.41c0.55,0.63,1.21,1.1,1.96,1.4c0.75,0.3,1.57,0.46,2.46,0.46c1.13,0,2.26-0.17,3.39-0.52
			c1.13-0.35,2.19-1,3.17-1.96L275.99,185.96z"/>
		<path class="st9" d="M288.81,188.96c-1.41,0-2.7-0.21-3.87-0.64c-1.16-0.42-2.17-1.07-3.02-1.94c-0.85-0.87-1.51-1.95-1.97-3.23
			c-0.47-1.28-0.7-2.79-0.7-4.54v-3.56c0-1.72,0.23-3.22,0.7-4.5c0.47-1.28,1.13-2.36,1.97-3.23c0.85-0.87,1.86-1.52,3.03-1.96
			c1.17-0.43,2.46-0.65,3.85-0.65c1.39,0,2.68,0.22,3.85,0.65c1.17,0.44,2.19,1.09,3.03,1.96c0.85,0.87,1.51,1.95,1.97,3.23
			c0.47,1.28,0.7,2.78,0.7,4.5v3.56c0,1.74-0.23,3.25-0.7,4.54c-0.47,1.28-1.13,2.36-1.97,3.23c-0.85,0.87-1.86,1.52-3.03,1.94
			C291.48,188.75,290.2,188.96,288.81,188.96z M288.81,167.66c-0.91,0-1.76,0.15-2.53,0.44c-0.77,0.29-1.44,0.75-1.99,1.37
			c-0.55,0.62-0.99,1.43-1.3,2.41c-0.32,0.99-0.47,2.17-0.47,3.54v2.84c0,1.37,0.16,2.55,0.47,3.54c0.31,0.99,0.75,1.79,1.3,2.41
			c0.55,0.62,1.22,1.08,1.99,1.37c0.77,0.29,1.62,0.44,2.53,0.44c0.91,0,1.76-0.15,2.53-0.44c0.77-0.29,1.44-0.75,1.99-1.37
			c0.55-0.62,0.99-1.42,1.3-2.41c0.32-0.99,0.47-2.17,0.47-3.54v-2.84c0-1.37-0.16-2.55-0.47-3.54c-0.32-0.99-0.75-1.79-1.3-2.41
			c-0.55-0.62-1.22-1.08-1.99-1.37C290.56,167.81,289.72,167.66,288.81,167.66z"/>
		<path class="st9" d="M306.72,165.08l9.14,15.86c0.24,0.39,0.51,0.89,0.8,1.48c0.29,0.6,0.58,1.25,0.87,1.94v-19.28h3v23.52h-3.72
			l-9.14-15.79c-0.24-0.43-0.51-0.95-0.8-1.53c-0.29-0.59-0.58-1.23-0.87-1.92v19.25h-3v-23.52H306.72z"/>
	</g>
	<g class="st7">
		<path class="st9" d="M175.47,154.81v-9.56l-2.63,1.6l-0.48-0.85l3.37-2.08h0.8v10.89H175.47z"/>
		<path class="st9" d="M187.13,145.35c-0.34-0.2-0.71-0.36-1.09-0.48c-0.39-0.12-0.79-0.17-1.22-0.17c-0.51,0-0.95,0.1-1.3,0.31
			c-0.35,0.21-0.64,0.51-0.88,0.9c-0.23,0.39-0.41,0.87-0.53,1.44c-0.12,0.57-0.2,1.22-0.24,1.94c0.08-0.16,0.2-0.33,0.35-0.51
			c0.16-0.18,0.35-0.35,0.57-0.5c0.23-0.15,0.49-0.27,0.79-0.37c0.3-0.1,0.64-0.14,1.03-0.14c0.46,0,0.9,0.08,1.32,0.23
			c0.42,0.15,0.79,0.37,1.1,0.66c0.32,0.29,0.57,0.64,0.75,1.06c0.19,0.42,0.28,0.89,0.28,1.43v0.36c0,0.53-0.09,1.01-0.27,1.44
			c-0.18,0.43-0.43,0.79-0.75,1.1c-0.32,0.3-0.69,0.53-1.13,0.69c-0.44,0.16-0.91,0.24-1.41,0.24c-0.51,0-0.99-0.09-1.44-0.26
			c-0.45-0.18-0.84-0.45-1.17-0.81c-0.33-0.36-0.59-0.82-0.79-1.38c-0.19-0.56-0.29-1.22-0.29-1.97v-0.36
			c0-1.17,0.09-2.16,0.28-2.98c0.19-0.82,0.45-1.48,0.79-1.99c0.34-0.51,0.76-0.89,1.25-1.12c0.49-0.23,1.05-0.35,1.68-0.35
			c0.49,0,0.98,0.07,1.46,0.2c0.48,0.13,0.92,0.31,1.34,0.54L187.13,145.35z M181.98,151.29c0,0.41,0.06,0.79,0.18,1.12
			c0.12,0.33,0.29,0.62,0.51,0.86c0.22,0.24,0.48,0.43,0.79,0.56c0.31,0.13,0.65,0.2,1.02,0.2c0.37,0,0.71-0.06,1.03-0.17
			c0.31-0.12,0.58-0.28,0.81-0.5c0.23-0.22,0.4-0.48,0.53-0.8c0.13-0.32,0.19-0.68,0.19-1.09v-0.23c0-0.4-0.07-0.76-0.21-1.08
			c-0.14-0.32-0.33-0.58-0.56-0.8c-0.23-0.22-0.5-0.38-0.81-0.49c-0.31-0.11-0.63-0.17-0.96-0.17c-0.32,0-0.63,0.06-0.94,0.18
			c-0.3,0.12-0.57,0.29-0.8,0.5c-0.23,0.21-0.42,0.47-0.57,0.76c-0.15,0.3-0.22,0.62-0.22,0.96V151.29z"/>
		<path class="st9" d="M193.88,143.96H195v1.15h-1.12V143.96z M193.92,146.67h1.03v8.14h-1.03V146.67z"/>
		<path class="st9" d="M200.4,146.52c0.57,0,1.08,0.07,1.51,0.2c0.43,0.14,0.82,0.33,1.16,0.6l-0.47,0.8
			c-0.38-0.26-0.75-0.44-1.1-0.54c-0.35-0.1-0.72-0.14-1.1-0.14c-0.72,0-1.29,0.24-1.71,0.72c-0.41,0.48-0.62,1.15-0.62,2v1.04
			c0,0.9,0.21,1.59,0.63,2.07c0.42,0.48,1,0.73,1.72,0.73c0.56,0,1.03-0.08,1.4-0.23c0.37-0.16,0.7-0.34,0.99-0.57l0.48,0.82
			c-0.15,0.11-0.32,0.22-0.5,0.33c-0.18,0.11-0.39,0.21-0.62,0.29c-0.23,0.09-0.49,0.16-0.79,0.21c-0.29,0.06-0.62,0.08-0.98,0.08
			c-1.07,0-1.9-0.32-2.49-0.97c-0.59-0.65-0.89-1.57-0.89-2.76v-1.01c0-0.59,0.08-1.12,0.25-1.58c0.17-0.46,0.4-0.84,0.69-1.15
			c0.29-0.31,0.64-0.54,1.06-0.7C199.44,146.6,199.9,146.52,200.4,146.52z"/>
		<path class="st9" d="M207.96,146.52c1.1,0,1.95,0.32,2.55,0.97c0.6,0.64,0.91,1.56,0.91,2.73v1.01c0,1.18-0.3,2.09-0.91,2.73
			c-0.6,0.64-1.46,0.97-2.55,0.97c-1.1,0-1.95-0.32-2.55-0.97c-0.6-0.64-0.91-1.56-0.91-2.73v-1.01c0-1.19,0.3-2.1,0.91-2.74
			C206.01,146.84,206.86,146.52,207.96,146.52z M207.96,154.02c0.75,0,1.35-0.23,1.77-0.7c0.43-0.47,0.64-1.19,0.64-2.15v-0.89
			c0-0.97-0.21-1.68-0.64-2.15c-0.43-0.47-1.02-0.7-1.77-0.7c-0.76,0-1.35,0.23-1.78,0.7c-0.43,0.47-0.64,1.19-0.64,2.15v0.89
			c0,0.97,0.21,1.68,0.64,2.15C206.61,153.79,207.2,154.02,207.96,154.02z"/>
		<path class="st9" d="M216.96,146.52c0.94,0,1.66,0.25,2.17,0.76c0.51,0.51,0.76,1.19,0.76,2.05v5.48h-1.03v-5.23
			c0-0.29-0.03-0.57-0.09-0.82c-0.06-0.26-0.17-0.48-0.32-0.68c-0.16-0.2-0.37-0.35-0.63-0.46c-0.27-0.11-0.6-0.17-1-0.17
			c-0.34,0-0.66,0.06-0.94,0.19c-0.29,0.13-0.53,0.29-0.73,0.49c-0.2,0.2-0.36,0.42-0.48,0.66s-0.17,0.48-0.17,0.73v5.29h-1.03
			v-8.14h1.01v1.13c0.09-0.15,0.21-0.3,0.36-0.46c0.15-0.16,0.33-0.29,0.54-0.42c0.21-0.12,0.45-0.22,0.71-0.29
			C216.35,146.55,216.64,146.52,216.96,146.52z"/>
		<path class="st9" d="M228.61,154.01c0.67,0,1.17-0.13,1.51-0.39c0.34-0.26,0.51-0.57,0.51-0.92v-0.15c0-0.41-0.17-0.73-0.51-0.94
			c-0.34-0.21-0.9-0.39-1.68-0.54c-0.41-0.08-0.79-0.18-1.12-0.29c-0.33-0.11-0.61-0.25-0.85-0.42c-0.23-0.17-0.41-0.38-0.54-0.61
			c-0.13-0.24-0.2-0.52-0.2-0.85v-0.21c0-0.29,0.06-0.57,0.18-0.83c0.12-0.26,0.3-0.49,0.54-0.69c0.24-0.2,0.55-0.35,0.91-0.47
			c0.37-0.12,0.8-0.17,1.31-0.17c0.62,0,1.16,0.08,1.62,0.23c0.45,0.16,0.85,0.36,1.18,0.61l-0.47,0.77
			c-0.34-0.23-0.69-0.41-1.04-0.53c-0.35-0.12-0.79-0.18-1.31-0.18c-0.61,0-1.08,0.12-1.41,0.37c-0.32,0.25-0.48,0.55-0.48,0.9v0.17
			c0,0.35,0.18,0.63,0.54,0.83c0.36,0.2,0.86,0.36,1.5,0.48c1.01,0.19,1.74,0.46,2.18,0.82c0.45,0.35,0.67,0.86,0.67,1.51v0.23
			c0,0.32-0.08,0.62-0.23,0.89c-0.15,0.27-0.36,0.51-0.63,0.7c-0.27,0.2-0.58,0.35-0.94,0.45c-0.36,0.11-0.76,0.16-1.19,0.16
			c-0.66,0-1.26-0.09-1.77-0.26c-0.52-0.18-0.97-0.41-1.35-0.69l0.5-0.82c0.37,0.25,0.77,0.46,1.2,0.61
			C227.67,153.93,228.12,154.01,228.61,154.01z"/>
		<path class="st9" d="M239.53,154.01c-0.32,0.23-0.72,0.44-1.21,0.63c-0.48,0.19-1.07,0.29-1.75,0.29c-1.09,0-1.93-0.32-2.54-0.97
			c-0.6-0.65-0.91-1.57-0.91-2.76v-1.01c0-1.16,0.29-2.06,0.88-2.7c0.59-0.64,1.4-0.97,2.42-0.97c1.07,0,1.88,0.33,2.44,0.99
			c0.56,0.66,0.84,1.56,0.84,2.71v0.85h-5.56v0.14c0,0.91,0.22,1.6,0.65,2.09c0.43,0.49,1.03,0.73,1.78,0.73
			c0.54,0,1.02-0.08,1.43-0.24s0.77-0.35,1.06-0.56L239.53,154.01z M238.68,150.2v-0.14c0-0.86-0.2-1.51-0.59-1.96
			c-0.39-0.45-0.95-0.68-1.66-0.68c-0.72,0-1.29,0.24-1.68,0.72c-0.4,0.48-0.6,1.12-0.6,1.93v0.14H238.68z"/>
		<path class="st9" d="M242.37,147.54h-1.39v-0.88h1.39v-2.1h1.03v2.1h2.25v0.88h-2.25v4.95c0,0.55,0.09,0.94,0.26,1.16
			c0.18,0.22,0.47,0.33,0.88,0.33c0.4,0,0.79-0.05,1.15-0.15l0.15,0.85c-0.16,0.06-0.38,0.11-0.64,0.14
			c-0.27,0.04-0.51,0.05-0.73,0.05c-0.35,0-0.66-0.04-0.93-0.12c-0.27-0.08-0.49-0.21-0.66-0.39c-0.17-0.18-0.3-0.42-0.38-0.72
			c-0.09-0.3-0.13-0.67-0.13-1.11V147.54z"/>
	</g>
	<g class="st7">
		<g>
			<path class="st10" d="M345.39,173.79c-2.58,0-5.35-1.26-7.26-4.79c-3.9-7.2-2.18-12.32-0.8-14.74c1.8-3.16,4.96-5.29,8.05-5.42
				c6.04-0.25,6.56,6.02,6.57,6.08l-1,0.07c-0.01-0.22-0.42-5.36-5.53-5.15c-2.72,0.11-5.62,2.09-7.23,4.91
				c-1.27,2.23-2.85,6.99,0.81,13.77c2,3.69,5.32,5.11,8.91,3.81c2.98-1.08,5.68-4.08,5.04-7.22l0.98-0.2
				c0.75,3.67-2.3,7.13-5.67,8.36C347.37,173.6,346.39,173.79,345.39,173.79z"/>
		</g>
		<g>
			<path class="st10" d="M379.31,173.79c-1,0-1.98-0.19-2.86-0.51c-3.38-1.23-6.42-4.69-5.68-8.36l0.98,0.2
				c-0.64,3.14,2.06,6.13,5.04,7.22c3.58,1.3,6.91-0.12,8.91-3.81c3.67-6.78,2.08-11.53,0.82-13.77c-1.61-2.83-4.51-4.8-7.23-4.91
				c-5.11-0.22-5.51,4.93-5.53,5.15l-1-0.07c0-0.06,0.53-6.33,6.57-6.08c3.1,0.13,6.26,2.25,8.05,5.42
				c1.37,2.41,3.09,7.54-0.81,14.74C384.67,172.54,381.89,173.79,379.31,173.79z"/>
		</g>
		<g>
			<path class="st10" d="M361.45,195.2h-1v-3.84c-6.22-1.37-8.02-2.74-8.3-6.18c-0.25-3.07,3.8-5.19,4.64-5.59
				c0.1-0.35,0.33-1.92-0.15-8.26c-0.63-8.2-7.07-9.46-7.34-9.51l0.17-0.98c0.08,0.01,7.48,1.43,8.17,10.42
				c0.63,8.28,0.1,8.84-0.11,9.05l-0.15,0.16l-0.11,0.01c-0.59,0.28-4.32,2.18-4.12,4.63c0.2,2.54,1.05,3.9,7.91,5.37l0.4,0.08
				V195.2z"/>
		</g>
		<g>
			<path class="st10" d="M364.27,195.2h-1v-4.64l0.4-0.08c6.85-1.47,7.7-2.83,7.9-5.37c0.19-2.43-3.45-4.3-4.1-4.62l-0.1,0
				l-0.18-0.18c-0.2-0.21-0.74-0.78-0.11-9.05c0.69-8.99,8.09-10.41,8.17-10.42l0.17,0.98c-0.27,0.05-6.72,1.31-7.34,9.51
				c-0.49,6.34-0.25,7.91-0.15,8.26c0.84,0.4,4.89,2.52,4.64,5.59c-0.28,3.45-2.07,4.81-8.3,6.18V195.2z"/>
		</g>
		<g>
			<path class="st10" d="M364.96,179.86h-5.47l0.05-0.54c0.24-2.75,0.09-9.8-1.03-13.44c-1.26-4.11-9.21-7.14-9.29-7.17l0.35-0.94
				c0.35,0.13,8.49,3.22,9.89,7.81c1.09,3.55,1.29,10.16,1.11,13.28h3.3c-0.2-3.23-0.04-9.81,1.03-13.28
				c1.41-4.58,9.55-7.68,9.89-7.81l0.35,0.94c-0.08,0.03-8.03,3.05-9.29,7.17c-1.09,3.56-1.2,10.54-0.95,13.44L364.96,179.86z"/>
		</g>
	</g>
	<g class="st7">
		<g>
			<g>
				<path class="st10" d="M443.74,164.12h-39.38c-1.33,0-2.41-1.08-2.41-2.41v-2.83c0-1.33,1.08-2.41,2.41-2.41h39.38
					c1.33,0,2.41,1.08,2.41,2.41v2.83C446.15,163.04,445.07,164.12,443.74,164.12z M404.36,157.47c-0.78,0-1.41,0.63-1.41,1.41v2.83
					c0,0.78,0.63,1.41,1.41,1.41h39.38c0.78,0,1.41-0.63,1.41-1.41v-2.83c0-0.78-0.63-1.41-1.41-1.41H404.36z"/>
			</g>
			<g>
				<polyline class="st10" points="407.97,159.29 407.97,156.97 409,156.97 409,163.62 407.97,163.62 407.97,159.29 				"/>
			</g>
			<g>
				<polyline class="st10" points="413.78,159.29 413.78,156.97 414.81,156.97 414.81,163.62 413.78,163.62 413.78,159.29 				"/>
			</g>
			<g>
				<polyline class="st10" points="419.58,159.29 419.58,156.97 420.61,156.97 420.61,163.62 419.58,163.62 419.58,159.29 				"/>
			</g>
			<g>
				<polyline class="st10" points="425.38,159.29 425.38,156.97 426.41,156.97 426.41,163.62 425.38,163.62 425.38,159.29 				"/>
			</g>
			<g>
				<polyline class="st10" points="431.18,159.29 431.18,156.97 432.22,156.97 432.22,163.62 431.18,163.62 431.18,159.29 				"/>
			</g>
			<g>
				<polyline class="st10" points="436.99,159.29 436.99,156.97 438.02,156.97 438.02,163.62 436.99,163.62 436.99,159.29 				"/>
			</g>
			<g>
				<path class="st10" d="M432.72,185.02h-16.53v-18.24h16.53V185.02z M417.19,184.02h14.53v-16.24h-14.53V184.02z"/>
			</g>
		</g>
		<g>
			<g>
				<path class="st10" d="M436.81,193.63h-25.51c-3.43,0-6.23-2.79-6.23-6.23v-24.28h37.97v24.28
					C443.04,190.84,440.24,193.63,436.81,193.63z M406.07,164.12v23.28c0,2.88,2.34,5.23,5.23,5.23h25.51
					c2.88,0,5.23-2.35,5.23-5.23v-23.28H406.07z"/>
			</g>
		</g>
		<g>
			<rect x="405.57" y="178.58" class="st10" width="11.12" height="1"/>
		</g>
		<g>
			<rect x="432.08" y="178.58" class="st10" width="10.47" height="1"/>
		</g>
	</g>
	<g class="st7">
		<g>
			<g>
				<path class="st10" d="M59.42,203.42c-1.26-1.4-3.01-1.08-4.43-0.43c-0.5-18.56-12.82-30.79-27.95-30.79
					c-15.09,0-27.39,12.16-27.95,30.63c-1.35-0.53-2.91-0.69-4.06,0.59c-2.25,2.51-1.7,10.97,6.74,14.21
					c5.32,13.52,17.33,24.13,25.26,24.13c8.67,0,20.25-10.56,25.36-24.03C61.11,214.58,61.69,205.95,59.42,203.42z"/>
				<path class="st9" d="M27.04,242.26c-8.53,0-20.48-11.31-25.65-24.24c-3.98-1.59-6.78-4.65-7.69-8.4
					c-0.62-2.57-0.23-5.19,0.96-6.53c0.97-1.08,2.32-1.41,3.96-0.94c0.82-17.68,12.68-30.44,28.42-30.44
					c15.79,0,27.65,12.81,28.43,30.56c1.79-0.62,3.29-0.33,4.33,0.83c1.22,1.36,1.59,4.02,0.94,6.63c-0.96,3.8-3.85,6.86-7.95,8.41
					C47.65,231.45,36.14,242.26,27.04,242.26z M-2.75,202.93c-0.75,0-1.35,0.27-1.84,0.82c-0.79,0.89-1.36,3.03-0.73,5.63
					c0.5,2.05,2.1,5.8,7.28,7.78l0.21,0.08l0.08,0.2c5.53,14.03,17.5,23.81,24.8,23.81c8.62,0,20.02-10.85,24.89-23.7l0.08-0.21
					l0.22-0.08c5.33-1.93,7.01-5.71,7.53-7.8c0.66-2.64,0.1-4.82-0.71-5.72c-0.88-0.99-2.18-1.07-3.85-0.31l-0.69,0.31l-0.02-0.75
					c-0.47-17.56-12.02-30.3-27.45-30.3c-15.37,0-26.92,12.68-27.45,30.15l-0.02,0.71l-0.66-0.26
					C-1.69,203.05-2.25,202.93-2.75,202.93z"/>
			</g>
		</g>
		<g>
			<path class="st8" d="M-21.29,185.67c0.7,1.22,9.43,6.04,7.06,13.99c-3.17,10.6,7.45,27.08,9.36,30.15
				c1.91,3.07,3.93,2.62,5.68,2.94c1.75,0.32-2.84-7.5-3.61-9.53c-0.77-2.02-1.18-16.11-1.18-17.56c0.01-1.45,2.63-2.15,2.63-2.15
				s3.2,6,3.85,7.19c0.65,1.19,3.29,2.17,3.66-2.49c0.37-4.67-13.63-28.64-13.73-29.45"/>
			<path class="st9" d="M0.92,233.25c-0.06,0-0.12-0.01-0.19-0.02c-0.31-0.06-0.63-0.09-0.96-0.12c-1.5-0.15-3.37-0.33-5.06-3.05
				l-0.2-0.33c-10.2-16.32-10.64-25.45-9.21-30.23c1.8-6.03-3.24-10.26-5.66-12.29c-0.73-0.62-1.18-0.99-1.36-1.31l0.87-0.5
				c0.1,0.17,0.62,0.61,1.14,1.04c2.58,2.17,7.96,6.68,5.97,13.34c-1.37,4.59-0.9,13.41,9.1,29.41l0.2,0.33
				c1.43,2.3,2.83,2.43,4.31,2.58c0.29,0.03,0.57,0.06,0.85,0.1c-0.08-0.98-1.7-4.17-2.59-5.94c-0.62-1.22-1.15-2.28-1.38-2.88
				c-0.82-2.15-1.22-16.43-1.21-17.74c0.01-1.78,2.7-2.55,3-2.63l0.38-0.1l0.19,0.35c0,0,3.2,6,3.85,7.18
				c0.24,0.43,0.84,0.82,1.36,0.71c0.73-0.16,1.23-1.25,1.37-3c0.27-3.33-7.58-17.8-11.36-24.75c-2.05-3.78-2.34-4.34-2.37-4.6
				l0.99-0.12c0.08,0.23,1.09,2.1,2.26,4.25c4.11,7.58,11.76,21.68,11.47,25.31c-0.23,2.89-1.3,3.72-2.15,3.9
				c-1.04,0.22-2.03-0.45-2.44-1.2c-0.55-1.01-2.95-5.5-3.66-6.83c-0.72,0.26-1.88,0.83-1.89,1.55c-0.01,1.7,0.43,15.5,1.14,17.38
				c0.21,0.55,0.73,1.59,1.34,2.78c2.34,4.62,3.07,6.39,2.52,7.13C1.4,233.15,1.17,233.25,0.92,233.25z"/>
		</g>
		<g>
			<path class="st8" d="M75.52,185.67c-0.7,1.22-9.43,6.04-7.06,13.99c3.17,10.6-7.45,27.08-9.36,30.15
				c-1.91,3.07-3.93,2.62-5.68,2.94c-1.75,0.32,2.84-7.5,3.61-9.53c0.77-2.02,1.18-16.11,1.18-17.56c-0.01-1.45-2.63-2.15-2.63-2.15
				s-3.2,6-3.85,7.19c-0.65,1.19-3.29,2.17-3.66-2.49c-0.37-4.67,13.63-28.64,13.73-29.45"/>
			<path class="st9" d="M53.31,233.25c-0.26,0-0.48-0.1-0.62-0.3c-0.55-0.73,0.18-2.51,2.52-7.13c0.6-1.2,1.13-2.23,1.34-2.78
				c0.71-1.88,1.15-15.68,1.14-17.38c0-0.69-1.1-1.27-1.88-1.55c-0.71,1.32-3.11,5.82-3.66,6.83c-0.41,0.75-1.41,1.43-2.44,1.2
				c-0.86-0.18-1.92-1.01-2.16-3.9c-0.29-3.63,7.36-17.73,11.47-25.31c1.17-2.15,2.18-4.02,2.27-4.3l0.98,0.17
				c-0.03,0.26-0.32,0.82-2.37,4.6c-3.77,6.95-11.62,21.42-11.36,24.75c0.14,1.75,0.64,2.85,1.37,3c0.52,0.11,1.12-0.28,1.36-0.71
				c0.65-1.19,3.85-7.18,3.85-7.18l0.19-0.35l0.38,0.1c0.31,0.08,2.99,0.84,3,2.63c0.01,1.3-0.39,15.59-1.21,17.74
				c-0.23,0.6-0.76,1.66-1.38,2.88c-0.9,1.77-2.51,4.97-2.59,5.95c0.28-0.04,0.56-0.07,0.85-0.1c1.48-0.15,2.88-0.28,4.31-2.58
				l0.2-0.33c10.01-16,10.47-24.83,9.1-29.41c-1.99-6.66,3.39-11.17,5.97-13.34c0.51-0.43,1.04-0.87,1.14-1.04l0.87,0.5
				c-0.18,0.32-0.63,0.7-1.36,1.31c-2.42,2.03-7.46,6.26-5.66,12.29c1.43,4.78,0.99,13.91-9.21,30.23l-0.2,0.33
				c-1.69,2.72-3.56,2.9-5.06,3.05c-0.33,0.03-0.65,0.06-0.96,0.12C53.44,233.24,53.37,233.25,53.31,233.25z"/>
		</g>
		<g>
			<path class="st10" d="M31.05,197.78c0,0,8.8-3.22,13.04-2.37c4.23,0.85,4.96,2.37,4.96,2.37"/>
			<path class="st9" d="M31.22,198.25l-0.34-0.94c0.36-0.13,8.98-3.26,13.31-2.39c4.35,0.87,5.23,2.47,5.31,2.65l-0.9,0.43
				c0,0-0.76-1.33-4.6-2.1C39.94,195.09,31.3,198.22,31.22,198.25z"/>
		</g>
		<g>
			<path class="st10" d="M21.56,197.78c0,0-8.8-3.22-13.04-2.37c-4.23,0.85-4.96,2.37-4.96,2.37"/>
			<path class="st9" d="M21.39,198.25c-0.09-0.03-8.72-3.16-12.77-2.35c-3.84,0.77-4.6,2.09-4.61,2.11l-0.9-0.44
				c0.09-0.18,0.96-1.78,5.31-2.65c4.32-0.86,12.94,2.26,13.31,2.39L21.39,198.25z"/>
		</g>
		<g>
			<path class="st10" d="M7.56,205.01c0,0,5.93,0.9,11.69,0"/>
			<path class="st9" d="M13.64,205.92c-3.4,0-5.99-0.38-6.15-0.41l0.15-0.99c0.06,0.01,5.93,0.88,11.53,0l0.15,0.99
				C17.36,205.81,15.39,205.92,13.64,205.92z"/>
		</g>
		<g>
			<path class="st10" d="M34.2,205.01c0,0,5.93,0.9,11.69,0"/>
			<path class="st9" d="M40.28,205.92c-3.4,0-5.99-0.38-6.15-0.41l0.15-0.99c0.06,0.01,5.93,0.88,11.53,0l0.15,0.99
				C44,205.81,42.03,205.92,40.28,205.92z"/>
		</g>
	</g>
	<g class="st7">
		<g>
			<g>
				<path class="st10" d="M161.34,308.19c-1.35-1.51-3.25-1.16-4.78-0.47c-0.54-20.01-13.82-33.19-30.14-33.19
					c-16.27,0-29.52,13.11-30.13,33.02c-1.45-0.57-3.14-0.75-4.37,0.64c-2.42,2.7-1.83,11.83,7.26,15.32
					c5.74,14.57,18.68,26.02,27.24,26.02c9.35,0,21.83-11.38,27.34-25.9C163.15,320.23,163.79,310.93,161.34,308.19z"/>
				<path class="st9" d="M126.43,350.03c-9.19,0-22.06-12.19-27.62-26.13c-4.29-1.71-7.3-5-8.28-9.04c-0.67-2.76-0.25-5.57,1.03-7
					c1.04-1.16,2.5-1.51,4.27-0.99c0.87-19.07,13.65-32.83,30.6-32.83c17.01,0,29.79,13.82,30.61,32.96
					c1.94-0.69,3.55-0.39,4.68,0.87c1.3,1.46,1.7,4.31,1,7.11c-1.03,4.09-4.14,7.38-8.56,9.05
					C148.62,338.38,136.22,350.03,126.43,350.03z M94.31,307.63c-0.82,0-1.48,0.29-2.01,0.89c-1.05,1.18-1.38,3.69-0.8,6.1
					c0.54,2.22,2.27,6.27,7.87,8.42l0.21,0.08l0.08,0.21c5.96,15.14,18.9,25.7,26.77,25.7c9.3,0,21.61-11.71,26.87-25.58l0.08-0.21
					l0.22-0.08c5.77-2.09,7.58-6.18,8.15-8.43c0.72-2.86,0.1-5.22-0.77-6.2c-0.96-1.08-2.38-1.17-4.2-0.35l-0.69,0.31l-0.02-0.75
					c-0.51-18.95-12.97-32.71-29.64-32.71c-16.6,0-29.06,13.68-29.63,32.54l-0.02,0.71l-0.66-0.26
					C95.46,307.77,94.85,307.63,94.31,307.63z"/>
			</g>
		</g>
		<g>
			<path class="st8" d="M152.75,312.03c0,17.57-11.69,34.27-26.12,34.27c-14.43,0-26.12-16.7-26.12-34.27
				c0-17.57,11.7-31.81,26.12-31.81C141.06,280.22,152.75,294.47,152.75,312.03z"/>
			<path class="st9" d="M126.63,346.8c-14.18,0-26.62-16.25-26.62-34.77c0-17.82,11.94-32.31,26.62-32.31
				c14.68,0,26.62,14.49,26.62,32.31C153.25,330.55,140.81,346.8,126.63,346.8z M126.63,280.72c-14.13,0-25.62,14.05-25.62,31.31
				c0,17.99,11.97,33.77,25.62,33.77c13.65,0,25.62-15.78,25.62-33.77C152.25,294.77,140.76,280.72,126.63,280.72z"/>
		</g>
		<g>
			<path class="st10" d="M104.7,310.88c0,2.62,3.94,4.75,8.79,4.75c4.86,0,8.79-2.13,8.79-4.75c0-2.62-3.94-4.75-8.79-4.75
				C108.64,306.13,104.7,308.26,104.7,310.88z"/>
			<path class="st9" d="M113.49,316.13c-5.21,0-9.29-2.31-9.29-5.25c0-2.94,4.08-5.25,9.29-5.25c5.21,0,9.29,2.31,9.29,5.25
				C122.79,313.83,118.71,316.13,113.49,316.13z M113.49,306.63c-4.5,0-8.29,1.95-8.29,4.25c0,2.3,3.8,4.25,8.29,4.25
				c4.5,0,8.29-1.95,8.29-4.25C121.79,308.58,117.99,306.63,113.49,306.63z"/>
		</g>
		<g>
			<path class="st10" d="M120.99,322.28c0,0.99,2.52,0,5.64,0c3.11,0,5.64,0.99,5.64,0c0-0.99-2.53-1.79-5.64-1.79
				C123.52,320.48,120.99,321.29,120.99,322.28z"/>
			<path class="st9" d="M131.5,323.22c-0.43,0-0.99-0.08-1.64-0.16c-0.91-0.12-2.03-0.28-3.23-0.28c-1.2,0-2.32,0.15-3.23,0.28
				c-0.65,0.09-1.21,0.16-1.64,0.16l0,0c-1.11,0-1.27-0.59-1.27-0.94c0-1.58,3.18-2.29,6.14-2.29c2.96,0,6.14,0.72,6.14,2.29
				C132.77,322.63,132.61,323.22,131.5,323.22z M126.63,321.78c1.26,0,2.43,0.16,3.36,0.29c0.81,0.11,1.54,0.18,1.75,0.14
				c-0.21-0.42-1.94-1.22-5.12-1.22c-3.18,0-4.92,0.8-5.12,1.22c0.05,0.01,0.13,0.02,0.25,0.02l0,0c0.36,0,0.89-0.07,1.5-0.16
				C124.2,321.93,125.37,321.78,126.63,321.78z"/>
		</g>
		<g>
			<path class="st10" d="M116.18,334.04c0,1.55,4.97,4.34,11.11,4.34c6.14,0,11.11-2.8,11.11-4.34s-4.97-1.25-11.11-1.25
				C121.16,332.78,116.18,332.49,116.18,334.04z"/>
			<path class="st9" d="M127.29,338.88c-5.98,0-11.61-2.73-11.61-4.84c0-1.93,3.87-1.8,9.07-1.76c1.63,0.01,3.45,0.01,5.09,0
				c5.19-0.04,9.07-0.16,9.07,1.76C138.9,336.15,133.27,338.88,127.29,338.88z M122.58,333.26c-1.46,0-5.9,0-5.9,0.77
				c0,1.11,4.59,3.84,10.61,3.84c6.02,0,10.61-2.73,10.61-3.84c0-0.77-4.44-0.77-5.9-0.77c-0.69,0-1.41,0-2.16,0.01
				c-1.64,0.01-3.46,0.01-5.1,0C123.99,333.27,123.26,333.26,122.58,333.26z"/>
		</g>
		<g>
			<ellipse class="st10" cx="140.3" cy="310.88" rx="8.79" ry="4.75"/>
			<path class="st9" d="M140.3,316.13c-5.21,0-9.29-2.31-9.29-5.25c0-2.94,4.08-5.25,9.29-5.25c5.21,0,9.29,2.31,9.29,5.25
				C149.59,313.83,145.51,316.13,140.3,316.13z M140.3,306.63c-4.5,0-8.29,1.95-8.29,4.25c0,2.3,3.8,4.25,8.29,4.25
				s8.29-1.95,8.29-4.25C148.59,308.58,144.79,306.63,140.3,306.63z"/>
		</g>
	</g>
	<g class="st7">
		<g>
			<g>
				<g>
					<path class="st10" d="M282.5,282.42c-1.23-1.37-2.95-1.06-4.34-0.42c-0.49-18.15-12.54-30.11-27.34-30.11
						c-14.76,0-26.79,11.9-27.34,29.96c-1.32-0.52-2.85-0.68-3.97,0.58c-2.2,2.45-1.66,10.73,6.59,13.9
						c5.21,13.22,16.95,23.6,24.71,23.6c8.48,0,19.8-10.33,24.8-23.5C284.14,293.34,284.71,284.91,282.5,282.42z"/>
					<path class="st9" d="M250.82,320.43c-8.35,0-20.04-11.06-25.1-23.72c-3.9-1.56-6.63-4.55-7.52-8.22
						c-0.61-2.52-0.23-5.09,0.94-6.4c0.95-1.06,2.27-1.38,3.87-0.93c0.81-17.29,12.42-29.77,27.81-29.77
						c15.44,0,27.05,12.52,27.82,29.89c1.75-0.6,3.21-0.32,4.23,0.82c1.19,1.33,1.56,3.94,0.92,6.49c-0.94,3.72-3.77,6.71-7.78,8.23
						C270.98,309.86,259.72,320.43,250.82,320.43z M221.68,281.96c-0.73,0-1.31,0.26-1.79,0.8c-0.77,0.87-1.33,2.95-0.71,5.5
						c0.48,2.01,2.05,5.66,7.11,7.61l0.21,0.08l0.08,0.21c5.41,13.72,17.12,23.29,24.25,23.29c8.42,0,19.57-10.61,24.34-23.18
						l0.08-0.21l0.22-0.08c5.21-1.89,6.85-5.58,7.36-7.62c0.65-2.58,0.1-4.7-0.69-5.58c-0.86-0.96-2.12-1.05-3.75-0.3l-0.69,0.31
						l-0.02-0.75c-0.46-17.17-11.75-29.63-26.84-29.63c-15.03,0-26.32,12.4-26.84,29.48l-0.02,0.71l-0.66-0.26
						C222.71,282.08,222.16,281.96,221.68,281.96z"/>
				</g>
			</g>
			<g>
				<path class="st10" d="M254.74,276.91c0,0,8.61-3.15,12.75-2.32c4.14,0.83,4.85,2.32,4.85,2.32"/>
				<path class="st9" d="M254.91,277.38l-0.34-0.94c0.36-0.13,8.8-3.19,13.02-2.34c4.26,0.85,5.12,2.42,5.2,2.59l-0.9,0.43
					c0,0-0.75-1.29-4.5-2.04C263.43,274.3,254.99,277.35,254.91,277.38z"/>
			</g>
			<g>
				<path class="st10" d="M245.46,276.91c0,0-8.61-3.15-12.75-2.32c-4.14,0.83-4.85,2.32-4.85,2.32"/>
				<path class="st9" d="M245.29,277.38c-0.08-0.03-8.52-3.09-12.48-2.3c-3.75,0.75-4.49,2.04-4.5,2.06l-0.9-0.44
					c0.08-0.18,0.94-1.74,5.2-2.59c4.22-0.84,12.66,2.21,13.02,2.34L245.29,277.38z"/>
			</g>
			<g>
				<path class="st10" d="M231.77,283.99c0,0,5.8,0.88,11.43,0"/>
				<path class="st9" d="M237.71,284.88c-3.33,0-5.86-0.38-6.02-0.4l0.15-0.99c0.06,0.01,5.8,0.86,11.28,0l0.15,0.99
					C241.35,284.78,239.43,284.88,237.71,284.88z"/>
			</g>
			<g>
				<path class="st10" d="M257.82,283.99c0,0,5.8,0.88,11.43,0"/>
				<path class="st9" d="M263.77,284.88c-3.33,0-5.86-0.38-6.02-0.4l0.15-0.99c0.06,0.01,5.79,0.86,11.28,0l0.15,0.99
					C267.41,284.78,265.48,284.88,263.77,284.88z"/>
			</g>
		</g>
		<g>
			<g>
				<g>
					<path class="st10" d="M320.85,286.94c0.2,0.84-0.32,1.69-1.16,1.89l-20.41,4.88c-0.84,0.2-1.69-0.32-1.89-1.16l-1.45-6.05
						c-0.2-0.84,0.32-1.69,1.16-1.89l20.41-4.88c0.84-0.2,1.69,0.32,1.89,1.16L320.85,286.94z"/>
					<path class="st9" d="M298.92,294.25c-0.96,0-1.79-0.65-2.01-1.59l-1.45-6.05c-0.13-0.54-0.04-1.09,0.25-1.56
						c0.29-0.47,0.75-0.8,1.28-0.93l20.41-4.88c1.1-0.26,2.23,0.44,2.49,1.53l1.45,6.05c0.26,1.11-0.42,2.23-1.53,2.49l-20.41,4.88
						C299.25,294.23,299.08,294.25,298.92,294.25z M317.88,280.18c-0.08,0-0.17,0.01-0.25,0.03l-20.41,4.88
						c-0.28,0.07-0.51,0.24-0.66,0.48c-0.15,0.24-0.19,0.53-0.13,0.8l1.45,6.05c0.13,0.56,0.71,0.93,1.29,0.79l20.41-4.88
						c0.57-0.14,0.93-0.71,0.79-1.29l-1.45-6.05C318.81,280.52,318.38,280.18,317.88,280.18z"/>
				</g>
				<g>
					<path class="st10" d="M283.69,296.55l-1.64-6.84c-0.25-1.05-1.3-1.69-2.35-1.44l-2.54,0.61c-1.05,0.25-1.63,1.55-1.63,1.55
						l-3.44,2.34l1.26,5.28l4.2,0.81c0,0,1.11,0.89,2.16,0.64l2.54-0.61C283.3,298.65,283.94,297.6,283.69,296.55z"/>
					<path class="st9" d="M279.32,300.05c-0.89,0-1.7-0.52-1.98-0.72l-4.4-0.85l-1.42-5.93l3.62-2.46c0.2-0.38,0.85-1.44,1.91-1.7
						l2.54-0.61c1.3-0.31,2.64,0.52,2.95,1.81l1.64,6.84c0.15,0.64,0.05,1.29-0.3,1.85c-0.34,0.56-0.88,0.95-1.52,1.1l-2.54,0.61
						C279.67,300.03,279.5,300.05,279.32,300.05z M273.76,297.62l4,0.78l0.1,0.08c0.01,0.01,1,0.72,1.73,0.55l2.54-0.61
						c0.78-0.19,1.26-0.97,1.07-1.75l-1.64-6.84c-0.18-0.77-0.98-1.26-1.75-1.07l-2.54,0.61c-0.79,0.19-1.29,1.26-1.3,1.27
						l-0.06,0.13l-3.27,2.23L273.76,297.62z"/>
				</g>
				<g>
					<path class="st10" d="M311.46,290.26c0.25,1.05-0.39,2.1-1.44,2.35l-25.37,6.07c-1.05,0.25-2.1-0.4-2.35-1.44l-1.8-7.52
						c-0.25-1.05,0.4-2.1,1.44-2.35l25.37-6.07c1.05-0.25,2.1,0.4,2.35,1.44L311.46,290.26z"/>
					<path class="st9" d="M284.2,299.23c-1.14,0-2.12-0.77-2.38-1.88l-1.8-7.52c-0.15-0.64-0.05-1.29,0.29-1.85
						c0.34-0.56,0.88-0.95,1.52-1.1l25.37-6.07c1.31-0.31,2.64,0.52,2.95,1.81l1.8,7.52c0.15,0.64,0.05,1.29-0.29,1.85
						c-0.34,0.56-0.88,0.95-1.52,1.1l-25.37,6.07C284.58,299.21,284.39,299.23,284.2,299.23z M307.77,281.75
						c-0.11,0-0.23,0.01-0.34,0.04l-25.37,6.07c-0.38,0.09-0.7,0.32-0.9,0.65c-0.2,0.33-0.26,0.72-0.17,1.1l1.8,7.52
						c0.18,0.77,0.97,1.26,1.75,1.07l25.37-6.07c0.38-0.09,0.7-0.32,0.9-0.65c0.2-0.33,0.26-0.72,0.17-1.1l-1.8-7.52
						C309.02,282.21,308.44,281.75,307.77,281.75z"/>
				</g>
				<g>
					
						<rect x="260.31" y="296.38" transform="matrix(0.9726 -0.2324 0.2324 0.9726 -61.7021 70.0377)" class="st9" width="12.14" height="1"/>
				</g>
				<g>
					<line class="st10" x1="289.7" y1="285.52" x2="290.71" y2="289.76"/>
					
						<rect x="289.71" y="285.46" transform="matrix(0.9726 -0.2325 0.2325 0.9726 -58.9244 75.3575)" class="st9" width="1" height="4.36"/>
				</g>
				<g>
					<line class="st10" x1="293.55" y1="284.6" x2="294.56" y2="288.84"/>
					
						<rect x="293.55" y="284.54" transform="matrix(0.9725 -0.2327 0.2327 0.9725 -58.6463 76.2957)" class="st9" width="1" height="4.36"/>
				</g>
				<g>
					<line class="st10" x1="297.39" y1="283.68" x2="298.41" y2="287.92"/>
					
						<rect x="297.4" y="283.62" transform="matrix(0.9725 -0.2327 0.2327 0.9725 -58.3265 77.1653)" class="st9" width="1" height="4.36"/>
				</g>
			</g>
			<g>
				<path class="st10" d="M315.73,293.43c0.14,0.66-0.29,1.31-0.95,1.45l-3.76,0.78c-0.66,0.14-1.31-0.29-1.45-0.95l-3.32-16.02
					c-0.14-0.66,0.29-1.31,0.95-1.45l3.76-0.78c0.66-0.14,1.31,0.29,1.45,0.95L315.73,293.43z"/>
				<path class="st9" d="M310.77,296.19c-0.81,0-1.52-0.58-1.69-1.37l-3.32-16.02c-0.19-0.93,0.41-1.84,1.34-2.04l3.76-0.78
					c0.92-0.19,1.85,0.43,2.04,1.34l3.32,16.02c0.19,0.93-0.41,1.84-1.34,2.04l-3.76,0.78
					C311.01,296.17,310.89,296.19,310.77,296.19z M311.21,276.94c-0.05,0-0.1,0-0.15,0.02l-3.76,0.78
					c-0.39,0.08-0.64,0.46-0.56,0.86l3.32,16.02c0.08,0.38,0.46,0.65,0.86,0.56l3.76-0.78c0.39-0.08,0.64-0.47,0.56-0.86
					l-3.32-16.02C311.85,277.19,311.55,276.94,311.21,276.94z"/>
			</g>
		</g>
	</g>
	<g class="st7">
		<g>
			<path class="st9" d="M381.28,320.82l-0.4-0.05c-2.69-0.32-10.86-1.29-12.4-9.9c-0.98-5.5,1.71-10.07,4.09-14.12
				c1.4-2.38,2.72-4.63,2.98-6.64c0.18-1.4-0.12-2.55-0.89-3.43c-1.74-1.98-5.34-2.01-5.38-2.01h-23.99v-1h23.99
				c0.17,0,4.08,0.03,6.13,2.35c0.97,1.1,1.35,2.52,1.14,4.22c-0.28,2.22-1.66,4.55-3.11,7.03c-2.29,3.89-4.88,8.3-3.97,13.43
				c1.41,7.89,8.76,8.76,11.53,9.09l0.28,0.03l0.28-0.03c2.77-0.33,10.12-1.2,11.53-9.09c0.91-5.1-1.68-9.5-3.96-13.37
				c-1.47-2.49-2.86-4.85-3.12-7.09c-0.2-1.71,0.2-3.13,1.18-4.23c2.05-2.31,5.92-2.33,6.08-2.33h23.99v1h-23.99
				c-0.04,0-3.59,0.03-5.34,2c-0.78,0.88-1.09,2.04-0.93,3.45c0.24,2.03,1.57,4.3,2.99,6.7c2.37,4.02,5.06,8.59,4.08,14.06
				c-1.54,8.62-9.71,9.59-12.4,9.9L381.28,320.82z"/>
		</g>
		<g>
			<path class="st8" d="M378.32,298.33c-1.4,3.26-4.7,6.74-4.54,10.45c0.19,4.48,6.65,6.68,10.41,5.23
				c6.57-2.53,3.27-12.22,1.3-16.68c0,0-7.16-16.16,1.34-27.91c8.5-11.76,14.56-17.59,14.56-17.59s-8.49-1.07-18.27,13.86
				c-3.14,4.8-5.42,11.94-4.96,17.69c0.38,4.74,2,9.79,0.35,14.47C378.45,298.01,378.39,298.17,378.32,298.33z"/>
			<path class="st9" d="M381.6,314.95L381.6,314.95c-3.87,0-8.15-2.35-8.32-6.15c-0.11-2.64,1.37-5.08,2.8-7.43
				c0.68-1.13,1.33-2.19,1.78-3.24c0.06-0.15,0.12-0.3,0.17-0.44c1.16-3.3,0.63-6.88,0.12-10.34c-0.19-1.29-0.39-2.63-0.49-3.92
				c-0.45-5.49,1.58-12.73,5.04-18.01c8.57-13.09,16.18-14.11,18.3-14.11c0.29,0,0.45,0.02,0.45,0.02l1.03,0.14l-0.74,0.72
				c-0.06,0.06-6.13,5.95-14.5,17.52c-8.19,11.33-1.57,26.76-1.29,27.42c1.5,3.39,3.76,9.69,2.01,13.91
				c-0.67,1.62-1.88,2.78-3.58,3.44C383.55,314.79,382.62,314.95,381.6,314.95z M400.15,252.37c-2.54,0.32-9.21,2.28-16.62,13.6
				c-3.35,5.11-5.31,12.09-4.88,17.38c0.1,1.26,0.3,2.58,0.49,3.86c0.53,3.58,1.08,7.28-0.17,10.82c-0.06,0.17-0.13,0.33-0.2,0.5
				c-0.48,1.11-1.14,2.2-1.84,3.36c-1.36,2.23-2.76,4.54-2.66,6.87c0.14,3.21,3.9,5.19,7.32,5.19c0.89,0,1.72-0.14,2.42-0.41
				c1.46-0.56,2.45-1.51,3.02-2.89c1.66-4.02-0.84-10.51-2-13.12c-0.3-0.68-7.13-16.62,1.39-28.41
				C392.99,260.05,398.16,254.44,400.15,252.37z"/>
		</g>
	</g>
	<g class="st7">
		<g>
			<g>
				<g>
					<path class="st10" d="M410.47,605.66c-1.23-1.37-2.95-1.06-4.34-0.42c-0.49-18.15-12.54-30.11-27.34-30.11
						c-14.76,0-26.79,11.9-27.34,29.96c-1.32-0.52-2.85-0.67-3.97,0.58c-2.2,2.45-1.66,10.73,6.59,13.9
						c5.21,13.22,16.95,23.6,24.71,23.6c8.48,0,19.8-10.33,24.8-23.5C412.12,616.58,412.69,608.14,410.47,605.66z"/>
					<path class="st9" d="M378.8,643.66c-8.35,0-20.04-11.06-25.1-23.72c-3.9-1.56-6.63-4.55-7.52-8.22
						c-0.61-2.52-0.23-5.09,0.94-6.4c0.95-1.06,2.27-1.38,3.87-0.93c0.81-17.29,12.42-29.77,27.81-29.77
						c15.44,0,27.05,12.52,27.82,29.89c1.75-0.6,3.21-0.32,4.23,0.82c1.19,1.33,1.56,3.94,0.92,6.49c-0.94,3.72-3.77,6.71-7.78,8.23
						C398.96,633.09,387.7,643.66,378.8,643.66z M349.66,605.2c-0.73,0-1.31,0.26-1.79,0.79c-0.77,0.86-1.33,2.95-0.71,5.49
						c0.48,2.01,2.05,5.66,7.11,7.61l0.21,0.08l0.08,0.2c5.41,13.72,17.12,23.29,24.25,23.29c8.42,0,19.57-10.61,24.34-23.18
						l0.08-0.21l0.22-0.08c5.21-1.89,6.85-5.58,7.36-7.62c0.65-2.58,0.1-4.7-0.69-5.58c-0.86-0.96-2.13-1.05-3.75-0.3l-0.69,0.31
						l-0.02-0.75c-0.46-17.17-11.75-29.63-26.84-29.63c-15.03,0-26.32,12.4-26.84,29.48l-0.02,0.71l-0.66-0.26
						C350.69,605.32,350.14,605.2,349.66,605.2z"/>
				</g>
			</g>
			<g>
				<path class="st10" d="M382.71,600.15c0,0,8.61-3.15,12.75-2.32c4.14,0.83,4.85,2.32,4.85,2.32"/>
				<path class="st9" d="M382.88,600.62l-0.34-0.94c0.36-0.13,8.79-3.19,13.02-2.34c4.26,0.85,5.12,2.42,5.2,2.59l-0.9,0.43
					c0,0-0.75-1.29-4.5-2.04C391.41,597.53,382.97,600.59,382.88,600.62z"/>
			</g>
			<g>
				<path class="st10" d="M373.44,600.15c0,0-8.61-3.15-12.75-2.32c-4.14,0.83-4.85,2.32-4.85,2.32"/>
				<path class="st9" d="M373.27,600.62c-0.08-0.03-8.54-3.09-12.48-2.3c-3.75,0.75-4.49,2.04-4.5,2.06l-0.9-0.44
					c0.08-0.18,0.94-1.74,5.2-2.59c4.22-0.85,12.67,2.21,13.02,2.34L373.27,600.62z"/>
			</g>
			<g>
				<path class="st10" d="M359.74,607.22c0,0,5.8,0.88,11.43,0"/>
				<path class="st9" d="M365.69,608.12c-3.33,0-5.86-0.38-6.02-0.4l0.15-0.99c0.06,0.01,5.8,0.86,11.28,0l0.15,0.99
					C369.33,608.02,367.4,608.12,365.69,608.12z"/>
			</g>
			<g>
				<path class="st10" d="M385.8,607.22c0,0,5.8,0.88,11.43,0"/>
				<path class="st9" d="M391.74,608.12c-3.33,0-5.86-0.38-6.02-0.4l0.15-0.99c0.06,0.01,5.79,0.86,11.28,0l0.15,0.99
					C395.39,608.02,393.46,608.12,391.74,608.12z"/>
			</g>
		</g>
		<g>
			<path class="st8" d="M333.8,573.09c0,0,1.46,7.03-5.82,9.52c0,0,7.29-1.48,12.01,8.04c0,0-2.52-10.03,4.13-12.52
				C344.12,578.13,336.92,579.16,333.8,573.09z"/>
			<path class="st9" d="M339.99,591.15c-0.18,0-0.36-0.1-0.45-0.28c-3.51-7.08-8.49-7.84-10.46-7.84c-0.62,0-1,0.07-1,0.07
				c-0.26,0.05-0.51-0.11-0.58-0.36c-0.07-0.25,0.07-0.52,0.32-0.6c6.76-2.32,5.55-8.68,5.49-8.95c-0.05-0.25,0.09-0.49,0.32-0.57
				c0.24-0.08,0.5,0.02,0.61,0.24c2.16,4.21,6.36,4.83,8.66,4.83c0.69,0,1.14-0.06,1.14-0.06c0.25-0.03,0.49,0.12,0.55,0.37
				c0.06,0.25-0.07,0.5-0.31,0.59c-6.16,2.31-3.84,11.84-3.82,11.93c0.06,0.25-0.07,0.5-0.31,0.59
				C340.11,591.14,340.05,591.15,339.99,591.15z M330.27,582.11c2.24,0.28,5.84,1.5,8.84,6c-0.23-2.8-0.01-7.12,3-9.44
				c-2.01-0.13-5.4-0.81-7.71-3.73C334.31,576.97,333.59,580.11,330.27,582.11z"/>
		</g>
		<g>
			<path class="st8" d="M359.45,549.86c0,0-1.39,7.04-9.07,6.5c0,0,7.29,1.47,7.94,12.08c0,0,1.58-10.22,8.68-9.93
				C366.99,558.51,359.96,556.67,359.45,549.86z"/>
			<path class="st9" d="M358.31,568.94c-0.01,0-0.02,0-0.02,0c-0.25-0.01-0.46-0.21-0.48-0.47c-0.61-10.07-7.25-11.56-7.54-11.62
				c-0.26-0.05-0.43-0.3-0.39-0.56c0.04-0.26,0.25-0.45,0.53-0.43c7.16,0.49,8.53-6.04,8.54-6.1c0.05-0.25,0.25-0.43,0.52-0.4
				c0.25,0.01,0.45,0.21,0.47,0.46c0.48,6.38,7.11,8.19,7.17,8.21c0.25,0.06,0.41,0.3,0.37,0.56c-0.04,0.25-0.26,0.42-0.51,0.43
				c-6.55-0.27-8.15,9.41-8.16,9.5C358.77,568.76,358.56,568.94,358.31,568.94z M352.66,556.79c2,1.16,4.81,3.68,5.82,8.92
				c0.87-2.68,2.74-6.54,6.46-7.49c-1.91-0.95-4.68-2.9-5.66-6.42C358.4,553.63,356.51,556.25,352.66,556.79z"/>
		</g>
	</g>
	<g class="st7">
		<g>
			<path class="st10" d="M5.12,388.3c3.71-3.29,7.32-6.67,10.87-10.13c2.11-2.05,4.58-4.12,6.29-6.53c2.42-3.41,3.4-7.95,6.59-10.78
				c3.29-2.91,10.2-3.67,13.08,0.37c5.8,8.15-8.46,14.8-12.49,19.75c-1.83,2.25-9.99,9.29-15.06,13.23
				C9.34,398.16,5.12,388.3,5.12,388.3z"/>
			<path class="st9" d="M11.97,395.65c-4.19,0-7.18-6.86-7.3-7.15l-0.14-0.33l0.27-0.24c3.45-3.06,7-6.37,10.85-10.11
				c0.49-0.48,1-0.95,1.51-1.43c1.69-1.58,3.43-3.22,4.72-5.03c0.93-1.31,1.67-2.84,2.38-4.33c1.12-2.34,2.28-4.76,4.29-6.54
				c1.78-1.57,4.55-2.55,7.24-2.55c2.87,0,5.21,1.07,6.59,3c4.51,6.33-2.25,11.72-7.68,16.05c-1.94,1.55-3.77,3.01-4.82,4.3
				c-1.82,2.24-9.85,9.19-15.14,13.31C13.84,395.3,12.91,395.65,11.97,395.65z M5.73,388.43c0.63,1.32,3.16,6.22,6.23,6.22
				c0.72,0,1.44-0.28,2.14-0.82c5.14-4,13.23-10.99,14.98-13.15c1.12-1.38,2.99-2.87,4.98-4.45c5.37-4.28,11.45-9.13,7.49-14.69
				c-1.19-1.67-3.24-2.58-5.77-2.58c-2.45,0-4.97,0.88-6.57,2.3c-1.86,1.64-2.92,3.87-4.05,6.22c-0.73,1.52-1.48,3.09-2.47,4.47
				c-1.35,1.89-3.13,3.56-4.85,5.18c-0.51,0.48-1.01,0.95-1.5,1.42C12.58,382.19,9.1,385.43,5.73,388.43z"/>
		</g>
		<g>
			<g>
				<path class="st8" d="M14.41,412.72c0,1.59-1.29,2.87-2.87,2.87H-1.53c-1.59,0-2.87-1.29-2.87-2.87v-4.54
					c0-1.59,1.29-2.87,2.87-2.87h13.07c1.59,0,2.87,1.29,2.87,2.87V412.72z"/>
				<path class="st9" d="M11.54,416.1H-1.53c-1.86,0-3.37-1.51-3.37-3.37v-4.54c0-1.86,1.51-3.37,3.37-3.37h13.07
					c1.86,0,3.37,1.51,3.37,3.37v4.54C14.91,414.58,13.4,416.1,11.54,416.1z M-1.53,405.81c-1.31,0-2.37,1.06-2.37,2.37v4.54
					c0,1.31,1.06,2.37,2.37,2.37h13.07c1.31,0,2.37-1.06,2.37-2.37v-4.54c0-1.31-1.06-2.37-2.37-2.37H-1.53z"/>
			</g>
			<g>
				<g>
					<path class="st8" d="M-29.45,382.51c1.11,15.24,16.11,27.31,34.45,27.31c18.35,0,33.34-12.07,34.45-27.31H-29.45z"/>
					<path class="st9" d="M5,410.32c-18.46,0-33.81-12.2-34.95-27.77l-0.04-0.54h69.98l-0.04,0.54
						C38.82,398.12,23.46,410.32,5,410.32z M-28.91,383.01c1.41,14.8,16.18,26.31,33.91,26.31c17.73,0,32.5-11.51,33.91-26.31
						H-28.91z"/>
				</g>
			</g>
		</g>
	</g>
	<g class="st7">
		<g>
			<path class="st10" d="M157.7,444.99c0,1.41-1.14,2.55-2.55,2.55h-22.44c-1.41,0-2.55-1.14-2.55-2.55v-50.01
				c0-1.41,1.14-2.55,2.55-2.55h22.44c1.41,0,2.55,1.14,2.55,2.55V444.99z"/>
			<path class="st9" d="M155.15,448.04h-22.44c-1.68,0-3.05-1.37-3.05-3.05v-50.01c0-1.68,1.37-3.05,3.05-3.05h22.44
				c1.68,0,3.05,1.37,3.05,3.05v50.01C158.2,446.67,156.84,448.04,155.15,448.04z M132.71,392.93c-1.13,0-2.05,0.92-2.05,2.05v50.01
				c0,1.13,0.92,2.05,2.05,2.05h22.44c1.13,0,2.05-0.92,2.05-2.05v-50.01c0-1.13-0.92-2.05-2.05-2.05H132.71z"/>
		</g>
		<g>
			<path class="st10" d="M118.64,444.99c0,1.41-1.14,2.55-2.55,2.55h-11.21c-1.41,0-2.55-1.14-2.55-2.55v-4.43
				c0-1.41,1.14-2.55,2.55-2.55h11.21c1.41,0,2.55,1.14,2.55,2.55V444.99z"/>
			<path class="st9" d="M116.09,448.04h-11.21c-1.68,0-3.05-1.37-3.05-3.05v-4.43c0-1.68,1.37-3.05,3.05-3.05h11.21
				c1.68,0,3.05,1.37,3.05,3.05v4.43C119.14,446.67,117.78,448.04,116.09,448.04z M104.89,438.5c-1.13,0-2.05,0.92-2.05,2.05v4.43
				c0,1.13,0.92,2.05,2.05,2.05h11.21c1.13,0,2.05-0.92,2.05-2.05v-4.43c0-1.13-0.92-2.05-2.05-2.05H104.89z"/>
		</g>
		<g>
			<polygon class="st10" points="118.64,438.93 102.33,438.93 95.78,381 124.03,381 			"/>
			<path class="st9" d="M119.1,439.43h-17.21l-6.66-58.93h29.36L119.1,439.43z M102.78,438.43h15.41l5.29-56.93H96.34L102.78,438.43
				z"/>
		</g>
		<g>
			<rect x="95.78" y="385.48" class="st9" width="28.25" height="1"/>
		</g>
		<g>
			<path class="st8" d="M116.01,412.94c0,1.41-1.14,2.55-2.55,2.55h-6.85c-1.41,0-2.55-1.14-2.55-2.55v-14.79
				c0-1.41,1.14-2.55,2.55-2.55h6.85c1.41,0,2.55,1.14,2.55,2.55V412.94z"/>
			<path class="st9" d="M113.45,416h-6.85c-1.68,0-3.05-1.37-3.05-3.05v-14.79c0-1.68,1.37-3.05,3.05-3.05h6.85
				c1.68,0,3.05,1.37,3.05,3.05v14.79C116.51,414.63,115.14,416,113.45,416z M106.6,396.1c-1.13,0-2.05,0.92-2.05,2.05v14.79
				c0,1.13,0.92,2.05,2.05,2.05h6.85c1.13,0,2.05-0.92,2.05-2.05v-14.79c0-1.13-0.92-2.05-2.05-2.05H106.6z"/>
		</g>
		<g>
			<path class="st8" d="M149.91,422.44c0,1.41-1.14,2.55-2.55,2.55h-6.85c-1.41,0-2.55-1.14-2.55-2.55v-14.79
				c0-1.41,1.14-2.55,2.55-2.55h6.85c1.41,0,2.55,1.14,2.55,2.55V422.44z"/>
			<path class="st9" d="M147.36,425.49h-6.85c-1.68,0-3.05-1.37-3.05-3.05v-14.79c0-1.68,1.37-3.05,3.05-3.05h6.85
				c1.68,0,3.05,1.37,3.05,3.05v14.79C150.41,424.13,149.04,425.49,147.36,425.49z M140.51,405.6c-1.13,0-2.05,0.92-2.05,2.05v14.79
				c0,1.13,0.92,2.05,2.05,2.05h6.85c1.13,0,2.05-0.92,2.05-2.05v-14.79c0-1.13-0.92-2.05-2.05-2.05H140.51z"/>
		</g>
		<g>
			<rect x="139.54" y="389.2" class="st10" width="8.79" height="3.23"/>
			<path class="st9" d="M148.83,392.93h-9.79v-4.23h9.79V392.93z M140.04,391.93h7.79v-2.23h-7.79V391.93z"/>
		</g>
		<g>
			<path class="st10" d="M152.09,386.87c0,1.41-1.14,2.55-2.55,2.55h-11.21c-1.41,0-2.55-1.14-2.55-2.55v-4.43
				c0-1.41,1.14-2.55,2.55-2.55h11.21c1.41,0,2.55,1.14,2.55,2.55V386.87z"/>
			<path class="st9" d="M149.54,389.92h-11.21c-1.68,0-3.05-1.37-3.05-3.05v-4.43c0-1.68,1.37-3.05,3.05-3.05h11.21
				c1.68,0,3.05,1.37,3.05,3.05v4.43C152.59,388.55,151.22,389.92,149.54,389.92z M138.33,380.38c-1.13,0-2.05,0.92-2.05,2.05v4.43
				c0,1.13,0.92,2.05,2.05,2.05h11.21c1.13,0,2.05-0.92,2.05-2.05v-4.43c0-1.13-0.92-2.05-2.05-2.05H138.33z"/>
		</g>
	</g>
	<g class="st7">
		<g>
			<path class="st9" d="M259.9,416.39l-0.4-0.05c-2.69-0.32-10.86-1.29-12.4-9.9c-0.98-5.5,1.71-10.07,4.09-14.12
				c1.4-2.38,2.72-4.63,2.98-6.64c0.18-1.4-0.12-2.55-0.89-3.43c-1.74-1.98-5.34-2.01-5.38-2.01h-32.1v-1h32.1
				c0.17,0,4.08,0.03,6.13,2.35c0.97,1.1,1.35,2.52,1.14,4.22c-0.28,2.22-1.66,4.55-3.11,7.03c-2.29,3.89-4.88,8.3-3.97,13.43
				c1.41,7.88,8.76,8.76,11.53,9.09l0.28,0.03l0.28-0.03c2.77-0.33,10.12-1.2,11.53-9.09c0.91-5.11-1.68-9.5-3.96-13.37
				c-1.47-2.49-2.86-4.85-3.12-7.09c-0.2-1.71,0.2-3.13,1.18-4.23c2.05-2.31,5.92-2.33,6.08-2.33h33.26v1H271.9
				c-0.04,0-3.59,0.03-5.34,2c-0.78,0.88-1.09,2.04-0.93,3.45c0.24,2.03,1.57,4.3,2.99,6.7c2.37,4.02,5.06,8.59,4.08,14.06
				c-1.54,8.61-9.71,9.58-12.4,9.9L259.9,416.39z"/>
		</g>
		<g>
			<polygon class="st8" points="234.32,388.31 231.5,391.14 234.26,393.89 219.37,393.89 219.37,397.81 234.68,397.81 
				232.41,401.15 235.72,403.4 243.38,395.23 			"/>
			<path class="st9" d="M235.79,404.05l-4.07-2.77l2.02-2.97h-14.87v-4.92h14.19l-2.26-2.25l3.48-3.5l9.84,7.53L235.79,404.05z
				 M233.11,401.02l2.54,1.73l6.99-7.45l-8.27-6.32l-2.16,2.17l3.27,3.26h-15.61v2.92h15.76L233.11,401.02z"/>
		</g>
		<g>
			<polygon class="st8" points="284.96,388.31 287.78,391.14 285.01,393.89 299.91,393.89 299.91,397.81 284.59,397.81 
				286.86,401.15 283.56,403.4 275.9,395.23 			"/>
			<path class="st9" d="M283.48,404.05l-8.33-8.88l9.84-7.53l3.48,3.5l-2.26,2.25h14.19v4.92h-14.87l2.02,2.97L283.48,404.05z
				 M276.64,395.29l6.99,7.45l2.54-1.73l-2.52-3.71h15.76v-2.92H283.8l3.27-3.26l-2.16-2.17L276.64,395.29z"/>
		</g>
	</g>
	<g class="st7">
		<g>
			<g>
				<g>
					<path class="st10" d="M350.46,381.91c-1.22,1.86-14.24,11.96-10.15,22.91c4.09,10.95,19.17,7.97,20.75,8.71"/>
					<path class="st9" d="M360.84,413.99c-0.23-0.11-1.32-0.1-2.29-0.09c-4.97,0.03-15.34,0.1-18.71-8.9
						c-3.51-9.4,5.09-18.1,8.77-21.82c0.7-0.71,1.25-1.26,1.43-1.54l0.84,0.55c-0.23,0.36-0.76,0.89-1.55,1.69
						c-3.54,3.58-11.83,11.97-8.54,20.77c3.12,8.35,13.02,8.28,17.76,8.25c1.55-0.01,2.31-0.01,2.73,0.19L360.84,413.99z"/>
				</g>
				<g>
					<path class="st10" d="M398.62,381.91c1.22,1.86,14.24,11.96,10.15,22.91c-4.09,10.95-19.17,7.97-20.75,8.71"/>
					<path class="st9" d="M388.24,413.99l-0.43-0.9c0.41-0.19,1.18-0.2,2.72-0.19c4.74,0.03,14.64,0.1,17.76-8.25
						c3.29-8.8-5-17.19-8.54-20.77c-0.8-0.8-1.32-1.34-1.55-1.69l0.84-0.55c0.18,0.27,0.73,0.83,1.43,1.54
						c3.67,3.72,12.28,12.42,8.77,21.82c-3.37,9-13.75,8.94-18.71,8.9C389.56,413.89,388.46,413.88,388.24,413.99z"/>
				</g>
				<g>
					<path class="st10" d="M397.94,399.91c0,0-13.52,4.28-15.32,13.21c-1.8,8.93-4.77,7.67-8.12,8.49
						c-3.35-0.81-6.32,0.44-8.12-8.49c-1.8-8.93-15.32-13.21-15.32-13.21s-4.81,1.92-1.49,4.13c0,0,3.9,2.82,12.81,2.39"/>
					<path class="st9" d="M374.5,422.12l-0.12-0.03c-0.52-0.13-1.05-0.2-1.56-0.28c-2.76-0.4-5.36-0.78-6.94-8.6
						c-0.49-2.44-1.92-4.53-3.7-6.28c-8.83,0.39-12.74-2.38-12.91-2.5c-0.98-0.66-1.45-1.4-1.37-2.2c0.17-1.64,2.68-2.69,2.96-2.8
						l0.17-0.07l0.17,0.05c0.56,0.18,13.82,4.47,15.66,13.59c1.44,7.13,3.5,7.43,6.1,7.81c0.49,0.07,1,0.15,1.53,0.27
						c0.53-0.12,1.04-0.2,1.53-0.27c2.61-0.38,4.67-0.68,6.1-7.81c1.83-9.11,15.09-13.41,15.66-13.59l0.3,0.95
						c-0.13,0.04-13.26,4.3-14.98,12.83c-1.58,7.82-4.18,8.2-6.94,8.6c-0.51,0.07-1.03,0.15-1.56,0.28L374.5,422.12z M351.08,400.44
						c-0.68,0.3-2.09,1.1-2.17,1.91c-0.04,0.4,0.27,0.83,0.94,1.27c0.05,0.04,3.56,2.48,11.27,2.35
						C357.14,402.62,352.08,400.78,351.08,400.44z"/>
				</g>
				<g>
					<path class="st10" d="M361.41,346.68c0,0-0.65,25.63-4,34.68"/>
					<path class="st9" d="M357.88,381.54l-0.94-0.35c3.28-8.88,3.96-34.27,3.97-34.52l1,0.03
						C361.88,347.74,361.22,372.51,357.88,381.54z"/>
				</g>
				<g>
					<path class="st10" d="M388.02,343.42c0,0-0.44,28.47,2.71,35.13"/>
					<path class="st9" d="M390.28,378.77c-3.16-6.69-2.77-34.19-2.75-35.35l1,0.02c0,0.28-0.41,28.43,2.66,34.91L390.28,378.77z"/>
				</g>
				<g>
					<path class="st9" d="M386.63,406.93l-0.02-1c2.96-0.05,11.04-0.61,12.84-2.59c0.43-0.47,0.59-0.89,0.48-1.25
						c-0.28-0.91-2.07-1.54-2.68-1.69l0.24-0.97c0.3,0.07,2.91,0.76,3.4,2.37c0.22,0.72-0.01,1.47-0.69,2.22
						C397.74,406.71,387.08,406.92,386.63,406.93z"/>
				</g>
			</g>
		</g>
		<g>
			<path class="st8" d="M375.3,383.7c0,1.17-0.95,2.13-2.13,2.13c-1.17,0-2.13-0.95-2.13-2.13c0-1.17,0.95-2.13,2.13-2.13
				C374.35,381.58,375.3,382.53,375.3,383.7z"/>
			<path class="st9" d="M373.17,386.33c-1.45,0-2.63-1.18-2.63-2.63s1.18-2.63,2.63-2.63c1.45,0,2.63,1.18,2.63,2.63
				S374.62,386.33,373.17,386.33z M373.17,382.08c-0.9,0-1.63,0.73-1.63,1.63c0,0.9,0.73,1.63,1.63,1.63c0.9,0,1.63-0.73,1.63-1.63
				C374.8,382.81,374.07,382.08,373.17,382.08z"/>
		</g>
		<g>
			<path class="st8" d="M357.41,391.9c0,1.17-0.95,2.13-2.13,2.13c-1.17,0-2.13-0.95-2.13-2.13s0.95-2.13,2.13-2.13
				C356.46,389.77,357.41,390.73,357.41,391.9z"/>
			<path class="st9" d="M355.28,394.53c-1.45,0-2.63-1.18-2.63-2.63c0-1.45,1.18-2.63,2.63-2.63c1.45,0,2.63,1.18,2.63,2.63
				C357.91,393.35,356.73,394.53,355.28,394.53z M355.28,390.27c-0.9,0-1.63,0.73-1.63,1.63c0,0.9,0.73,1.63,1.63,1.63
				c0.9,0,1.63-0.73,1.63-1.63C356.91,391,356.18,390.27,355.28,390.27z"/>
		</g>
		<g>
			<path class="st8" d="M370.61,401.04c0,1.17-0.95,2.13-2.13,2.13c-1.17,0-2.13-0.95-2.13-2.13c0-1.17,0.95-2.13,2.13-2.13
				C369.66,398.91,370.61,399.87,370.61,401.04z"/>
			<path class="st9" d="M368.48,403.67c-1.45,0-2.63-1.18-2.63-2.63c0-1.45,1.18-2.63,2.63-2.63c1.45,0,2.63,1.18,2.63,2.63
				C371.11,402.49,369.93,403.67,368.48,403.67z M368.48,399.41c-0.9,0-1.63,0.73-1.63,1.63c0,0.9,0.73,1.63,1.63,1.63
				c0.9,0,1.63-0.73,1.63-1.63C370.11,400.14,369.38,399.41,368.48,399.41z"/>
		</g>
		<g>
			<path class="st8" d="M375.3,415.67c0,1.17-0.95,2.13-2.13,2.13c-1.17,0-2.13-0.95-2.13-2.13c0-1.17,0.95-2.13,2.13-2.13
				C374.35,413.54,375.3,414.49,375.3,415.67z"/>
			<path class="st9" d="M373.17,418.29c-1.45,0-2.63-1.18-2.63-2.63c0-1.45,1.18-2.63,2.63-2.63c1.45,0,2.63,1.18,2.63,2.63
				C375.8,417.11,374.62,418.29,373.17,418.29z M373.17,414.04c-0.9,0-1.63,0.73-1.63,1.63s0.73,1.63,1.63,1.63
				c0.9,0,1.63-0.73,1.63-1.63S374.07,414.04,373.17,414.04z"/>
		</g>
		<g>
			<path class="st8" d="M390.13,386.79c0,1.17-0.95,2.13-2.13,2.13c-1.17,0-2.13-0.95-2.13-2.13c0-1.17,0.95-2.13,2.13-2.13
				C389.18,384.66,390.13,385.62,390.13,386.79z"/>
			<path class="st9" d="M388,389.42c-1.45,0-2.63-1.18-2.63-2.63c0-1.45,1.18-2.63,2.63-2.63c1.45,0,2.63,1.18,2.63,2.63
				C390.63,388.24,389.45,389.42,388,389.42z M388,385.16c-0.9,0-1.63,0.73-1.63,1.63c0,0.9,0.73,1.63,1.63,1.63
				c0.9,0,1.63-0.73,1.63-1.63C389.63,385.89,388.9,385.16,388,385.16z"/>
		</g>
		<g>
			<path class="st8" d="M402.46,395.6c0,1.17-0.95,2.13-2.13,2.13c-1.17,0-2.13-0.95-2.13-2.13s0.95-2.13,2.13-2.13
				C401.51,393.47,402.46,394.42,402.46,395.6z"/>
			<path class="st9" d="M400.33,398.23c-1.45,0-2.63-1.18-2.63-2.63s1.18-2.63,2.63-2.63c1.45,0,2.63,1.18,2.63,2.63
				S401.78,398.23,400.33,398.23z M400.33,393.97c-0.9,0-1.63,0.73-1.63,1.63s0.73,1.63,1.63,1.63c0.9,0,1.63-0.73,1.63-1.63
				S401.23,393.97,400.33,393.97z"/>
		</g>
		<g>
			<path class="st8" d="M383.41,397.73c0,1.17-0.95,2.13-2.13,2.13c-1.17,0-2.13-0.95-2.13-2.13c0-1.17,0.95-2.13,2.13-2.13
				C382.45,395.6,383.41,396.55,383.41,397.73z"/>
			<path class="st9" d="M381.28,400.35c-1.45,0-2.63-1.18-2.63-2.63c0-1.45,1.18-2.63,2.63-2.63c1.45,0,2.63,1.18,2.63,2.63
				C383.91,399.18,382.73,400.35,381.28,400.35z M381.28,396.1c-0.9,0-1.63,0.73-1.63,1.63c0,0.9,0.73,1.63,1.63,1.63
				c0.9,0,1.63-0.73,1.63-1.63C382.91,396.83,382.18,396.1,381.28,396.1z"/>
		</g>
	</g>
	<g class="st7">
		<g>
			<g>
				<g>
					<path class="st10" d="M47.73,502.04c-1.32-1.47-3.16-1.13-4.65-0.46c-0.52-19.47-13.45-32.31-29.34-32.31
						c-15.84,0-28.74,12.76-29.33,32.15c-1.41-0.55-3.05-0.72-4.26,0.62c-2.36,2.63-1.78,11.52,7.07,14.92
						c5.59,14.19,18.19,25.33,26.52,25.33c9.1,0,21.25-11.08,26.61-25.21C49.49,513.75,50.11,504.7,47.73,502.04z"/>
					<path class="st9" d="M13.74,542.78c-8.95,0-21.48-11.86-26.9-25.44c-4.18-1.67-7.11-4.87-8.06-8.81
						c-0.65-2.69-0.25-5.43,1-6.83c1.02-1.13,2.44-1.47,4.16-0.97c0.85-18.56,13.3-31.96,29.81-31.96
						c16.57,0,29.01,13.45,29.81,32.08c1.88-0.66,3.46-0.37,4.55,0.85c1.27,1.42,1.66,4.21,0.98,6.94c-1,3.99-4.04,7.19-8.34,8.81
						C35.35,531.44,23.28,542.78,13.74,542.78z M-17.53,501.51c-0.79,0-1.43,0.28-1.95,0.87c-1.02,1.14-1.34,3.58-0.78,5.93
						c0.52,2.16,2.21,6.1,7.65,8.19l0.21,0.08l0.08,0.2c5.8,14.74,18.39,25.01,26.05,25.01c9.05,0,21.03-11.4,26.15-24.89l0.08-0.21
						l0.22-0.08c5.61-2.03,7.37-6.01,7.92-8.2c0.7-2.78,0.1-5.07-0.75-6.03c-0.94-1.04-2.31-1.14-4.07-0.33l-0.69,0.31l-0.02-0.75
						c-0.5-18.44-12.62-31.83-28.84-31.83c-16.15,0-28.27,13.32-28.83,31.66l-0.02,0.71l-0.66-0.26
						C-16.41,501.63-17,501.51-17.53,501.51z"/>
				</g>
			</g>
			<g>
				<path class="st10" d="M17.94,496.13c0,0,9.24-3.38,13.68-2.49c4.44,0.89,5.2,2.49,5.2,2.49"/>
				<path class="st9" d="M18.11,496.6l-0.34-0.94c0.38-0.14,9.43-3.42,13.95-2.51c4.55,0.91,5.47,2.58,5.56,2.76l-0.9,0.43
					c0,0-0.8-1.4-4.85-2.21C27.27,493.27,18.21,496.56,18.11,496.6z"/>
			</g>
			<g>
				<path class="st10" d="M7.99,496.13c0,0-9.24-3.38-13.68-2.49c-4.44,0.89-5.2,2.49-5.2,2.49"/>
				<path class="st9" d="M7.82,496.6c-0.09-0.03-9.16-3.32-13.41-2.47c-4.05,0.81-4.85,2.21-4.85,2.22l-0.9-0.44
					c0.09-0.19,1-1.85,5.56-2.76c4.53-0.91,13.57,2.37,13.95,2.51L7.82,496.6z"/>
			</g>
			<g>
				<path class="st10" d="M-6.7,503.72c0,0,6.23,0.94,12.26,0"/>
				<path class="st9" d="M-0.33,504.64c-3.57,0-6.28-0.4-6.45-0.43l0.15-0.99c0.06,0.01,6.23,0.92,12.11,0l0.15,0.99
					C3.58,504.53,1.51,504.64-0.33,504.64z"/>
			</g>
			<g>
				<path class="st10" d="M21.25,503.72c0,0,6.23,0.94,12.26,0"/>
				<path class="st9" d="M27.63,504.64c-3.57,0-6.28-0.4-6.45-0.43l0.15-0.99c0.06,0.01,6.23,0.92,12.11,0l0.15,0.99
					C31.54,504.53,29.47,504.64,27.63,504.64z"/>
			</g>
		</g>
		<g>
			<path class="st8" d="M-12.78,516.95c0,0,8.22-2.54,14.36,1.15c6.14,3.69,7.73,10.3,3.97,21.48
				C5.56,539.58-7.27,532.37-12.78,516.95z"/>
			<path class="st9" d="M5.84,540.32l-0.53-0.3c-0.13-0.07-13.05-7.48-18.56-22.9l-0.18-0.49l0.5-0.15
				c0.12-0.04,2.87-0.88,6.42-0.88c3.25,0,6.06,0.7,8.35,2.07c6.59,3.96,7.92,10.97,4.19,22.07L5.84,540.32z M-12.12,517.29
				c4.83,12.97,14.99,20.01,17.4,21.54c3.31-10.23,2.05-16.69-3.95-20.3c-2.13-1.28-4.77-1.93-7.83-1.93
				C-9.03,516.6-11.18,517.06-12.12,517.29z"/>
		</g>
		<g>
			<path class="st8" d="M40.98,516.58c0,0-8.22-2.54-14.36,1.15s-7.73,10.3-3.97,21.48C22.64,539.21,35.46,532,40.98,516.58z"/>
			<path class="st9" d="M22.36,539.94l-0.19-0.57c-3.73-11.1-2.4-18.11,4.19-22.07c2.29-1.38,5.1-2.07,8.35-2.07
				c3.55,0,6.31,0.84,6.42,0.88l0.5,0.15l-0.18,0.49c-5.51,15.42-18.43,22.83-18.56,22.9L22.36,539.94z M34.7,516.23
				c-3.06,0-5.7,0.65-7.83,1.93c-6,3.6-7.26,10.06-3.95,20.3c2.42-1.53,12.57-8.56,17.4-21.54
				C39.38,516.68,37.23,516.23,34.7,516.23z"/>
		</g>
	</g>
	<g class="st7">
		<g>
			<path class="st9" d="M136.07,522.37c-3,0-5.32-0.99-6.9-2.93c-4.41-5.44-1.99-16.86-0.54-23.69c0.21-1,0.4-1.88,0.53-2.6
				c0.1-0.56,0.32-1.28,0.55-2.05c0.51-1.71,1.15-3.83,0.75-4.97c-0.27-0.77-0.81-1.34-1.61-1.69c-1.69-0.75-4.26-0.42-5.93,0.29
				c-10.48,4.45-31.62,4.5-32.51,4.5v-1c0.22,0,21.83-0.05,32.12-4.42c1.81-0.77,4.68-1.19,6.73-0.28c1.06,0.47,1.79,1.23,2.15,2.27
				c0.51,1.45-0.15,3.65-0.74,5.59c-0.22,0.73-0.43,1.43-0.52,1.94c-0.13,0.72-0.32,1.61-0.54,2.63
				c-1.32,6.21-3.77,17.78,0.34,22.85c1.4,1.72,3.4,2.56,6.12,2.56h1.06c2.76-0.15,4.89-1.15,6.28-2.98
				c3.95-5.19,1.63-15.84,0.24-22.2c-0.24-1.1-0.45-2.07-0.6-2.85c-0.09-0.51-0.3-1.2-0.52-1.94c-0.58-1.94-1.25-4.14-0.74-5.59
				c0.41-1.18,1.32-2.05,2.63-2.52c1.9-0.69,4.61-0.45,6.31,0.56c7.24,4.33,33.89,4.39,34.16,4.39l0,1
				c-1.11,0-27.19-0.07-34.67-4.53c-1.26-0.75-3.64-1.14-5.45-0.48c-1.03,0.38-1.72,1.02-2.03,1.91c-0.4,1.14,0.24,3.26,0.75,4.97
				c0.23,0.76,0.45,1.48,0.55,2.05c0.14,0.78,0.35,1.73,0.59,2.82c1.43,6.53,3.81,17.46-0.42,23.02c-1.58,2.07-3.95,3.21-7.05,3.37
				L136.07,522.37z"/>
		</g>
		<g>
			<path class="st9" d="M147.84,480.62c-0.04-0.09-3.85-9.36-12.26-9.36c-8.36,0-10.62,9.19-10.64,9.29l-0.97-0.23
				c0.02-0.1,2.47-10.06,11.62-10.06c9.09,0,13.15,9.89,13.19,9.99L147.84,480.62z"/>
		</g>
		<g>
			<path class="st8" d="M137.88,485.12c0,0,8.84,29.23-0.75,32.42h-1.5c-9.59-3.2-0.75-32.42-0.75-32.42H137.88z"/>
			<path class="st9" d="M137.21,518.04l-1.74-0.03c-9.94-3.31-1.44-31.83-1.07-33.04l0.11-0.36h3.75l0.11,0.36
				c0.37,1.21,8.86,29.73-1.07,33.04L137.21,518.04z M135.71,517.04h1.34c8.36-2.95,1.41-28.12,0.46-31.42h-2.26
				C134.29,488.92,127.35,514.09,135.71,517.04z"/>
		</g>
	</g>
	<g class="st7">
		<g>
			<path class="st10" d="M270.25,482.14c0,0,7.74,3.13,7.27,15.39v29.34c0,0-0.68,2.65-3.63,3.61h-17.03h1.9h-17.03
				c-2.94-0.96-3.63-3.61-3.63-3.61v-29.34c-0.47-12.26,7.27-15.39,7.27-15.39H270.25z"/>
			<path class="st9" d="M273.98,530.98l-32.4-0.02c-3.17-1.04-3.92-3.84-3.96-3.96l-0.02-0.13v-29.34
				c-0.48-12.45,7.26-15.72,7.59-15.86l0.19-0.04l25.06,0.04c0.33,0.13,8.06,3.4,7.59,15.88L278.01,527
				c-0.03,0.12-0.79,2.92-3.96,3.96L273.98,530.98z M258.77,529.98h15.05c2.37-0.81,3.1-2.82,3.21-3.18v-29.27
				c0.42-11.12-6.07-14.52-6.88-14.89h-24.66c-0.86,0.39-7.31,3.68-6.88,14.87v29.29c0.11,0.37,0.83,2.36,3.21,3.18H258.77z"/>
		</g>
		<g>
			<g>
				<path class="st8" d="M238.11,502.41v24.46c0,0,0.68,2.65,3.63,3.61h15.13h1.9h15.13c2.94-0.96,3.63-3.61,3.63-3.61v-24.46
					H238.11z"/>
				<path class="st9" d="M273.98,530.98l-32.4-0.02c-3.17-1.04-3.92-3.84-3.96-3.96l-0.02-0.13v-24.96h40.42L278.01,527
					c-0.03,0.12-0.79,2.92-3.96,3.96L273.98,530.98z M241.82,529.98h32c2.38-0.81,3.09-2.81,3.21-3.18v-23.89h-38.42v23.89
					C238.73,527.17,239.44,529.17,241.82,529.98z"/>
			</g>
		</g>
		<g>
			<path class="st10" d="M260.99,509.75c0,1.35-1.07,2.45-2.39,2.45h-1.55c-1.32,0-2.39-1.1-2.39-2.45v-60.5
				c0-1.35,1.07-2.45,2.39-2.45h1.55c1.32,0,2.39,1.1,2.39,2.45V509.75z"/>
			<path class="st9" d="M258.59,512.71h-1.55c-1.6,0-2.89-1.33-2.89-2.95v-60.5c0-1.63,1.3-2.95,2.89-2.95h1.55
				c1.6,0,2.89,1.33,2.89,2.95v60.5C261.49,511.38,260.19,512.71,258.59,512.71z M257.05,447.3c-1.04,0-1.89,0.88-1.89,1.95v60.5
				c0,1.08,0.85,1.95,1.89,1.95h1.55c1.04,0,1.89-0.88,1.89-1.95v-60.5c0-1.08-0.85-1.95-1.89-1.95H257.05z"/>
		</g>
		<g>
			<path class="st10" d="M270.8,479.9c0,1.35-1.07,2.45-2.39,2.45H246.7c-1.32,0-2.39-1.1-2.39-2.45v-10.46
				c0-1.35,1.07-2.45,2.39-2.45h21.71c1.32,0,2.39,1.1,2.39,2.45V479.9z"/>
			<path class="st9" d="M268.4,482.85H246.7c-1.6,0-2.89-1.33-2.89-2.95v-10.46c0-1.63,1.3-2.95,2.89-2.95h21.71
				c1.6,0,2.89,1.33,2.89,2.95v10.46C271.3,481.53,270,482.85,268.4,482.85z M246.7,467.48c-1.04,0-1.89,0.88-1.89,1.95v10.46
				c0,1.08,0.85,1.95,1.89,1.95h21.71c1.04,0,1.89-0.88,1.89-1.95v-10.46c0-1.08-0.85-1.95-1.89-1.95H246.7z"/>
		</g>
		<g>
			<g>
				<path class="st10" d="M257.55,457.14c-5.31,0-9.61,4.41-9.61,9.85h19.22C267.16,461.55,262.86,457.14,257.55,457.14z"/>
				<path class="st9" d="M267.66,467.48h-20.22v-0.5c0-5.71,4.53-10.35,10.11-10.35c5.57,0,10.11,4.64,10.11,10.35V467.48z
					 M248.45,466.48h18.19c-0.25-4.92-4.24-8.85-9.1-8.85C252.69,457.64,248.71,461.56,248.45,466.48z"/>
			</g>
		</g>
	</g>
	<g class="st7">
		<g>
			<path class="st9" d="M346.04,530.61c-0.76-3.43-1.08-6.97-1.38-10.39c-0.28-3.16-0.57-6.44-1.22-9.59
				c-0.79-3.85-2.04-7.65-3.24-11.33c-0.88-2.68-1.79-5.45-2.52-8.23c-1.48-5.63-1.16-11.18,0.94-16.5
				c0.93-2.35,2.16-4.59,3.35-6.75c1.56-2.84,3.18-5.77,4.08-8.94l0.96,0.28c-0.94,3.27-2.58,6.26-4.17,9.14
				c-1.17,2.14-2.39,4.34-3.29,6.63c-2.02,5.12-2.33,10.46-0.91,15.88c0.72,2.75,1.63,5.51,2.5,8.17c1.22,3.71,2.48,7.54,3.28,11.44
				c0.66,3.21,0.95,6.51,1.24,9.7c0.3,3.39,0.61,6.89,1.36,10.26L346.04,530.61z"/>
		</g>
		<g>
			<path class="st9" d="M391.96,530.61l-0.98-0.22c0.75-3.37,1.06-6.87,1.36-10.26c0.29-3.19,0.58-6.49,1.24-9.7
				c0.8-3.91,2.06-7.74,3.28-11.44c0.88-2.67,1.78-5.42,2.5-8.17c1.42-5.42,1.12-10.76-0.91-15.88c-0.91-2.29-2.12-4.5-3.29-6.63
				c-1.59-2.89-3.23-5.87-4.17-9.14l0.96-0.28c0.9,3.17,2.52,6.1,4.08,8.94c1.19,2.16,2.42,4.4,3.35,6.75
				c2.1,5.32,2.42,10.88,0.94,16.5c-0.73,2.78-1.64,5.55-2.52,8.23c-1.21,3.68-2.46,7.48-3.24,11.33c-0.65,3.15-0.94,6.43-1.22,9.59
				C393.03,523.64,392.72,527.17,391.96,530.61z"/>
		</g>
		<g>
			<polygon class="st9" points="365.92,530.58 364.93,530.42 368.63,506.98 372.36,529.43 371.37,529.59 368.66,513.23 			"/>
		</g>
		<g>
			<path class="st8" d="M338.53,492.26c0,0,27.78,5.83,61.08,0l-4.08,12.55c0,0-21.62-1.09-26.88,5.29c0,0-6.6-7.21-26.35-5.9
				C342.29,504.2,338.9,493.58,338.53,492.26z"/>
			<path class="st9" d="M368.67,510.87l-0.39-0.42c-0.05-0.06-5.64-5.9-21.33-5.9c-1.49,0-3.04,0.05-4.62,0.16l-0.39,0.03
				l-0.12-0.37c-0.14-0.43-3.4-10.64-3.76-11.96l-0.22-0.79l0.8,0.17c0.12,0.03,12.51,2.58,30.34,2.58
				c10.48,0,20.76-0.87,30.55-2.58l0.82-0.14l-4.46,13.71l-0.38-0.02c-0.01,0-1.42-0.07-3.56-0.07c-5.61,0-19.06,0.5-22.92,5.18
				L368.67,510.87z M346.95,503.55c14.02,0,20.13,4.48,21.67,5.84c4.33-4.46,16.39-5.14,23.33-5.14c1.51,0,2.66,0.03,3.22,0.05
				l3.71-11.41c-9.6,1.63-19.66,2.46-29.9,2.46c-15.33,0-26.67-1.88-29.73-2.44c0.75,2.46,2.88,9.13,3.4,10.78
				C344.11,503.59,345.56,503.55,346.95,503.55z"/>
		</g>
		<g>
			<circle class="st9" cx="368.02" cy="477.31" r="1.13"/>
		</g>
		<g>
			<g>
				<g>
					<path class="st10" d="M436.49,475.13c0.2,0.84-0.32,1.69-1.16,1.89l-20.41,4.88c-0.84,0.2-1.69-0.32-1.89-1.16l-1.45-6.05
						c-0.2-0.84,0.32-1.69,1.16-1.89l20.41-4.88c0.84-0.2,1.69,0.32,1.89,1.16L436.49,475.13z"/>
					<path class="st9" d="M414.56,482.44c-0.96,0-1.79-0.65-2.01-1.59l-1.45-6.05c-0.13-0.54-0.04-1.09,0.25-1.56
						c0.29-0.47,0.74-0.8,1.28-0.93l20.41-4.88c1.09-0.27,2.23,0.44,2.49,1.53l1.45,6.05c0.26,1.11-0.42,2.23-1.53,2.49l-20.41,4.88
						C414.88,482.42,414.72,482.44,414.56,482.44z M433.52,468.38c-0.08,0-0.17,0.01-0.25,0.03l-20.41,4.88
						c-0.28,0.07-0.51,0.24-0.66,0.48c-0.15,0.24-0.19,0.53-0.13,0.8l1.45,6.05c0.13,0.57,0.71,0.92,1.29,0.79l20.41-4.88
						c0.57-0.14,0.93-0.71,0.79-1.29l-1.45-6.05C434.44,468.71,434.01,468.38,433.52,468.38z"/>
				</g>
				<g>
					<path class="st10" d="M399.33,484.74l-1.64-6.84c-0.25-1.05-1.3-1.69-2.35-1.44l-2.54,0.61c-1.05,0.25-1.63,1.55-1.63,1.55
						l-3.44,2.34l1.26,5.28l4.2,0.81c0,0,1.11,0.89,2.16,0.64l2.54-0.61C398.93,486.84,399.58,485.79,399.33,484.74z"/>
					<path class="st9" d="M394.96,488.24L394.96,488.24c-0.89,0-1.7-0.51-1.98-0.72l-4.4-0.85l-1.42-5.93l3.62-2.46
						c0.2-0.38,0.85-1.44,1.91-1.7l2.54-0.61c1.31-0.31,2.64,0.52,2.95,1.81l1.64,6.84c0.31,1.31-0.5,2.64-1.81,2.95l-2.54,0.61
						C395.3,488.22,395.13,488.24,394.96,488.24z M389.4,485.81l4,0.78l0.1,0.08c0.01,0.01,1,0.72,1.73,0.55l2.54-0.61
						c0.78-0.19,1.26-0.97,1.07-1.75l-1.64-6.84c-0.18-0.76-0.97-1.26-1.75-1.07l-2.54,0.61c-0.79,0.19-1.29,1.26-1.3,1.27
						l-0.06,0.13l-3.27,2.23L389.4,485.81z"/>
				</g>
				<g>
					<path class="st10" d="M427.1,478.45c0.25,1.05-0.39,2.1-1.44,2.35l-25.37,6.07c-1.05,0.25-2.1-0.4-2.35-1.44l-1.8-7.52
						c-0.25-1.05,0.4-2.1,1.44-2.35l25.37-6.07c1.05-0.25,2.1,0.4,2.35,1.44L427.1,478.45z"/>
					<path class="st9" d="M399.83,487.43c-1.14,0-2.12-0.77-2.38-1.88l-1.8-7.52c-0.15-0.64-0.05-1.29,0.29-1.85
						c0.34-0.56,0.88-0.95,1.52-1.1l25.37-6.07c1.3-0.31,2.64,0.52,2.95,1.81l1.8,7.52c0.15,0.64,0.05,1.29-0.29,1.85
						c-0.34,0.56-0.88,0.95-1.52,1.1l-25.37,6.07C400.22,487.4,400.03,487.43,399.83,487.43z M423.41,469.94
						c-0.11,0-0.23,0.01-0.34,0.04l-25.37,6.07c-0.38,0.09-0.7,0.32-0.9,0.65c-0.2,0.33-0.26,0.72-0.17,1.1l1.8,7.52
						c0.18,0.77,0.97,1.25,1.75,1.07l25.37-6.07c0.38-0.09,0.7-0.32,0.9-0.65c0.2-0.33,0.26-0.72,0.17-1.1l-1.8-7.52
						C424.66,470.4,424.08,469.94,423.41,469.94z"/>
				</g>
				<g>
					
						<rect x="375.95" y="484.57" transform="matrix(0.9726 -0.2324 0.2324 0.9726 -102.2633 102.0533)" class="st9" width="12.14" height="1"/>
				</g>
				<g>
					<line class="st10" x1="405.33" y1="473.71" x2="406.35" y2="477.95"/>
					
						<rect x="405.34" y="473.65" transform="matrix(0.9726 -0.2325 0.2325 0.9726 -99.4987 107.3844)" class="st9" width="1" height="4.36"/>
				</g>
				<g>
					<line class="st10" x1="409.18" y1="472.79" x2="410.2" y2="477.03"/>
					
						<rect x="409.19" y="472.73" transform="matrix(0.9726 -0.2327 0.2327 0.9726 -99.256 108.3595)" class="st9" width="1" height="4.36"/>
				</g>
				<g>
					<line class="st10" x1="413.03" y1="471.87" x2="414.04" y2="476.11"/>
					
						<rect x="413.04" y="471.81" transform="matrix(0.9726 -0.2327 0.2327 0.9726 -98.9354 109.2278)" class="st9" width="1" height="4.36"/>
				</g>
			</g>
			<g>
				<path class="st10" d="M431.36,481.62c0.14,0.66-0.29,1.31-0.95,1.45l-3.76,0.78c-0.66,0.14-1.31-0.29-1.45-0.95l-3.32-16.02
					c-0.14-0.66,0.29-1.31,0.95-1.45l3.76-0.78c0.66-0.14,1.31,0.29,1.45,0.95L431.36,481.62z"/>
				<path class="st9" d="M426.4,484.38c-0.81,0-1.52-0.58-1.69-1.37l-3.32-16.02c-0.19-0.93,0.41-1.84,1.34-2.04l3.76-0.78
					c0.92-0.19,1.85,0.43,2.04,1.34l3.32,16.02c0.19,0.93-0.41,1.84-1.34,2.04l-3.76,0.78C426.64,484.36,426.52,484.38,426.4,484.38
					z M426.84,465.13c-0.05,0-0.1,0-0.15,0.01l-3.76,0.78c-0.19,0.04-0.35,0.15-0.46,0.31c-0.11,0.16-0.14,0.35-0.1,0.54l3.32,16.02
					c0.08,0.38,0.47,0.64,0.86,0.56l3.76-0.78c0.39-0.08,0.64-0.47,0.56-0.86l-3.32-16.02
					C427.48,465.38,427.18,465.13,426.84,465.13z"/>
			</g>
		</g>
	</g>
	<g class="st7">
		<g>
			<g>
				<path class="st10" d="M37.57,598.02c-1.26-1.41-3.03-1.08-4.45-0.44c-0.5-18.64-12.88-30.93-28.08-30.93
					c-15.16,0-27.51,12.22-28.07,30.77c-1.35-0.53-2.92-0.69-4.08,0.59c-2.25,2.52-1.7,11.02,6.77,14.28
					c5.35,13.58,17.41,24.24,25.38,24.24c8.71,0,20.34-10.6,25.47-24.13C39.26,609.23,39.85,600.57,37.57,598.02z"/>
				<path class="st9" d="M5.04,637.04c-8.57,0-20.57-11.36-25.77-24.35c-4-1.6-6.81-4.67-7.72-8.44c-0.62-2.58-0.24-5.22,0.96-6.56
					c0.97-1.09,2.33-1.41,3.97-0.95c0.82-17.76,12.74-30.58,28.55-30.58c15.86,0,27.77,12.87,28.55,30.7
					c1.8-0.63,3.3-0.33,4.35,0.83c1.22,1.36,1.6,4.04,0.94,6.66c-0.96,3.82-3.87,6.89-7.98,8.45
					C25.74,626.18,14.17,637.04,5.04,637.04z M-24.89,597.53c-0.75,0-1.36,0.27-1.85,0.82c-0.8,0.89-1.37,3.04-0.74,5.65
					c0.5,2.06,2.11,5.83,7.31,7.82l0.21,0.08l0.08,0.2c5.55,14.1,17.59,23.92,24.92,23.92c8.66,0,20.11-10.9,25.01-23.81l0.08-0.21
					l0.22-0.08c5.36-1.94,7.04-5.74,7.57-7.83c0.67-2.65,0.1-4.84-0.71-5.75c-0.89-0.99-2.19-1.08-3.87-0.31l-0.69,0.31l-0.02-0.75
					c-0.47-17.64-12.07-30.44-27.58-30.44c-15.44,0-27.04,12.74-27.57,30.29l-0.02,0.71l-0.66-0.26
					C-23.83,597.65-24.39,597.53-24.89,597.53z"/>
			</g>
		</g>
		<g>
			<g>
				<path class="st8" d="M5.23,566.66v69.87c8.69-0.15,20.19-10.7,25.28-24.13c0.06-0.02,0.11-0.05,0.17-0.07
					c1.4-5.72,2.08-11.04,2.42-15.07C32.47,578.88,20.25,566.76,5.23,566.66z"/>
				<path class="st9" d="M4.73,637.04v-70.88l0.5,0c15.82,0.11,27.76,13.18,28.37,31.08c-0.44,5.29-1.26,10.39-2.43,15.21
					l-0.06,0.26l-0.2,0.07c-5.1,13.23-16.57,24.09-25.67,24.25L4.73,637.04z M5.73,567.17v68.84c8.68-0.54,19.49-11.06,24.32-23.79
					l0.08-0.21l0.13-0.05c1.13-4.7,1.92-9.66,2.35-14.74C32.01,580.12,20.74,567.54,5.73,567.17z"/>
			</g>
		</g>
		<g>
			<ellipse class="st10" cx="19.16" cy="600.53" rx="8.19" ry="4.43"/>
			<path class="st9" d="M19.16,605.45c-4.87,0-8.69-2.16-8.69-4.93c0-2.76,3.82-4.93,8.69-4.93c4.87,0,8.69,2.16,8.69,4.93
				C27.86,603.29,24.04,605.45,19.16,605.45z M19.16,596.6c-4.17,0-7.69,1.8-7.69,3.93c0,2.13,3.52,3.93,7.69,3.93
				c4.17,0,7.69-1.8,7.69-3.93C26.86,598.4,23.33,596.6,19.16,596.6z"/>
		</g>
		<g>
			<ellipse class="st10" cx="-8.94" cy="600.53" rx="8.19" ry="4.43"/>
			<path class="st9" d="M-8.94,605.45c-4.87,0-8.69-2.16-8.69-4.93c0-2.76,3.82-4.93,8.69-4.93c4.87,0,8.69,2.16,8.69,4.93
				C-0.25,603.29-4.07,605.45-8.94,605.45z M-8.94,596.6c-4.17,0-7.69,1.8-7.69,3.93c0,2.13,3.52,3.93,7.69,3.93
				c4.17,0,7.69-1.8,7.69-3.93C-1.25,598.4-4.77,596.6-8.94,596.6z"/>
		</g>
	</g>
	<g class="st7">
		<g>
			<polygon class="st10" points="172.56,591.6 182.23,589.48 182.23,601.12 174.15,600.37 			"/>
			<path class="st9" d="M182.73,601.67l-9-0.84l-1.75-9.62l10.75-2.35V601.67z M174.58,599.91l7.15,0.67V590.1l-8.59,1.88
				L174.58,599.91z"/>
		</g>
		<g>
			<polygon class="st10" points="145.73,606.5 150.56,624.05 150.56,633.54 129.79,633.54 122.38,633.54 101.6,633.54 101.6,624.05 
				106.44,606.5 			"/>
			<path class="st9" d="M151.06,634.04H101.1l0.02-10.13l4.94-17.92h40.05l4.95,18.05V634.04z M102.1,633.04h47.96v-8.92L145.35,607
				h-38.53l-4.72,17.12V633.04z"/>
		</g>
		<g>
			<path class="st10" d="M152.65,605.01c0,1.41-1.14,2.55-2.55,2.55h-48.03c-1.41,0-2.55-1.14-2.55-2.55v-34.95
				c0-1.41,1.14-2.55,2.55-2.55h48.03c1.41,0,2.55,1.14,2.55,2.55V605.01z"/>
			<path class="st9" d="M150.1,608.06h-48.03c-1.68,0-3.05-1.37-3.05-3.05v-34.95c0-1.68,1.37-3.05,3.05-3.05h48.03
				c1.68,0,3.05,1.37,3.05,3.05v34.95C153.15,606.7,151.78,608.06,150.1,608.06z M102.06,568.01c-1.13,0-2.05,0.92-2.05,2.05v34.95
				c0,1.13,0.92,2.05,2.05,2.05h48.03c1.13,0,2.05-0.92,2.05-2.05v-34.95c0-1.13-0.92-2.05-2.05-2.05H102.06z"/>
		</g>
		<g>
			<rect x="106.65" y="574.71" class="st10" width="38.87" height="25.66"/>
			<path class="st9" d="M146.01,600.87h-39.87v-26.66h39.87V600.87z M107.15,599.87h37.87v-24.66h-37.87V599.87z"/>
		</g>
		<g>
			<path class="st8" d="M115.88,621.18c0,1.98-1.6,3.58-3.58,3.58c-1.98,0-3.58-1.6-3.58-3.58c0-1.98,1.6-3.58,3.58-3.58
				C114.28,617.6,115.88,619.21,115.88,621.18z"/>
			<path class="st9" d="M112.3,625.27c-2.25,0-4.08-1.83-4.08-4.08c0-2.25,1.83-4.08,4.08-4.08c2.25,0,4.08,1.83,4.08,4.08
				C116.38,623.43,114.55,625.27,112.3,625.27z M112.3,618.1c-1.7,0-3.08,1.38-3.08,3.08c0,1.7,1.38,3.08,3.08,3.08
				c1.7,0,3.08-1.38,3.08-3.08C115.38,619.48,114,618.1,112.3,618.1z"/>
		</g>
		<g>
			<path class="st8" d="M129.66,621.18c0,1.98-1.6,3.58-3.58,3.58s-3.58-1.6-3.58-3.58c0-1.98,1.6-3.58,3.58-3.58
				S129.66,619.21,129.66,621.18z"/>
			<path class="st9" d="M126.08,625.27c-2.25,0-4.08-1.83-4.08-4.08c0-2.25,1.83-4.08,4.08-4.08c2.25,0,4.08,1.83,4.08,4.08
				C130.16,623.43,128.33,625.27,126.08,625.27z M126.08,618.1c-1.7,0-3.08,1.38-3.08,3.08c0,1.7,1.38,3.08,3.08,3.08
				c1.7,0,3.08-1.38,3.08-3.08C129.16,619.48,127.78,618.1,126.08,618.1z"/>
		</g>
		<g>
			<path class="st8" d="M143.45,621.18c0,1.98-1.6,3.58-3.58,3.58s-3.58-1.6-3.58-3.58c0-1.98,1.6-3.58,3.58-3.58
				S143.45,619.21,143.45,621.18z"/>
			<path class="st9" d="M139.87,625.27c-2.25,0-4.08-1.83-4.08-4.08c0-2.25,1.83-4.08,4.08-4.08c2.25,0,4.08,1.83,4.08,4.08
				C143.95,623.43,142.12,625.27,139.87,625.27z M139.87,618.1c-1.7,0-3.08,1.38-3.08,3.08c0,1.7,1.38,3.08,3.08,3.08
				c1.7,0,3.08-1.38,3.08-3.08C142.95,619.48,141.56,618.1,139.87,618.1z"/>
		</g>
		<g>
			<path class="st9" d="M165.96,621.68h-26.01v-1h26.01c1.13,0,2.05-0.92,2.05-2.05v-13.71h1v13.71
				C169.01,620.32,167.64,621.68,165.96,621.68z"/>
		</g>
		<g>
			<path class="st10" d="M174.15,606.59c0,1.41-1.14,2.55-2.55,2.55h-6.18c-1.41,0-2.55-1.14-2.55-2.55v-12.44
				c0-1.41,1.14-2.55,2.55-2.55h6.18c1.41,0,2.55,1.14,2.55,2.55V606.59z"/>
			<path class="st9" d="M171.6,609.64h-6.18c-1.68,0-3.05-1.37-3.05-3.05v-12.44c0-1.68,1.37-3.05,3.05-3.05h6.18
				c1.68,0,3.05,1.37,3.05,3.05v12.44C174.65,608.27,173.28,609.64,171.6,609.64z M165.42,592.1c-1.13,0-2.05,0.92-2.05,2.05v12.44
				c0,1.13,0.92,2.05,2.05,2.05h6.18c1.13,0,2.05-0.92,2.05-2.05v-12.44c0-1.13-0.92-2.05-2.05-2.05H165.42z"/>
		</g>
		<g>
			
				<rect x="186.51" y="587.54" transform="matrix(0.9637 -0.2668 0.2668 0.9637 -149.9519 72.5262)" class="st9" width="10.78" height="1"/>
		</g>
		<g>
			
				<rect x="191.94" y="598.93" transform="matrix(0.2461 -0.9692 0.9692 0.2461 -440.0933 641.6679)" class="st9" width="1" height="9.61"/>
		</g>
		<g>
			<rect x="187.78" y="594.89" class="st9" width="9.31" height="1"/>
		</g>
	</g>
	<g class="st7">
		<g>
			<g>
				<path class="st10" d="M243.78,639.68c0,1.41-1.14,2.55-2.55,2.55h-1.16c-1.41,0-2.55-1.14-2.55-2.55v-20.55
					c0-1.41,1.14-2.55,2.55-2.55h1.16c1.41,0,2.55,1.14,2.55,2.55V639.68z"/>
				<path class="st9" d="M241.23,642.73h-1.16c-1.68,0-3.05-1.37-3.05-3.05v-20.55c0-1.68,1.37-3.05,3.05-3.05h1.16
					c1.68,0,3.05,1.37,3.05,3.05v20.55C244.28,641.36,242.91,642.73,241.23,642.73z M240.07,617.08c-1.13,0-2.05,0.92-2.05,2.05
					v20.55c0,1.13,0.92,2.05,2.05,2.05h1.16c1.13,0,2.05-0.92,2.05-2.05v-20.55c0-1.13-0.92-2.05-2.05-2.05H240.07z"/>
			</g>
			<g>
				<g>
					<path class="st10" d="M235.95,592.48c-1.37,0-2.48-1.15-2.48-2.57v-3.44c0-1.42,1.11-2.57,2.48-2.57h8.93
						c1.37,0,2.48,1.15,2.48,2.57v3.44c0,1.42-1.11,2.57-2.48,2.57H235.95z"/>
					<path class="st9" d="M244.88,592.98h-8.93c-1.64,0-2.98-1.38-2.98-3.07v-3.44c0-1.69,1.33-3.07,2.98-3.07h8.93
						c1.64,0,2.98,1.38,2.98,3.07v3.44C247.85,591.6,246.52,592.98,244.88,592.98z M235.95,584.4c-1.09,0-1.98,0.93-1.98,2.07v3.44
						c0,1.14,0.89,2.07,1.98,2.07h8.93c1.09,0,1.98-0.93,1.98-2.07v-3.44c0-1.14-0.89-2.07-1.98-2.07H235.95z"/>
				</g>
				<g>
					<path class="st10" d="M235.5,622.58c-1.37,0-2.48-1.15-2.48-2.57v-26.95c0-1.42,1.11-2.57,2.48-2.57h9.82
						c1.37,0,2.47,1.15,2.47,2.57v26.95c0,1.42-1.11,2.57-2.47,2.57H235.5z"/>
					<path class="st9" d="M245.32,623.08h-9.82c-1.64,0-2.98-1.38-2.98-3.07v-26.95c0-1.69,1.33-3.07,2.98-3.07h9.82
						c1.64,0,2.97,1.38,2.97,3.07v26.95C248.3,621.7,246.96,623.08,245.32,623.08z M235.5,590.99c-1.09,0-1.98,0.93-1.98,2.07v26.95
						c0,1.14,0.89,2.07,1.98,2.07h9.82c1.09,0,1.97-0.93,1.97-2.07v-26.95c0-1.14-0.89-2.07-1.97-2.07H235.5z"/>
				</g>
				<g>
					<polygon class="st10" points="245.92,583.9 244.05,578.76 237.15,578.76 234.9,583.9 					"/>
					<path class="st9" d="M246.64,584.4h-12.5l2.68-6.14h7.58L246.64,584.4z M235.67,583.4h9.54l-1.51-4.14h-6.22L235.67,583.4z"/>
				</g>
				<g>
					<rect x="240.15" y="549.97" class="st9" width="1" height="28.22"/>
				</g>
				<g>
					<line class="st10" x1="247.8" y1="603.57" x2="242.25" y2="603.57"/>
					<rect x="242.25" y="603.07" class="st9" width="5.54" height="1"/>
				</g>
				<g>
					<line class="st10" x1="247.8" y1="608.79" x2="242.25" y2="608.79"/>
					<rect x="242.25" y="608.29" class="st9" width="5.54" height="1"/>
				</g>
				<g>
					<line class="st10" x1="247.8" y1="614" x2="242.25" y2="614"/>
					<rect x="242.25" y="613.5" class="st9" width="5.54" height="1"/>
				</g>
			</g>
			<g>
				<rect x="228.92" y="621.3" class="st10" width="22.99" height="3.58"/>
				<path class="st9" d="M252.41,625.38h-23.99v-4.58h23.99V625.38z M229.42,624.38h21.99v-2.58h-21.99V624.38z"/>
			</g>
		</g>
		<g>
			<g>
				<path class="st10" d="M272.66,639.68c0,1.41-1.14,2.55-2.55,2.55h-1.16c-1.41,0-2.55-1.14-2.55-2.55v-20.55
					c0-1.41,1.14-2.55,2.55-2.55h1.16c1.41,0,2.55,1.14,2.55,2.55V639.68z"/>
				<path class="st9" d="M270.11,642.73h-1.16c-1.68,0-3.05-1.37-3.05-3.05v-20.55c0-1.68,1.37-3.05,3.05-3.05h1.16
					c1.68,0,3.05,1.37,3.05,3.05v20.55C273.16,641.36,271.79,642.73,270.11,642.73z M268.95,617.08c-1.13,0-2.05,0.92-2.05,2.05
					v20.55c0,1.13,0.92,2.05,2.05,2.05h1.16c1.13,0,2.05-0.92,2.05-2.05v-20.55c0-1.13-0.92-2.05-2.05-2.05H268.95z"/>
			</g>
			<g>
				<g>
					<path class="st10" d="M264.83,592.48c-1.37,0-2.48-1.15-2.48-2.57v-3.44c0-1.42,1.11-2.57,2.48-2.57h8.93
						c1.37,0,2.48,1.15,2.48,2.57v3.44c0,1.42-1.11,2.57-2.48,2.57H264.83z"/>
					<path class="st9" d="M273.76,592.98h-8.93c-1.64,0-2.98-1.38-2.98-3.07v-3.44c0-1.69,1.33-3.07,2.98-3.07h8.93
						c1.64,0,2.98,1.38,2.98,3.07v3.44C276.73,591.6,275.4,592.98,273.76,592.98z M264.83,584.4c-1.09,0-1.98,0.93-1.98,2.07v3.44
						c0,1.14,0.89,2.07,1.98,2.07h8.93c1.09,0,1.98-0.93,1.98-2.07v-3.44c0-1.14-0.89-2.07-1.98-2.07H264.83z"/>
				</g>
				<g>
					<path class="st10" d="M264.38,622.58c-1.37,0-2.48-1.15-2.48-2.57v-26.95c0-1.42,1.11-2.57,2.48-2.57h9.82
						c1.37,0,2.47,1.15,2.47,2.57v26.95c0,1.42-1.11,2.57-2.47,2.57H264.38z"/>
					<path class="st9" d="M274.2,623.08h-9.82c-1.64,0-2.98-1.38-2.98-3.07v-26.95c0-1.69,1.34-3.07,2.98-3.07h9.82
						c1.64,0,2.97,1.38,2.97,3.07v26.95C277.18,621.7,275.84,623.08,274.2,623.08z M264.38,590.99c-1.09,0-1.98,0.93-1.98,2.07
						v26.95c0,1.14,0.89,2.07,1.98,2.07h9.82c1.09,0,1.97-0.93,1.97-2.07v-26.95c0-1.14-0.89-2.07-1.97-2.07H264.38z"/>
				</g>
				<g>
					<polygon class="st10" points="274.8,583.9 272.93,578.76 266.03,578.76 263.78,583.9 					"/>
					<path class="st9" d="M275.52,584.4h-12.5l2.68-6.14h7.58L275.52,584.4z M264.55,583.4h9.54l-1.51-4.14h-6.22L264.55,583.4z"/>
				</g>
				<g>
					<rect x="269.03" y="549.97" class="st9" width="1" height="28.22"/>
				</g>
				<g>
					<line class="st10" x1="276.68" y1="603.57" x2="271.13" y2="603.57"/>
					<rect x="271.13" y="603.07" class="st9" width="5.54" height="1"/>
				</g>
				<g>
					<line class="st10" x1="276.68" y1="608.79" x2="271.13" y2="608.79"/>
					<rect x="271.13" y="608.29" class="st9" width="5.54" height="1"/>
				</g>
				<g>
					<line class="st10" x1="276.68" y1="614" x2="271.13" y2="614"/>
					<rect x="271.13" y="613.5" class="st9" width="5.54" height="1"/>
				</g>
			</g>
			<g>
				<rect x="257.8" y="621.3" class="st10" width="22.99" height="3.58"/>
				<path class="st9" d="M281.29,625.38H257.3v-4.58h23.99V625.38z M258.3,624.38h21.99v-2.58H258.3V624.38z"/>
			</g>
		</g>
	</g>
</g>
<g id="Layer_6">
	<g>
		<path class="st11" d="M11.89,25.55c0,0,1.46,7.03-5.82,9.52c0,0,7.29-1.48,12.01,8.04c0,0-2.52-10.03,4.13-12.52
			C22.21,30.59,15.01,31.62,11.89,25.55z"/>
		<path class="st9" d="M18.08,43.61c-0.18,0-0.36-0.1-0.45-0.28c-3.51-7.08-8.49-7.84-10.46-7.84c-0.62,0-1,0.07-1,0.07
			c-0.26,0.05-0.51-0.11-0.58-0.36c-0.07-0.25,0.07-0.52,0.32-0.6c6.76-2.32,5.55-8.68,5.49-8.95c-0.05-0.25,0.09-0.49,0.32-0.57
			c0.24-0.08,0.5,0.02,0.61,0.24c2.16,4.21,6.36,4.83,8.66,4.83c0.69,0,1.14-0.06,1.14-0.06c0.25-0.03,0.49,0.12,0.55,0.37
			c0.06,0.25-0.07,0.5-0.31,0.59c-6.17,2.31-3.84,11.84-3.82,11.93c0.06,0.25-0.07,0.5-0.31,0.59C18.2,43.6,18.14,43.61,18.08,43.61
			z M8.36,34.56c2.24,0.28,5.84,1.5,8.84,6c-0.23-2.8-0.01-7.12,3-9.44c-2.01-0.13-5.4-0.81-7.71-3.73
			C12.4,29.43,11.68,32.57,8.36,34.56z"/>
	</g>
	<g>
		<path class="st11" d="M37.54,2.31c0,0-1.39,7.04-9.07,6.5c0,0,7.29,1.47,7.94,12.08c0,0,1.58-10.22,8.68-9.93
			C45.08,10.97,38.05,9.12,37.54,2.31z"/>
		<path class="st9" d="M36.4,21.4c-0.01,0-0.02,0-0.02,0c-0.25-0.01-0.46-0.21-0.48-0.47c-0.61-10.07-7.25-11.56-7.54-11.62
			c-0.26-0.05-0.43-0.3-0.39-0.56c0.04-0.26,0.25-0.45,0.53-0.43c7.16,0.49,8.53-6.04,8.54-6.1c0.05-0.25,0.25-0.43,0.52-0.4
			c0.25,0.01,0.45,0.21,0.47,0.46c0.48,6.38,7.11,8.19,7.17,8.21c0.25,0.06,0.41,0.3,0.37,0.56c-0.04,0.25-0.26,0.42-0.51,0.43
			c-6.55-0.27-8.15,9.41-8.16,9.5C36.86,21.22,36.65,21.4,36.4,21.4z M30.75,9.25c2,1.16,4.81,3.68,5.82,8.92
			c0.87-2.68,2.74-6.54,6.46-7.49c-1.91-0.95-4.68-2.9-5.66-6.42C36.49,6.09,34.6,8.71,30.75,9.25z"/>
	</g>
</g>
<g id="Layer_4">
	<g>
		<g>
			<g>
				<path class="st10" d="M188.3,52.86c-1.32-1.47-3.16-1.13-4.65-0.46c-0.52-19.47-13.45-32.31-29.34-32.31
					c-15.84,0-28.74,12.76-29.33,32.15c-1.41-0.55-3.05-0.72-4.26,0.62c-2.36,2.63-1.78,11.52,7.07,14.92
					c5.59,14.19,18.19,25.33,26.52,25.33c9.1,0,21.25-11.08,26.61-25.21C190.06,64.57,190.68,55.52,188.3,52.86z"/>
				<path class="st9" d="M154.31,93.6c-8.95,0-21.48-11.86-26.9-25.44c-4.18-1.67-7.11-4.87-8.06-8.81c-0.65-2.69-0.25-5.43,1-6.83
					c1.02-1.13,2.44-1.47,4.16-0.97c0.85-18.56,13.3-31.96,29.81-31.96c16.57,0,29.01,13.45,29.81,32.08
					c1.88-0.66,3.46-0.37,4.55,0.85c1.27,1.42,1.66,4.21,0.98,6.94c-1,3.99-4.04,7.19-8.34,8.81
					C175.93,82.26,163.85,93.6,154.31,93.6z M123.05,52.33c-0.79,0-1.43,0.28-1.95,0.87c-1.02,1.14-1.34,3.58-0.78,5.93
					c0.52,2.16,2.21,6.1,7.65,8.19l0.21,0.08l0.08,0.2c5.8,14.74,18.39,25.01,26.05,25.01c9.05,0,21.03-11.4,26.15-24.89l0.08-0.21
					l0.22-0.08c5.61-2.03,7.37-6.01,7.92-8.2c0.7-2.78,0.1-5.07-0.75-6.03c-0.94-1.04-2.31-1.14-4.07-0.33l-0.69,0.31l-0.02-0.75
					c-0.5-18.44-12.62-31.83-28.84-31.83c-16.15,0-28.27,13.32-28.83,31.66l-0.02,0.71l-0.66-0.26
					C124.16,52.45,123.57,52.33,123.05,52.33z"/>
			</g>
		</g>
		<g>
			<path class="st10" d="M158.51,46.95c0,0,9.24-3.38,13.68-2.49c4.44,0.89,5.2,2.49,5.2,2.49"/>
			<path class="st9" d="M158.69,47.42l-0.34-0.94c0.38-0.14,9.43-3.42,13.95-2.51c4.55,0.91,5.47,2.58,5.56,2.76l-0.9,0.43
				c0,0-0.8-1.4-4.85-2.21C167.85,44.09,158.78,47.38,158.69,47.42z"/>
		</g>
		<g>
			<path class="st10" d="M148.56,46.95c0,0-9.24-3.38-13.68-2.49c-4.44,0.89-5.2,2.49-5.2,2.49"/>
			<path class="st9" d="M148.39,47.42c-0.09-0.03-9.16-3.32-13.41-2.47c-4.05,0.81-4.85,2.21-4.85,2.22l-0.9-0.44
				c0.09-0.19,1-1.85,5.56-2.76c4.53-0.91,13.57,2.37,13.95,2.51L148.39,47.42z"/>
		</g>
		<g>
			<path class="st10" d="M133.87,54.54c0,0,6.23,0.94,12.26,0"/>
			<path class="st9" d="M140.25,55.46c-3.57,0-6.28-0.4-6.45-0.43l0.15-0.99c0.06,0.01,6.23,0.92,12.11,0l0.15,0.99
				C144.15,55.35,142.09,55.46,140.25,55.46z"/>
		</g>
		<g>
			<path class="st10" d="M161.82,54.54c0,0,6.23,0.94,12.26,0"/>
			<path class="st9" d="M168.2,55.46c-3.57,0-6.28-0.4-6.45-0.43l0.15-0.99c0.06,0.01,6.23,0.92,12.11,0l0.15,0.99
				C172.11,55.35,170.04,55.46,168.2,55.46z"/>
		</g>
		<g>
			<path class="st11" d="M127.79,67.77c0,0,8.22-2.54,14.36,1.15s7.73,10.3,3.97,21.48C146.13,90.4,133.31,83.19,127.79,67.77z"/>
			<path class="st9" d="M146.41,91.14l-0.53-0.3c-0.13-0.07-13.05-7.48-18.56-22.9l-0.18-0.49l0.5-0.15
				c0.12-0.04,2.87-0.88,6.42-0.88c3.25,0,6.06,0.7,8.35,2.07c6.59,3.96,7.92,10.97,4.19,22.07L146.41,91.14z M128.45,68.11
				c4.83,12.97,14.99,20.01,17.4,21.54c3.31-10.23,2.05-16.69-3.95-20.3c-2.13-1.28-4.77-1.93-7.83-1.93
				C131.54,67.42,129.39,67.88,128.45,68.11z"/>
		</g>
		<g>
			<path class="st11" d="M181.55,67.4c0,0-8.22-2.54-14.36,1.15s-7.73,10.3-3.97,21.48C163.21,90.03,176.03,82.82,181.55,67.4z"/>
			<path class="st9" d="M162.93,90.76l-0.19-0.57c-3.73-11.1-2.4-18.11,4.19-22.07c2.29-1.38,5.1-2.07,8.35-2.07
				c3.55,0,6.31,0.84,6.42,0.88l0.5,0.15l-0.18,0.49c-5.51,15.42-18.43,22.83-18.56,22.9L162.93,90.76z M175.27,67.05
				c-3.06,0-5.7,0.65-7.83,1.93c-6,3.6-7.26,10.06-3.95,20.3c2.42-1.53,12.57-8.56,17.4-21.54C179.95,67.5,177.8,67.05,175.27,67.05
				z"/>
		</g>
	</g>
	<g>
		<g>
			<g>
				<path class="st10" d="M86.41,54.28c-1.32-1.47-3.16-1.13-4.65-0.46c-0.52-19.47-13.45-32.31-29.34-32.31
					c-15.84,0-28.74,12.76-29.33,32.15c-1.41-0.55-3.05-0.72-4.26,0.62c-2.36,2.63-1.78,11.52,7.07,14.92
					c5.59,14.19,18.19,25.33,26.52,25.33c9.1,0,21.25-11.08,26.61-25.21C88.18,65.99,88.79,56.94,86.41,54.28z"/>
				<path class="st9" d="M52.42,95.02c-8.95,0-21.48-11.86-26.9-25.44c-4.18-1.67-7.11-4.87-8.06-8.81c-0.65-2.69-0.25-5.43,1-6.83
					c1.02-1.13,2.44-1.47,4.16-0.97c0.85-18.56,13.3-31.96,29.81-31.96c16.57,0,29.01,13.45,29.81,32.08
					c1.88-0.66,3.46-0.37,4.55,0.85c1.27,1.42,1.66,4.21,0.98,6.94c-1,3.99-4.04,7.19-8.34,8.81
					C74.04,83.68,61.96,95.02,52.42,95.02z M21.16,53.74c-0.79,0-1.43,0.28-1.95,0.87c-1.02,1.14-1.34,3.58-0.78,5.93
					c0.52,2.16,2.21,6.1,7.65,8.19l0.21,0.08l0.08,0.2c5.8,14.74,18.39,25.01,26.05,25.01c9.05,0,21.03-11.4,26.15-24.89l0.08-0.21
					l0.22-0.08c5.61-2.03,7.37-6.01,7.92-8.2c0.7-2.78,0.1-5.07-0.75-6.03c-0.94-1.04-2.31-1.14-4.07-0.33l-0.69,0.31l-0.02-0.75
					c-0.5-18.44-12.62-31.83-28.84-31.83c-16.15,0-28.27,13.32-28.83,31.66l-0.02,0.71l-0.66-0.26
					C22.27,53.87,21.68,53.74,21.16,53.74z"/>
			</g>
		</g>
		<g>
			<path class="st10" d="M56.63,48.36c0,0,9.24-3.38,13.68-2.49c4.44,0.89,5.2,2.49,5.2,2.49"/>
			<path class="st9" d="M56.8,48.83l-0.34-0.94c0.38-0.14,9.43-3.42,13.95-2.51c4.55,0.91,5.47,2.58,5.56,2.76l-0.9,0.43
				c0,0-0.8-1.4-4.85-2.21C65.96,45.51,56.89,48.8,56.8,48.83z"/>
		</g>
		<g>
			<path class="st10" d="M46.68,48.36c0,0-9.24-3.38-13.68-2.49c-4.44,0.89-5.2,2.49-5.2,2.49"/>
			<path class="st9" d="M46.51,48.83c-0.09-0.03-9.16-3.32-13.41-2.47c-4.05,0.81-4.85,2.21-4.85,2.22l-0.9-0.44
				c0.09-0.19,1-1.85,5.56-2.76c4.53-0.91,13.57,2.37,13.95,2.51L46.51,48.83z"/>
		</g>
		<g>
			<path class="st10" d="M31.98,55.95c0,0,6.23,0.94,12.26,0"/>
			<path class="st9" d="M38.36,56.88c-3.57,0-6.28-0.4-6.45-0.43l0.15-0.99c0.06,0.01,6.23,0.92,12.11,0l0.15,0.99
				C42.26,56.77,40.2,56.88,38.36,56.88z"/>
		</g>
		<g>
			<path class="st10" d="M59.94,55.95c0,0,6.23,0.94,12.26,0"/>
			<path class="st9" d="M66.32,56.88c-3.57,0-6.28-0.4-6.45-0.43l0.15-0.99c0.06,0.01,6.23,0.92,12.11,0l0.15,0.99
				C70.22,56.77,68.16,56.88,66.32,56.88z"/>
		</g>
	</g>
</g>
<g id="Layer_5">
	<g>
		<g>
			<g>
				<g>
					<path class="st10" d="M-22.61,55.14c-1.32-1.47-3.16-1.13-4.65-0.46c-0.52-19.47-13.45-32.31-29.34-32.31
						c-15.84,0-28.74,12.76-29.33,32.15c-1.41-0.55-3.05-0.72-4.26,0.62c-2.36,2.63-1.78,11.52,7.07,14.92
						c5.59,14.19,18.19,25.33,26.52,25.33c9.1,0,21.25-11.08,26.61-25.21C-20.85,66.86-20.23,57.81-22.61,55.14z"/>
					<path class="st9" d="M-56.6,95.89c-8.95,0-21.48-11.86-26.9-25.44c-4.18-1.67-7.11-4.87-8.06-8.81c-0.65-2.69-0.25-5.43,1-6.83
						c1.02-1.13,2.44-1.47,4.16-0.97c0.85-18.56,13.3-31.96,29.81-31.96c16.57,0,29.01,13.45,29.81,32.08
						c1.88-0.66,3.46-0.37,4.55,0.85c1.27,1.42,1.66,4.21,0.98,6.94c-1,3.99-4.04,7.19-8.34,8.81
						C-34.98,84.54-47.06,95.89-56.6,95.89z M-87.86,54.61c-0.79,0-1.43,0.28-1.95,0.87c-1.02,1.14-1.34,3.58-0.78,5.93
						c0.52,2.16,2.21,6.1,7.65,8.19l0.21,0.08l0.08,0.2c5.8,14.74,18.39,25.01,26.05,25.01c9.05,0,21.03-11.4,26.15-24.89l0.08-0.21
						l0.22-0.08c5.61-2.03,7.37-6.01,7.92-8.2c0.7-2.78,0.1-5.07-0.75-6.03c-0.94-1.04-2.31-1.14-4.07-0.33l-0.69,0.31l-0.02-0.75
						c-0.5-18.44-12.62-31.83-28.84-31.83c-16.15,0-28.27,13.32-28.83,31.66l-0.02,0.71l-0.66-0.26
						C-86.75,54.74-87.34,54.61-87.86,54.61z"/>
				</g>
			</g>
			<g>
				<path class="st10" d="M-52.4,49.23c0,0,9.24-3.38,13.68-2.49c4.44,0.89,5.2,2.49,5.2,2.49"/>
				<path class="st9" d="M-52.22,49.7l-0.34-0.94c0.38-0.14,9.43-3.42,13.95-2.51c4.55,0.91,5.47,2.58,5.56,2.76l-0.9,0.43
					c0,0-0.8-1.4-4.85-2.21C-43.06,46.38-52.13,49.67-52.22,49.7z"/>
			</g>
			<g>
				<path class="st10" d="M-62.35,49.23c0,0-9.24-3.38-13.68-2.49c-4.44,0.89-5.2,2.49-5.2,2.49"/>
				<path class="st9" d="M-62.52,49.7c-0.09-0.03-9.16-3.32-13.41-2.47c-4.05,0.81-4.85,2.21-4.85,2.22l-0.9-0.44
					c0.09-0.19,1-1.85,5.56-2.76c4.53-0.91,13.57,2.37,13.95,2.51L-62.52,49.7z"/>
			</g>
			<g>
				<path class="st10" d="M-77.04,56.82c0,0,6.23,0.94,12.26,0"/>
				<path class="st9" d="M-70.66,57.74c-3.57,0-6.28-0.4-6.45-0.43l0.15-0.99c0.06,0.01,6.23,0.92,12.11,0l0.15,0.99
					C-66.76,57.64-68.82,57.74-70.66,57.74z"/>
			</g>
			<g>
				<path class="st10" d="M-49.09,56.82c0,0,6.23,0.94,12.26,0"/>
				<path class="st9" d="M-42.71,57.74c-3.57,0-6.28-0.4-6.45-0.43l0.15-0.99c0.06,0.01,6.23,0.92,12.11,0l0.15,0.99
					C-38.8,57.64-40.87,57.74-42.71,57.74z"/>
			</g>
		</g>
		<g>
			<g>
				<path class="st11" d="M-102.41,32.53c0.68,1.18,9.13,5.85,6.84,13.54c-3.07,10.27,7.21,26.21,9.06,29.19
					c1.85,2.98,3.8,2.53,5.5,2.84c1.7,0.31-2.75-7.26-3.49-9.22c-0.74-1.96-1.15-15.59-1.14-17c0.01-1.41,2.55-2.08,2.55-2.08
					s3.1,5.81,3.73,6.96c0.63,1.15,3.18,2.1,3.55-2.41c0.36-4.52-13.2-27.73-13.29-28.52"/>
			</g>
			<path class="st9" d="M-80.91,78.6c-0.06,0-0.12-0.01-0.18-0.02c-0.3-0.05-0.61-0.08-0.93-0.12c-1.46-0.14-3.27-0.32-4.9-2.95
				l-0.2-0.31c-9.88-15.8-10.3-24.64-8.92-29.27c1.74-5.84-3.13-9.93-5.48-11.9c-0.71-0.6-1.14-0.95-1.32-1.27l0.84-0.48
				c0.09,0.16,0.6,0.59,1.1,1.01c2.5,2.1,7.71,6.47,5.78,12.91c-1.33,4.44-0.87,12.99,8.81,28.48l0.2,0.32
				c1.38,2.22,2.74,2.36,4.17,2.5c0.28,0.03,0.55,0.05,0.82,0.1c-0.08-0.95-1.64-4.04-2.51-5.76c-0.6-1.18-1.11-2.2-1.34-2.79
				c-0.79-2.08-1.18-15.91-1.17-17.18c0.01-1.73,2.61-2.47,2.91-2.54l0.37-0.1l0.18,0.34c0,0,3.1,5.81,3.73,6.96
				c0.23,0.42,0.81,0.79,1.32,0.68c0.7-0.15,1.19-1.21,1.32-2.9c0.26-3.22-7.34-17.23-11-23.96c-1.99-3.66-2.27-4.2-2.3-4.46
				l0.96-0.12c0.08,0.23,1.06,2.03,2.19,4.12c3.98,7.34,11.39,20.99,11.11,24.5c-0.22,2.8-1.26,3.6-2.09,3.77
				c-1,0.22-1.97-0.44-2.37-1.17c-0.53-0.98-2.86-5.33-3.54-6.61c-0.7,0.25-1.82,0.8-1.83,1.5c-0.01,1.64,0.41,15,1.11,16.83
				c0.2,0.54,0.71,1.54,1.3,2.69c2.26,4.48,2.97,6.19,2.44,6.9C-80.45,78.5-80.66,78.6-80.91,78.6z"/>
		</g>
		<g>
			<path class="st11" d="M-10.35,32.89c-0.68,1.18-9.13,5.85-6.84,13.54c3.07,10.27-7.21,26.21-9.06,29.19
				c-1.85,2.98-3.8,2.53-5.5,2.84c-1.7,0.31,2.75-7.26,3.49-9.22c0.74-1.96,1.15-15.59,1.14-17c-0.01-1.41-2.55-2.08-2.55-2.08
				s-3.1,5.81-3.73,6.96c-0.63,1.15-3.18,2.1-3.55-2.41c-0.36-4.52,13.2-27.73,13.29-28.52"/>
			<path class="st9" d="M-31.84,78.96c-0.25,0-0.46-0.1-0.6-0.29c-0.53-0.71,0.18-2.43,2.44-6.9c0.59-1.16,1.09-2.16,1.29-2.69
				c0.69-1.82,1.12-15.18,1.11-16.83c0-0.67-1.07-1.23-1.82-1.5c-0.68,1.28-3.01,5.63-3.54,6.61c-0.4,0.73-1.36,1.38-2.37,1.17
				c-0.83-0.18-1.86-0.97-2.09-3.77c-0.28-3.51,7.13-17.17,11.11-24.5c1.13-2.09,2.11-3.89,2.2-4.16l0.95,0.17
				c-0.03,0.26-0.31,0.8-2.3,4.46c-3.65,6.73-11.25,20.74-11,23.96c0.14,1.7,0.62,2.75,1.32,2.9c0.51,0.11,1.09-0.27,1.31-0.68
				c0.63-1.15,3.73-6.96,3.73-6.96l0.18-0.34l0.37,0.1c0.3,0.08,2.9,0.82,2.91,2.54c0.01,1.26-0.38,15.09-1.17,17.18
				c-0.22,0.58-0.74,1.6-1.34,2.79c-0.87,1.72-2.43,4.81-2.51,5.76c0.27-0.04,0.55-0.07,0.82-0.1c1.44-0.14,2.79-0.27,4.17-2.5
				l0.2-0.32c9.69-15.49,10.14-24.04,8.81-28.48c-1.92-6.45,3.28-10.82,5.78-12.91c0.49-0.42,1.01-0.84,1.1-1.01l0.84,0.48
				c-0.18,0.31-0.61,0.67-1.32,1.27c-2.34,1.97-7.22,6.06-5.48,11.9c1.38,4.63,0.96,13.47-8.92,29.27l-0.2,0.31
				c-1.64,2.63-3.45,2.81-4.9,2.95c-0.32,0.03-0.63,0.06-0.93,0.12C-31.73,78.95-31.79,78.96-31.84,78.96z"/>
		</g>
	</g>
</g>
</svg>
