<?xml version="1.0" encoding="utf-8"?>
<!-- Generator: Adobe Illustrator 23.1.0, SVG Export Plug-In . SVG Version: 6.00 Build 0)  -->
<svg version="1.1" xmlns="http://www.w3.org/2000/svg" xmlns:xlink="http://www.w3.org/1999/xlink" x="0px" y="0px"
	 viewBox="0 0 97.67 97.75" style="enable-background:new 0 0 97.67 97.75;" xml:space="preserve">
<style type="text/css">
	.st0{fill:#E60012;}
	.st1{fill:#D1000E;}
	.st2{fill:#9D0000;}
	.st3{fill:#5A0C57;}
	.st4{fill:#F9D0BA;}
	.st5{display:none;}
	.st6{display:inline;fill:#FCFCFC;}
	.st7{display:inline;}
	.st8{fill:#F5DA82;}
	.st9{fill:#53679C;}
	.st10{fill:#FFFFFF;}
	.st11{fill:#F9CDD8;}
</style>
<symbol  id="Deleted_Symbol" viewBox="-35.72 -48.61 71.44 97.21">
	<g>
		<g>
			<g>
				<g>
					<path class="st0" d="M11.85,7.99c0.26-2-0.72-4.81-4-9.17C-0.74-12.6-8.24-39.56-1.13-48.61c0,0-0.93,5.2,2.87,12.29
						c0,0,1.98-4.68,7.53-10.26c0,0-1.23,9.19-0.37,18.73c0.72,8.05,2.18,16.01,6.12,22.28c0.54,1.44,1.22,3.27,1.82,4.98
						C17.79,2.09,15.07,5.39,11.85,7.99z"/>
					<path class="st1" d="M20.05,5.8c-1.96,3.02-5.16,5.15-7.47,6.4C11,13.06-0.53,21.35-5.73,29.17l-4.44-0.71
						c0,0,11.07-11.1,15.29-14.23c2.6-1.94,6.31-3,6.74-6.23c3.23-2.6,5.94-5.9,5-8.58c-0.6-1.71-1.28-3.54-1.82-4.98
						c1.3,2.06,2.86,3.94,4.76,5.58c0.01,0.01,0.02,0.02,0.04,0.04C20.55,1.66,21.21,4.01,20.05,5.8z"/>
					<path class="st2" d="M11.2,15.79C4.08,19.27,1.7,27.96,1.33,30.3l-7.06-1.13c5.2-7.82,16.73-16.11,18.31-16.96
						c2.31-1.25,5.51-3.38,7.47-6.4c1.16-1.79,0.5-4.14-0.22-5.76C27.43,6.64,18.31,12.31,11.2,15.79z"/>
				</g>
				<g>
					<path class="st1" d="M2.77,13.55c2.82,5.6-1.91,14.57-1.91,14.57l-0.65,0.07l-6.85,6.59c4.7-11.04,0.19-7,2.16-11.51
						c1.72-3.96-0.57-8.44-7.55-13.39c3.45,0.59,6.63,0.73,8.26,0.91C-1.48,11.04,1.34,12.65,2.77,13.55z"/>
					<path class="st0" d="M-3.77,10.78c-1.64-0.18-4.82-0.32-8.26-0.91c-2.68-1.9-6.06-3.87-10.17-5.9
						c-14.81-7.32-4.1-27.38,0.06-34.67c4.16-7.3,2.89-13.38,2.89-13.38c3.31,3.59,3.96,12.24,3.96,12.24
						c4.23-3.38,6.89-9.39,6.89-9.39c2.32,9.9-12.92,27.54-14.29,36.51C-24.08,4.24-0.57,7.65,2.62,13.22
						c0.06,0.11,0.1,0.22,0.15,0.33C1.34,12.65-1.48,11.04-3.77,10.78z"/>
				</g>
				<g>
					<path class="st1" d="M-29.87,37.61c-1.72,0.66-3.46,1.82-4.98,3.04c0.02-0.03,0.03-0.06,0.04-0.09c0.3-0.47,0.63-1.02,0.97-1.6
						c1.14-1.97,2.44-4.53,3.44-7.17c0.98-0.65,2.42-1.85,2.94-3.48c0.5-1.59-0.5-3.69-1.42-5.47c-0.13-0.76-0.34-1.45-0.69-2.06
						c-0.9-1.58-1.85-4.02-2.54-6.51c-0.54-1.96-0.92-3.95-1-5.6c3.55,5.8,10.1,11.3,12.09,15.92
						C-18.39,30.77-25.24,35.84-29.87,37.61z"/>
					<path class="st0" d="M-5.85,34.21c-0.01-0.08-0.17-0.1-1.42,1.29c-1.6,1.78-14.74,12.17-21.85,13.06
						c-4.21,0.52-8.47-3.5-5.73-7.91c1.52-1.21,3.27-2.38,4.98-3.04c4.64-1.77,11.48-6.84,8.83-13.03
						c-1.98-4.63-8.54-10.12-12.09-15.92c-0.13-2.83,0.65-4.62,3.1-3.4c0.04,0.02,0.1,0.05,0.14,0.07
						c-0.68,0.06-1.19,0.38-1.05,1.26c0.32,2.1,18.1,11.63,22.81,15.43c0.28,0.38,0.51,0.73,0.67,1.04
						C-5.4,27.17-5.82,33.74-5.85,34.21z"/>
					<path class="st2" d="M-27.46,28.3c-0.51,1.63-1.95,2.82-2.94,3.48c1.18-3.13,1.94-6.39,1.51-8.95
						C-27.96,24.62-26.96,26.72-27.46,28.3z"/>
				</g>
				<g>
					<path class="st1" d="M18.26,28.34c1.46-3.09,12.15-11.7,14.76-18.4c-0.17,1.35-0.48,2.84-0.89,4.31
						c-0.69,2.49-1.64,4.93-2.54,6.51c-0.35,0.61-0.57,1.31-0.69,2.06c-0.93,1.79-1.93,3.89-1.43,5.48
						c0.52,1.63,1.96,2.82,2.94,3.48c1,2.65,2.3,5.21,3.44,7.18c0.34,0.59,0.67,1.14,0.97,1.6c0.64,1,0.9,1.98,0.9,2.9
						c-0.98-0.85-2.74-1.67-5.76-2.76C24.44,38.71,16.27,32.53,18.26,28.34z"/>
					<path class="st0" d="M29.13,48.56C22.02,47.67,8.89,37.28,7.29,35.5c-1.25-1.39-1.41-1.36-1.42-1.29
						c-0.03-0.48-0.45-7.04,1.6-11.15c0.16-0.31,0.39-0.66,0.67-1.04c4.71-3.79,22.5-13.33,22.81-15.43
						c0.13-0.87-0.37-1.2-1.05-1.26c0.04-0.02,0.09-0.05,0.14-0.07c2.8-1.4,3.42,1.14,2.99,4.68c-2.61,6.7-13.3,15.3-14.76,18.4
						c-1.99,4.19,6.18,10.38,11.7,12.36c3.02,1.09,4.78,1.91,5.76,2.76C35.71,46.61,32.41,48.97,29.13,48.56z"/>
					<path class="st2" d="M27.47,28.3c-0.5-1.59,0.5-3.69,1.43-5.48c-0.43,2.56,0.33,5.82,1.51,8.95
						C29.43,31.13,27.99,29.93,27.47,28.3z"/>
				</g>
				<path class="st3" d="M30.94,6.59c0.13-0.87-0.37-1.2-1.05-1.26C24.54,8.06,11.68,17.31,8.13,22.02
					C12.85,18.23,30.63,8.69,30.94,6.59z"/>
				<path class="st0" d="M-5.86,34.26c0,0,0-0.03,0-0.04C-5.85,34.23-5.86,34.26-5.86,34.26z"/>
				<path class="st3" d="M-30.94,6.59c-0.13-0.87,0.37-1.2,1.05-1.26c5.36,2.72,18.21,11.97,21.76,16.69
					C-12.84,18.23-30.62,8.69-30.94,6.59z"/>
				<path class="st4" d="M-31.24,43.11c0,0-0.5,2.23,1.74,2.48c2.23,0.25,17.36-8.43,17.36-8.43s-11.41,5.45-13.89,5.21
					C-28.51,42.12-30.5,41.38-31.24,43.11z"/>
				<path class="st4" d="M12.68,37.09c0,0,12.13,9.42,18.39,9.42c0.69,0,2.27-3.76-0.35-2.84C27.16,44.91,12.68,37.09,12.68,37.09z"
					/>
				<path class="st2" d="M5.91,31.71c0,0,8.16,5.9,8.68,4.86c0.52-1.04-6.25-4.52-6.25-4.52s5.03,0.87,5.21,0.18
					c0.18-0.7-6.42-1.74-6.42-1.74s6.6-2.6,6.6-3.3c0-0.69-6.25,1.56-6.25,1.56s6.77-7.81,5.9-8.16c-0.87-0.35-6.08,5.56-6.77,6.42
					C5.91,27.89,5.91,31.71,5.91,31.71z"/>
				<path class="st2" d="M-6.24,31.71c0,0-8.16,5.9-8.68,4.86c-0.52-1.04,6.25-4.52,6.25-4.52s-5.03,0.87-5.21,0.18
					c-0.17-0.69,6.42-1.74,6.42-1.74s-6.6-2.6-6.6-3.3c0-0.69,6.25,1.56,6.25,1.56s-6.77-7.81-5.9-8.16
					c0.87-0.35,6.08,5.55,6.77,6.42C-6.24,27.89-6.24,31.71-6.24,31.71z"/>
				<g>
					<path class="st1" d="M7.45,24.08c-0.05,0.62-0.11,1.45-0.2,2.4c-8.14-2.13-13.56-0.99-15.79-0.26
						c-0.07-0.78-0.08-1.51-0.02-2.16C-4.61,23.53,1.46,23.08,7.45,24.08z"/>
					<path class="st2" d="M-8.56,24.06c0.14-1.46,0.66-2.49,1.81-2.59c4.09-0.36,14.39,0,14.22,2.31c-0.01,0.09-0.02,0.2-0.02,0.31
						C1.46,23.08-4.61,23.53-8.56,24.06z"/>
					<path class="st0" d="M7.25,26.48C6.98,29.45,6.5,33.4,5.7,34.43c-1.1,1.42-10.31,1.6-11.55,0.53
						c-0.73-0.63-2.34-5.11-2.68-8.75C-6.31,25.49-0.89,24.35,7.25,26.48z"/>
				</g>
				<path class="st4" d="M-5.72,33.1c0,0,0.87,1.21,4.69,1.21c3.82,0,6.42-1.39,6.42-1.39s-0.35-1.56-2.08-1.04
					c-1.74,0.52-3.65,1.91-5.56,1.04C-4.16,32.05-6.24,31.36-5.72,33.1z"/>
				<path class="st4" d="M-31.84,6.9c0,0,1.88,3.93,11.45,8.71C-20.4,15.61-31.67,11.68-31.84,6.9z"/>
				<path class="st4" d="M17,18.34c0,0,15.54-8.2,15.2-10.93C32.21,7.41,19.05,16.98,17,18.34z"/>
			</g>
		</g>
	</g>
</symbol>
<g id="레이어_2" class="st5">
	<rect x="14.1" y="114.5" class="st6" width="566.93" height="566.93"/>
</g>
<g id="레이어_1" class="st5">
	<g class="st7">
		<rect x="245.48" y="114.5" class="st8" width="335.55" height="96"/>
	</g>
	<g class="st7">
		<path class="st9" d="M281.28,164.35v20.75h11.26v2.77h-14.49v-23.52H281.28z"/>
		<path class="st9" d="M299.09,164.35v23.52h-3.23v-23.52H299.09z"/>
		<path class="st9" d="M308.16,164.35l9.14,15.86c0.24,0.39,0.51,0.89,0.8,1.48c0.29,0.6,0.58,1.25,0.87,1.94v-19.28h3v23.52h-3.72
			l-9.14-15.79c-0.24-0.43-0.51-0.95-0.8-1.53c-0.29-0.59-0.58-1.23-0.87-1.92v19.25h-3v-23.52H308.16z"/>
		<path class="st9" d="M341.96,164.35v2.77h-11.42v7.31h10.73v2.77h-10.73v7.9h11.65v2.77h-14.88v-23.52H341.96z"/>
		<path class="st9" d="M358.21,164.35v23.52h-3.23v-23.52H358.21z"/>
		<path class="st9" d="M380.59,185.23c-1.17,1.13-2.46,1.91-3.85,2.35c-1.39,0.43-2.88,0.65-4.47,0.65c-1.41,0-2.7-0.21-3.85-0.64
			c-1.15-0.42-2.14-1.07-2.97-1.94c-0.83-0.87-1.47-1.95-1.92-3.23c-0.46-1.28-0.68-2.79-0.68-4.54v-3.56c0-1.72,0.23-3.22,0.68-4.5
			c0.46-1.28,1.1-2.36,1.94-3.23c0.84-0.87,1.83-1.52,2.99-1.96c1.15-0.43,2.42-0.65,3.82-0.65c1.63,0,3.06,0.2,4.27,0.6
			s2.38,1.04,3.49,1.91l-1.66,2.64c-1.07-0.87-2.08-1.45-3.05-1.73c-0.97-0.28-1.99-0.42-3.05-0.42c-0.89,0-1.71,0.15-2.46,0.46
			c-0.75,0.3-1.4,0.77-1.96,1.4c-0.55,0.63-0.98,1.44-1.29,2.41c-0.3,0.98-0.46,2.14-0.46,3.49v2.71c0,1.35,0.15,2.51,0.46,3.49
			c0.3,0.98,0.73,1.78,1.29,2.41c0.55,0.63,1.21,1.1,1.96,1.4c0.75,0.3,1.57,0.46,2.46,0.46c1.13,0,2.26-0.17,3.39-0.52
			c1.13-0.35,2.19-1,3.17-1.96L380.59,185.23z"/>
		<path class="st9" d="M393.41,188.23c-1.41,0-2.7-0.21-3.87-0.64c-1.16-0.42-2.17-1.07-3.02-1.94c-0.85-0.87-1.51-1.95-1.97-3.23
			c-0.47-1.28-0.7-2.79-0.7-4.54v-3.56c0-1.72,0.23-3.22,0.7-4.5c0.47-1.28,1.13-2.36,1.97-3.23c0.85-0.87,1.86-1.52,3.03-1.96
			c1.17-0.43,2.46-0.65,3.85-0.65c1.39,0,2.68,0.22,3.85,0.65c1.17,0.44,2.19,1.09,3.03,1.96c0.85,0.87,1.51,1.95,1.97,3.23
			c0.47,1.28,0.7,2.78,0.7,4.5v3.56c0,1.74-0.23,3.25-0.7,4.54c-0.47,1.28-1.13,2.36-1.97,3.23c-0.85,0.87-1.86,1.52-3.03,1.94
			C396.08,188.02,394.8,188.23,393.41,188.23z M393.41,166.93c-0.91,0-1.76,0.15-2.53,0.44c-0.77,0.29-1.44,0.75-1.99,1.37
			c-0.55,0.62-0.99,1.43-1.3,2.41c-0.32,0.99-0.47,2.17-0.47,3.54v2.84c0,1.37,0.16,2.55,0.47,3.54c0.31,0.99,0.75,1.79,1.3,2.41
			c0.55,0.62,1.22,1.08,1.99,1.37c0.77,0.29,1.62,0.44,2.53,0.44c0.91,0,1.76-0.15,2.53-0.44c0.77-0.29,1.44-0.75,1.99-1.37
			c0.55-0.62,0.99-1.42,1.3-2.41c0.32-0.99,0.47-2.17,0.47-3.54v-2.84c0-1.37-0.16-2.55-0.47-3.54c-0.32-0.99-0.75-1.79-1.3-2.41
			c-0.55-0.62-1.22-1.08-1.99-1.37C395.17,167.07,394.32,166.93,393.41,166.93z"/>
		<path class="st9" d="M411.32,164.35l9.14,15.86c0.24,0.39,0.51,0.89,0.8,1.48c0.29,0.6,0.58,1.25,0.87,1.94v-19.28h3v23.52h-3.72
			l-9.14-15.79c-0.24-0.43-0.51-0.95-0.8-1.53c-0.29-0.59-0.58-1.23-0.87-1.92v19.25h-3v-23.52H411.32z"/>
	</g>
	<g class="st7">
		<path class="st9" d="M280.07,154.07v-9.56l-2.63,1.6l-0.48-0.85l3.37-2.08h0.8v10.89H280.07z"/>
		<path class="st9" d="M291.73,144.62c-0.34-0.2-0.71-0.36-1.09-0.48c-0.39-0.12-0.79-0.17-1.22-0.17c-0.51,0-0.95,0.1-1.3,0.31
			c-0.35,0.21-0.64,0.51-0.88,0.9c-0.23,0.39-0.41,0.87-0.53,1.44c-0.12,0.57-0.2,1.22-0.24,1.94c0.08-0.16,0.2-0.33,0.36-0.51
			c0.16-0.18,0.35-0.35,0.57-0.5c0.23-0.15,0.49-0.27,0.79-0.37c0.3-0.1,0.64-0.14,1.03-0.14c0.46,0,0.9,0.08,1.32,0.23
			c0.42,0.15,0.79,0.37,1.1,0.66c0.32,0.29,0.57,0.64,0.75,1.06c0.19,0.42,0.28,0.89,0.28,1.43v0.36c0,0.53-0.09,1.01-0.27,1.44
			c-0.18,0.43-0.43,0.79-0.75,1.1c-0.32,0.3-0.69,0.53-1.13,0.69c-0.44,0.16-0.91,0.24-1.41,0.24c-0.51,0-0.99-0.09-1.44-0.26
			c-0.45-0.18-0.84-0.45-1.17-0.81c-0.33-0.36-0.59-0.82-0.79-1.38c-0.19-0.56-0.29-1.22-0.29-1.97v-0.36
			c0-1.17,0.09-2.16,0.28-2.98c0.19-0.82,0.45-1.48,0.79-1.99c0.34-0.51,0.76-0.89,1.25-1.12c0.49-0.23,1.05-0.35,1.68-0.35
			c0.49,0,0.98,0.07,1.46,0.2c0.48,0.13,0.92,0.31,1.34,0.54L291.73,144.62z M286.58,150.55c0,0.41,0.06,0.79,0.18,1.12
			c0.12,0.33,0.29,0.62,0.51,0.86c0.22,0.24,0.48,0.43,0.79,0.56c0.31,0.13,0.65,0.2,1.02,0.2c0.37,0,0.71-0.06,1.03-0.17
			c0.31-0.12,0.58-0.28,0.81-0.5c0.23-0.22,0.4-0.48,0.53-0.8c0.13-0.32,0.19-0.68,0.19-1.09v-0.23c0-0.4-0.07-0.76-0.21-1.08
			c-0.14-0.32-0.33-0.58-0.56-0.8c-0.23-0.22-0.5-0.38-0.81-0.49c-0.31-0.11-0.63-0.17-0.96-0.17c-0.32,0-0.63,0.06-0.94,0.18
			c-0.3,0.12-0.57,0.29-0.8,0.5c-0.23,0.21-0.42,0.47-0.57,0.76c-0.15,0.3-0.22,0.62-0.22,0.96V150.55z"/>
		<path class="st9" d="M298.48,143.23h1.12v1.15h-1.12V143.23z M298.53,145.93h1.03v8.14h-1.03V145.93z"/>
		<path class="st9" d="M305.01,145.78c0.57,0,1.08,0.07,1.51,0.2c0.43,0.14,0.82,0.33,1.16,0.6l-0.47,0.8
			c-0.38-0.26-0.75-0.44-1.1-0.54s-0.72-0.14-1.1-0.14c-0.72,0-1.29,0.24-1.71,0.72c-0.41,0.48-0.62,1.15-0.62,2v1.04
			c0,0.9,0.21,1.59,0.63,2.07c0.42,0.48,1,0.73,1.72,0.73c0.56,0,1.03-0.08,1.4-0.23c0.37-0.16,0.7-0.34,0.99-0.57l0.48,0.82
			c-0.15,0.11-0.32,0.22-0.5,0.33c-0.18,0.11-0.39,0.21-0.62,0.29c-0.23,0.09-0.49,0.16-0.79,0.21c-0.29,0.06-0.62,0.08-0.98,0.08
			c-1.07,0-1.9-0.32-2.49-0.97c-0.59-0.65-0.89-1.57-0.89-2.76v-1.01c0-0.59,0.08-1.12,0.25-1.58c0.17-0.46,0.4-0.84,0.69-1.15
			c0.29-0.31,0.64-0.54,1.06-0.7C304.04,145.86,304.5,145.78,305.01,145.78z"/>
		<path class="st9" d="M312.56,145.78c1.1,0,1.95,0.32,2.55,0.97c0.6,0.64,0.91,1.56,0.91,2.73v1.01c0,1.18-0.3,2.09-0.91,2.73
			c-0.6,0.64-1.45,0.97-2.55,0.97c-1.1,0-1.95-0.32-2.55-0.97c-0.6-0.64-0.91-1.56-0.91-2.73v-1.01c0-1.19,0.3-2.1,0.91-2.74
			C310.61,146.1,311.46,145.78,312.56,145.78z M312.56,153.29c0.75,0,1.35-0.23,1.77-0.7c0.43-0.47,0.64-1.19,0.64-2.15v-0.89
			c0-0.97-0.21-1.68-0.64-2.15c-0.43-0.47-1.02-0.7-1.77-0.7c-0.76,0-1.35,0.23-1.78,0.7c-0.43,0.47-0.64,1.19-0.64,2.15v0.89
			c0,0.97,0.21,1.68,0.64,2.15C311.21,153.05,311.8,153.29,312.56,153.29z"/>
		<path class="st9" d="M321.56,145.78c0.94,0,1.66,0.25,2.17,0.76c0.51,0.51,0.76,1.19,0.76,2.05v5.48h-1.03v-5.23
			c0-0.29-0.03-0.57-0.09-0.82c-0.06-0.26-0.17-0.48-0.32-0.68c-0.16-0.2-0.37-0.35-0.63-0.46s-0.6-0.17-1-0.17
			c-0.34,0-0.66,0.06-0.94,0.19c-0.29,0.13-0.53,0.29-0.73,0.49c-0.2,0.2-0.36,0.42-0.48,0.66c-0.12,0.24-0.17,0.48-0.17,0.73v5.29
			h-1.03v-8.14h1.01v1.13c0.09-0.15,0.21-0.3,0.36-0.46c0.15-0.16,0.33-0.29,0.54-0.42c0.21-0.12,0.45-0.22,0.71-0.29
			C320.95,145.82,321.24,145.78,321.56,145.78z"/>
		<path class="st9" d="M333.21,153.27c0.67,0,1.17-0.13,1.51-0.39c0.34-0.26,0.51-0.57,0.51-0.92v-0.15c0-0.41-0.17-0.73-0.51-0.94
			c-0.34-0.21-0.9-0.39-1.68-0.54c-0.41-0.08-0.79-0.18-1.12-0.29c-0.33-0.11-0.61-0.25-0.85-0.42c-0.23-0.17-0.41-0.38-0.54-0.61
			c-0.13-0.24-0.2-0.52-0.2-0.85v-0.21c0-0.29,0.06-0.57,0.18-0.83c0.12-0.26,0.3-0.49,0.54-0.69c0.24-0.2,0.55-0.35,0.91-0.47
			c0.37-0.12,0.8-0.17,1.31-0.17c0.62,0,1.16,0.08,1.62,0.23c0.45,0.16,0.85,0.36,1.18,0.61l-0.47,0.77
			c-0.34-0.23-0.69-0.41-1.04-0.53c-0.35-0.12-0.79-0.18-1.31-0.18c-0.61,0-1.08,0.12-1.41,0.37c-0.32,0.25-0.48,0.55-0.48,0.9v0.17
			c0,0.35,0.18,0.63,0.54,0.83c0.36,0.2,0.86,0.36,1.5,0.48c1.01,0.19,1.74,0.46,2.18,0.82c0.45,0.35,0.67,0.86,0.67,1.51v0.23
			c0,0.32-0.08,0.62-0.23,0.89c-0.15,0.27-0.36,0.51-0.63,0.7s-0.58,0.35-0.94,0.45c-0.36,0.11-0.76,0.16-1.19,0.16
			c-0.66,0-1.26-0.09-1.77-0.26c-0.52-0.18-0.97-0.41-1.35-0.69l0.5-0.82c0.37,0.25,0.77,0.46,1.2,0.61
			C332.27,153.2,332.72,153.27,333.21,153.27z"/>
		<path class="st9" d="M344.13,153.27c-0.32,0.23-0.72,0.44-1.21,0.63c-0.48,0.19-1.07,0.29-1.75,0.29c-1.09,0-1.93-0.32-2.54-0.97
			c-0.6-0.65-0.91-1.57-0.91-2.76v-1.01c0-1.16,0.29-2.06,0.88-2.7c0.59-0.64,1.4-0.97,2.42-0.97c1.07,0,1.88,0.33,2.44,0.99
			c0.56,0.66,0.84,1.56,0.84,2.71v0.85h-5.56v0.14c0,0.91,0.22,1.6,0.65,2.09c0.43,0.49,1.03,0.73,1.78,0.73
			c0.54,0,1.02-0.08,1.43-0.24c0.41-0.16,0.77-0.35,1.06-0.56L344.13,153.27z M343.28,149.47v-0.14c0-0.86-0.2-1.51-0.59-1.96
			c-0.39-0.45-0.95-0.68-1.66-0.68c-0.72,0-1.29,0.24-1.68,0.72c-0.4,0.48-0.6,1.12-0.6,1.93v0.14H343.28z"/>
		<path class="st9" d="M346.97,146.81h-1.39v-0.88h1.39v-2.1h1.03v2.1h2.25v0.88h-2.25v4.95c0,0.55,0.09,0.94,0.26,1.16
			c0.18,0.22,0.47,0.33,0.88,0.33c0.4,0,0.79-0.05,1.15-0.15l0.15,0.85c-0.16,0.06-0.38,0.11-0.64,0.14
			c-0.27,0.04-0.51,0.05-0.73,0.05c-0.35,0-0.66-0.04-0.93-0.12c-0.27-0.08-0.49-0.21-0.66-0.39c-0.17-0.18-0.3-0.42-0.38-0.72
			c-0.09-0.3-0.13-0.67-0.13-1.11V146.81z"/>
	</g>
	<g class="st7">
		<g>
			<path class="st10" d="M449.99,173.06c-2.58,0-5.35-1.26-7.26-4.79c-3.9-7.2-2.18-12.32-0.8-14.74c1.8-3.16,4.96-5.29,8.05-5.42
				c6.04-0.25,6.56,6.02,6.57,6.08l-1,0.07c-0.01-0.22-0.42-5.36-5.53-5.15c-2.72,0.11-5.62,2.09-7.23,4.91
				c-1.27,2.23-2.85,6.99,0.81,13.77c2,3.69,5.32,5.11,8.91,3.81c2.98-1.08,5.68-4.08,5.04-7.22l0.98-0.2
				c0.75,3.67-2.3,7.13-5.67,8.36C451.97,172.87,450.99,173.06,449.99,173.06z"/>
		</g>
		<g>
			<path class="st10" d="M483.91,173.06c-1,0-1.98-0.19-2.86-0.51c-3.38-1.23-6.42-4.69-5.68-8.36l0.98,0.2
				c-0.64,3.14,2.06,6.13,5.04,7.22c3.58,1.3,6.91-0.12,8.91-3.81c3.67-6.78,2.08-11.53,0.82-13.77c-1.61-2.83-4.51-4.8-7.23-4.91
				c-5.11-0.22-5.51,4.93-5.53,5.15l-1-0.07c0-0.06,0.53-6.33,6.57-6.08c3.1,0.13,6.26,2.25,8.05,5.42
				c1.37,2.41,3.09,7.54-0.81,14.74C489.27,171.8,486.49,173.06,483.91,173.06z"/>
		</g>
		<g>
			<path class="st10" d="M466.05,194.47h-1v-3.84c-6.22-1.37-8.02-2.74-8.3-6.18c-0.25-3.07,3.8-5.19,4.64-5.59
				c0.1-0.35,0.33-1.92-0.15-8.26c-0.63-8.2-7.07-9.46-7.34-9.51l0.17-0.98c0.08,0.01,7.48,1.43,8.17,10.42
				c0.63,8.28,0.1,8.84-0.11,9.05l-0.15,0.16l-0.11,0.01c-0.59,0.28-4.32,2.18-4.12,4.63c0.2,2.54,1.05,3.9,7.91,5.37l0.4,0.08
				V194.47z"/>
		</g>
		<g>
			<path class="st10" d="M468.87,194.47h-1v-4.64l0.4-0.08c6.85-1.47,7.7-2.83,7.9-5.37c0.19-2.43-3.45-4.3-4.1-4.62l-0.1,0
				l-0.18-0.18c-0.2-0.21-0.74-0.78-0.11-9.05c0.69-8.99,8.09-10.41,8.17-10.42l0.17,0.98c-0.27,0.05-6.72,1.31-7.34,9.51
				c-0.49,6.34-0.25,7.91-0.15,8.26c0.84,0.4,4.89,2.52,4.64,5.59c-0.28,3.45-2.07,4.81-8.3,6.18V194.47z"/>
		</g>
		<g>
			<path class="st10" d="M469.56,179.13h-5.47l0.05-0.54c0.24-2.75,0.09-9.8-1.03-13.44c-1.26-4.11-9.21-7.14-9.29-7.17l0.35-0.94
				c0.35,0.13,8.49,3.22,9.89,7.81c1.09,3.55,1.29,10.16,1.11,13.28h3.3c-0.2-3.23-0.04-9.81,1.03-13.28
				c1.41-4.58,9.55-7.68,9.89-7.81l0.35,0.94c-0.08,0.03-8.03,3.05-9.29,7.17c-1.09,3.56-1.2,10.54-0.95,13.44L469.56,179.13z"/>
		</g>
	</g>
	<g class="st7">
		<g>
			<g>
				<path class="st10" d="M548.34,163.38h-39.38c-1.33,0-2.41-1.08-2.41-2.41v-2.83c0-1.33,1.08-2.41,2.41-2.41h39.38
					c1.33,0,2.41,1.08,2.41,2.41v2.83C550.75,162.3,549.67,163.38,548.34,163.38z M508.96,156.74c-0.78,0-1.41,0.63-1.41,1.41v2.83
					c0,0.78,0.63,1.41,1.41,1.41h39.38c0.78,0,1.41-0.63,1.41-1.41v-2.83c0-0.78-0.63-1.41-1.41-1.41H508.96z"/>
			</g>
			<g>
				<polyline class="st10" points="512.57,158.55 512.57,156.24 513.61,156.24 513.61,162.89 512.57,162.89 512.57,158.55 				"/>
			</g>
			<g>
				<polyline class="st10" points="518.38,158.55 518.38,156.24 519.41,156.24 519.41,162.89 518.38,162.89 518.38,158.55 				"/>
			</g>
			<g>
				<polyline class="st10" points="524.18,158.55 524.18,156.24 525.21,156.24 525.21,162.89 524.18,162.89 524.18,158.55 				"/>
			</g>
			<g>
				<polyline class="st10" points="529.98,158.55 529.98,156.24 531.01,156.24 531.01,162.89 529.98,162.89 529.98,158.55 				"/>
			</g>
			<g>
				<polyline class="st10" points="535.78,158.55 535.78,156.24 536.82,156.24 536.82,162.89 535.78,162.89 535.78,158.55 				"/>
			</g>
			<g>
				<polyline class="st10" points="541.59,158.55 541.59,156.24 542.62,156.24 542.62,162.89 541.59,162.89 541.59,158.55 				"/>
			</g>
			<g>
				<path class="st10" d="M537.32,184.28h-16.53v-18.24h16.53V184.28z M521.79,183.28h14.53v-16.24h-14.53V183.28z"/>
			</g>
		</g>
		<g>
			<g>
				<path class="st10" d="M541.41,192.89H515.9c-3.43,0-6.23-2.79-6.23-6.23v-24.28h37.97v24.28
					C547.64,190.1,544.84,192.89,541.41,192.89z M510.67,163.38v23.28c0,2.88,2.34,5.23,5.23,5.23h25.51c2.88,0,5.23-2.35,5.23-5.23
					v-23.28H510.67z"/>
			</g>
		</g>
		<g>
			<rect x="510.17" y="177.84" class="st10" width="11.12" height="1"/>
		</g>
		<g>
			<rect x="536.68" y="177.84" class="st10" width="10.47" height="1"/>
		</g>
	</g>
	<g class="st7">
		<g>
			<g>
				<path class="st10" d="M164.03,202.68c-1.26-1.4-3.01-1.08-4.43-0.43c-0.5-18.56-12.82-30.79-27.95-30.79
					c-15.09,0-27.39,12.16-27.95,30.63c-1.35-0.53-2.91-0.69-4.06,0.59c-2.25,2.51-1.7,10.97,6.74,14.21
					c5.32,13.52,17.33,24.13,25.26,24.13c8.67,0,20.25-10.56,25.36-24.03C165.71,213.84,166.3,205.22,164.03,202.68z"/>
				<path class="st9" d="M131.64,241.52c-8.53,0-20.48-11.31-25.65-24.24c-3.98-1.59-6.78-4.65-7.69-8.4
					c-0.62-2.57-0.23-5.19,0.96-6.53c0.97-1.08,2.32-1.41,3.96-0.94c0.82-17.68,12.68-30.44,28.42-30.44
					c15.79,0,27.65,12.81,28.43,30.56c1.79-0.62,3.29-0.33,4.33,0.83c1.22,1.36,1.59,4.02,0.94,6.63c-0.96,3.8-3.85,6.86-7.95,8.41
					C152.25,230.72,140.74,241.52,131.64,241.52z M101.85,202.2c-0.75,0-1.35,0.27-1.84,0.82c-0.79,0.89-1.36,3.03-0.73,5.63
					c0.5,2.05,2.1,5.8,7.28,7.78l0.21,0.08l0.08,0.2c5.53,14.03,17.5,23.81,24.8,23.81c8.62,0,20.02-10.85,24.89-23.7l0.08-0.21
					l0.22-0.08c5.33-1.93,7.01-5.71,7.53-7.8c0.66-2.64,0.1-4.82-0.71-5.72c-0.88-0.99-2.18-1.07-3.85-0.31l-0.69,0.31l-0.02-0.75
					c-0.47-17.56-12.02-30.3-27.45-30.3c-15.37,0-26.92,12.68-27.45,30.15l-0.02,0.71l-0.66-0.26
					C102.91,202.32,102.35,202.2,101.85,202.2z"/>
			</g>
		</g>
		<g>
			<path class="st8" d="M83.32,184.93c0.7,1.22,9.43,6.04,7.06,13.99c-3.17,10.6,7.45,27.08,9.36,30.15
				c1.91,3.07,3.93,2.62,5.68,2.94c1.75,0.32-2.84-7.5-3.61-9.53c-0.77-2.02-1.18-16.11-1.18-17.56c0.01-1.45,2.63-2.15,2.63-2.15
				s3.21,6,3.85,7.19c0.65,1.19,3.29,2.17,3.66-2.49c0.37-4.67-13.63-28.64-13.73-29.45"/>
			<path class="st9" d="M105.52,232.52c-0.06,0-0.12-0.01-0.18-0.02c-0.31-0.06-0.63-0.09-0.96-0.12c-1.5-0.15-3.37-0.33-5.06-3.05
				l-0.2-0.33c-10.2-16.32-10.64-25.45-9.21-30.23c1.8-6.03-3.24-10.26-5.66-12.29c-0.73-0.62-1.18-0.99-1.36-1.31l0.87-0.5
				c0.1,0.17,0.62,0.61,1.14,1.04c2.58,2.17,7.96,6.68,5.97,13.34c-1.37,4.59-0.9,13.41,9.1,29.41l0.2,0.33
				c1.43,2.3,2.83,2.43,4.31,2.58c0.29,0.03,0.57,0.06,0.85,0.1c-0.08-0.98-1.7-4.17-2.59-5.94c-0.62-1.22-1.15-2.28-1.38-2.88
				c-0.82-2.15-1.22-16.43-1.21-17.74c0.01-1.78,2.7-2.55,3-2.63l0.38-0.1l0.19,0.35c0,0,3.2,6,3.85,7.18
				c0.24,0.43,0.84,0.82,1.36,0.71c0.73-0.16,1.23-1.25,1.37-3c0.27-3.33-7.58-17.8-11.36-24.75c-2.05-3.78-2.34-4.34-2.37-4.6
				l0.99-0.12c0.08,0.23,1.09,2.1,2.26,4.25c4.11,7.58,11.76,21.68,11.47,25.31c-0.23,2.89-1.3,3.72-2.15,3.9
				c-1.04,0.22-2.03-0.45-2.44-1.2c-0.55-1.01-2.95-5.5-3.66-6.83c-0.73,0.26-1.88,0.83-1.89,1.55c-0.01,1.7,0.43,15.5,1.14,17.38
				c0.21,0.55,0.73,1.59,1.34,2.78c2.34,4.62,3.07,6.39,2.52,7.13C106,232.41,105.78,232.52,105.52,232.52z"/>
		</g>
		<g>
			<path class="st8" d="M180.12,184.93c-0.7,1.22-9.43,6.04-7.06,13.99c3.17,10.6-7.45,27.08-9.36,30.15
				c-1.91,3.07-3.93,2.62-5.68,2.94c-1.75,0.32,2.84-7.5,3.61-9.53c0.77-2.02,1.18-16.11,1.18-17.56c-0.01-1.45-2.63-2.15-2.63-2.15
				s-3.2,6-3.85,7.19c-0.65,1.19-3.29,2.17-3.66-2.49c-0.37-4.67,13.63-28.64,13.73-29.45"/>
			<path class="st9" d="M157.91,232.52c-0.26,0-0.48-0.1-0.62-0.3c-0.55-0.73,0.18-2.51,2.52-7.13c0.6-1.2,1.13-2.23,1.34-2.78
				c0.71-1.88,1.15-15.68,1.14-17.38c0-0.69-1.1-1.27-1.88-1.55c-0.71,1.32-3.11,5.82-3.66,6.83c-0.41,0.75-1.41,1.43-2.44,1.2
				c-0.86-0.18-1.92-1.01-2.16-3.9c-0.29-3.63,7.36-17.73,11.47-25.31c1.17-2.15,2.18-4.02,2.27-4.3l0.98,0.17
				c-0.03,0.26-0.32,0.82-2.37,4.6c-3.77,6.95-11.62,21.42-11.36,24.75c0.14,1.75,0.64,2.85,1.37,3c0.52,0.11,1.12-0.28,1.36-0.71
				c0.65-1.19,3.85-7.18,3.85-7.18l0.19-0.35l0.38,0.1c0.31,0.08,2.99,0.84,3,2.63c0.01,1.3-0.39,15.59-1.21,17.74
				c-0.23,0.6-0.76,1.66-1.38,2.88c-0.9,1.77-2.51,4.97-2.59,5.95c0.28-0.04,0.56-0.07,0.85-0.1c1.48-0.15,2.88-0.28,4.31-2.58
				l0.2-0.33c10.01-16,10.47-24.83,9.1-29.41c-1.99-6.66,3.39-11.17,5.97-13.34c0.51-0.43,1.04-0.87,1.14-1.04l0.87,0.5
				c-0.18,0.32-0.63,0.7-1.36,1.31c-2.42,2.03-7.46,6.26-5.66,12.29c1.43,4.78,0.99,13.91-9.21,30.23l-0.2,0.33
				c-1.69,2.72-3.56,2.9-5.06,3.05c-0.33,0.03-0.65,0.06-0.96,0.12C158.04,232.51,157.97,232.52,157.91,232.52z"/>
		</g>
		<g>
			<path class="st10" d="M135.65,197.05c0,0,8.8-3.22,13.04-2.37c4.23,0.85,4.96,2.37,4.96,2.37"/>
			<path class="st9" d="M135.82,197.52l-0.34-0.94c0.36-0.13,8.98-3.26,13.31-2.39c4.35,0.87,5.23,2.47,5.31,2.65l-0.9,0.43
				c0,0-0.76-1.33-4.6-2.1C144.54,194.36,135.91,197.49,135.82,197.52z"/>
		</g>
		<g>
			<path class="st10" d="M126.17,197.05c0,0-8.8-3.22-13.04-2.37c-4.23,0.85-4.96,2.37-4.96,2.37"/>
			<path class="st9" d="M125.99,197.52c-0.09-0.03-8.72-3.16-12.77-2.35c-3.84,0.77-4.6,2.09-4.61,2.11l-0.9-0.44
				c0.09-0.18,0.96-1.78,5.31-2.65c4.32-0.86,12.94,2.26,13.31,2.39L125.99,197.52z"/>
		</g>
		<g>
			<path class="st10" d="M112.16,204.28c0,0,5.93,0.9,11.69,0"/>
			<path class="st9" d="M118.24,205.18c-3.4,0-5.99-0.38-6.15-0.41l0.15-0.99c0.06,0.01,5.93,0.88,11.53,0l0.15,0.99
				C121.96,205.08,120,205.18,118.24,205.18z"/>
		</g>
		<g>
			<path class="st10" d="M138.8,204.28c0,0,5.93,0.9,11.69,0"/>
			<path class="st9" d="M144.88,205.18c-3.4,0-5.99-0.38-6.15-0.41l0.15-0.99c0.06,0.01,5.93,0.88,11.53,0l0.15,0.99
				C148.6,205.08,146.63,205.18,144.88,205.18z"/>
		</g>
	</g>
	<g class="st7">
		<g>
			<g>
				<path class="st10" d="M265.94,307.46c-1.35-1.51-3.25-1.16-4.78-0.47c-0.54-20.01-13.82-33.19-30.14-33.19
					c-16.27,0-29.52,13.11-30.13,33.02c-1.45-0.57-3.14-0.75-4.37,0.64c-2.42,2.7-1.83,11.83,7.26,15.32
					c5.74,14.57,18.68,26.02,27.24,26.02c9.35,0,21.83-11.38,27.34-25.9C267.76,319.49,268.39,310.19,265.94,307.46z"/>
				<path class="st9" d="M231.03,349.3c-9.19,0-22.06-12.19-27.62-26.13c-4.29-1.71-7.3-5-8.28-9.04c-0.67-2.76-0.25-5.57,1.03-7
					c1.04-1.16,2.5-1.51,4.27-0.99c0.87-19.07,13.65-32.83,30.6-32.83c17.01,0,29.79,13.82,30.61,32.96
					c1.94-0.69,3.55-0.39,4.68,0.87c1.3,1.46,1.7,4.31,1,7.11c-1.03,4.09-4.14,7.38-8.56,9.05
					C253.23,337.65,240.83,349.3,231.03,349.3z M198.91,306.9c-0.82,0-1.48,0.29-2.01,0.89c-1.05,1.18-1.38,3.69-0.8,6.1
					c0.54,2.22,2.27,6.27,7.87,8.42l0.21,0.08l0.08,0.21c5.96,15.14,18.9,25.7,26.77,25.7c9.3,0,21.61-11.71,26.87-25.58l0.08-0.21
					l0.22-0.08c5.77-2.09,7.58-6.18,8.15-8.43c0.72-2.86,0.1-5.22-0.77-6.2c-0.96-1.08-2.38-1.17-4.2-0.35l-0.69,0.31l-0.02-0.75
					c-0.51-18.95-12.97-32.71-29.64-32.71c-16.6,0-29.06,13.68-29.63,32.54l-0.02,0.71l-0.66-0.26
					C200.06,307.03,199.45,306.9,198.91,306.9z"/>
			</g>
		</g>
		<g>
			<path class="st8" d="M257.36,311.3c0,17.57-11.69,34.27-26.12,34.27c-14.43,0-26.12-16.7-26.12-34.27
				c0-17.57,11.7-31.81,26.12-31.81C245.66,279.49,257.36,293.73,257.36,311.3z"/>
			<path class="st9" d="M231.23,346.07c-14.18,0-26.62-16.25-26.62-34.77c0-17.82,11.94-32.31,26.62-32.31
				c14.68,0,26.62,14.49,26.62,32.31C257.86,329.82,245.42,346.07,231.23,346.07z M231.23,279.99c-14.13,0-25.62,14.05-25.62,31.31
				c0,17.99,11.97,33.77,25.62,33.77c13.65,0,25.62-15.78,25.62-33.77C256.86,294.03,245.36,279.99,231.23,279.99z"/>
		</g>
		<g>
			<path class="st10" d="M209.3,310.15c0,2.62,3.94,4.75,8.79,4.75c4.86,0,8.79-2.13,8.79-4.75c0-2.62-3.94-4.75-8.79-4.75
				C213.24,305.4,209.3,307.53,209.3,310.15z"/>
			<path class="st9" d="M218.1,315.4c-5.21,0-9.29-2.31-9.29-5.25c0-2.94,4.08-5.25,9.29-5.25c5.21,0,9.29,2.31,9.29,5.25
				C227.39,313.09,223.31,315.4,218.1,315.4z M218.1,305.9c-4.5,0-8.29,1.95-8.29,4.25s3.8,4.25,8.29,4.25
				c4.5,0,8.29-1.95,8.29-4.25S222.59,305.9,218.1,305.9z"/>
		</g>
		<g>
			<path class="st10" d="M225.59,321.54c0,0.99,2.52,0,5.64,0c3.11,0,5.64,0.99,5.64,0c0-0.99-2.53-1.79-5.64-1.79
				C228.12,319.75,225.59,320.55,225.59,321.54z"/>
			<path class="st9" d="M236.1,322.48c-0.43,0-0.99-0.08-1.64-0.16c-0.91-0.12-2.03-0.28-3.23-0.28c-1.2,0-2.32,0.15-3.23,0.28
				c-0.65,0.09-1.21,0.16-1.64,0.16l0,0c-1.1,0-1.27-0.59-1.27-0.94c0-1.58,3.18-2.29,6.14-2.29c2.96,0,6.14,0.72,6.14,2.29
				C237.37,321.89,237.21,322.48,236.1,322.48z M231.23,321.04c1.26,0,2.43,0.16,3.36,0.29c0.81,0.11,1.54,0.18,1.75,0.14
				c-0.21-0.42-1.94-1.22-5.12-1.22c-3.18,0-4.92,0.8-5.12,1.22c0.05,0.01,0.13,0.02,0.25,0.02l0,0c0.36,0,0.89-0.07,1.5-0.16
				C228.8,321.2,229.97,321.04,231.23,321.04z"/>
		</g>
		<g>
			<path class="st10" d="M220.78,333.3c0,1.55,4.97,4.34,11.11,4.34c6.14,0,11.11-2.8,11.11-4.34c0-1.55-4.97-1.25-11.11-1.25
				C225.76,332.05,220.78,331.76,220.78,333.3z"/>
			<path class="st9" d="M231.89,338.15c-5.98,0-11.61-2.73-11.61-4.84c0-1.93,3.87-1.8,9.07-1.76c1.63,0.01,3.45,0.01,5.09,0
				c5.19-0.04,9.07-0.16,9.07,1.76C243.5,335.42,237.87,338.15,231.89,338.15z M227.18,332.53c-1.46,0-5.9,0-5.9,0.77
				c0,1.11,4.59,3.84,10.61,3.84c6.02,0,10.61-2.73,10.61-3.84c0-0.77-4.44-0.77-5.9-0.77c-0.69,0-1.41,0-2.16,0.01
				c-1.64,0.01-3.46,0.01-5.1,0C228.59,332.53,227.87,332.53,227.18,332.53z"/>
		</g>
		<g>
			<ellipse class="st10" cx="244.9" cy="310.15" rx="8.79" ry="4.75"/>
			<path class="st9" d="M244.9,315.4c-5.21,0-9.29-2.31-9.29-5.25c0-2.94,4.08-5.25,9.29-5.25c5.21,0,9.29,2.31,9.29,5.25
				C254.19,313.09,250.11,315.4,244.9,315.4z M244.9,305.9c-4.5,0-8.29,1.95-8.29,4.25s3.8,4.25,8.29,4.25s8.29-1.95,8.29-4.25
				S249.4,305.9,244.9,305.9z"/>
		</g>
	</g>
	<g class="st7">
		<g>
			<g>
				<g>
					<path class="st10" d="M387.1,281.69c-1.23-1.37-2.95-1.06-4.34-0.42c-0.49-18.15-12.54-30.11-27.34-30.11
						c-14.76,0-26.79,11.9-27.34,29.96c-1.32-0.52-2.85-0.68-3.97,0.58c-2.2,2.45-1.66,10.73,6.59,13.9
						c5.21,13.22,16.95,23.6,24.71,23.6c8.48,0,19.8-10.33,24.8-23.5C388.74,292.61,389.32,284.17,387.1,281.69z"/>
					<path class="st9" d="M355.42,319.69c-8.35,0-20.04-11.06-25.1-23.72c-3.9-1.56-6.63-4.55-7.52-8.22
						c-0.61-2.52-0.23-5.09,0.94-6.4c0.95-1.06,2.27-1.38,3.87-0.93c0.81-17.29,12.42-29.77,27.81-29.77
						c15.44,0,27.05,12.52,27.82,29.89c1.75-0.6,3.21-0.32,4.23,0.82c1.19,1.33,1.56,3.94,0.92,6.49c-0.94,3.72-3.77,6.71-7.78,8.23
						C375.58,309.12,364.32,319.69,355.42,319.69z M326.28,281.23c-0.73,0-1.31,0.26-1.79,0.79c-0.77,0.87-1.33,2.95-0.71,5.5
						c0.48,2.01,2.05,5.66,7.11,7.61l0.21,0.08l0.08,0.2c5.41,13.72,17.12,23.29,24.25,23.29c8.42,0,19.57-10.61,24.34-23.18
						l0.08-0.21l0.22-0.08c5.21-1.89,6.85-5.58,7.36-7.62c0.65-2.58,0.1-4.7-0.69-5.58c-0.86-0.96-2.12-1.05-3.75-0.3l-0.69,0.31
						l-0.02-0.75c-0.46-17.17-11.75-29.63-26.84-29.63c-15.03,0-26.32,12.4-26.84,29.48l-0.02,0.71l-0.66-0.26
						C327.31,281.35,326.77,281.23,326.28,281.23z"/>
				</g>
			</g>
			<g>
				<path class="st10" d="M359.34,276.18c0,0,8.61-3.15,12.75-2.32c4.14,0.83,4.85,2.32,4.85,2.32"/>
				<path class="st9" d="M359.51,276.65l-0.34-0.94c0.36-0.13,8.8-3.19,13.02-2.34c4.26,0.85,5.12,2.42,5.2,2.59l-0.9,0.43
					c0,0-0.75-1.29-4.5-2.04C368.03,273.56,359.59,276.62,359.51,276.65z"/>
			</g>
			<g>
				<path class="st10" d="M350.06,276.18c0,0-8.61-3.15-12.75-2.32c-4.14,0.83-4.85,2.32-4.85,2.32"/>
				<path class="st9" d="M349.89,276.65c-0.09-0.03-8.52-3.09-12.48-2.3c-3.75,0.75-4.49,2.04-4.5,2.06l-0.9-0.44
					c0.08-0.18,0.94-1.74,5.2-2.59c4.22-0.84,12.66,2.21,13.02,2.34L349.89,276.65z"/>
			</g>
			<g>
				<path class="st10" d="M336.37,283.25c0,0,5.8,0.88,11.43,0"/>
				<path class="st9" d="M342.31,284.15c-3.33,0-5.86-0.38-6.02-0.4l0.15-0.99c0.06,0.01,5.8,0.86,11.28,0l0.15,0.99
					C345.95,284.05,344.03,284.15,342.31,284.15z"/>
			</g>
			<g>
				<path class="st10" d="M362.42,283.25c0,0,5.8,0.88,11.43,0"/>
				<path class="st9" d="M368.37,284.15c-3.33,0-5.86-0.38-6.02-0.4l0.15-0.99c0.06,0.01,5.79,0.86,11.28,0l0.15,0.99
					C372.01,284.05,370.08,284.15,368.37,284.15z"/>
			</g>
		</g>
		<g>
			<g>
				<g>
					<path class="st10" d="M425.45,286.2c0.2,0.84-0.32,1.69-1.16,1.89l-20.41,4.88c-0.84,0.2-1.69-0.32-1.89-1.16l-1.45-6.05
						c-0.2-0.84,0.32-1.69,1.16-1.89l20.41-4.88c0.84-0.2,1.69,0.32,1.89,1.16L425.45,286.2z"/>
					<path class="st9" d="M403.52,293.52c-0.96,0-1.79-0.65-2.01-1.59l-1.45-6.05c-0.13-0.54-0.04-1.09,0.25-1.56
						c0.29-0.47,0.75-0.8,1.28-0.93l20.41-4.88c1.1-0.26,2.23,0.44,2.49,1.53l1.45,6.05c0.26,1.11-0.42,2.23-1.53,2.49l-20.41,4.88
						C403.85,293.5,403.68,293.52,403.52,293.52z M422.48,279.45c-0.08,0-0.17,0.01-0.25,0.03l-20.41,4.88
						c-0.28,0.07-0.51,0.24-0.66,0.48c-0.15,0.24-0.19,0.53-0.13,0.8l1.45,6.05c0.13,0.56,0.71,0.93,1.29,0.79l20.41-4.88
						c0.57-0.14,0.93-0.71,0.79-1.29l-1.45-6.05C423.41,279.79,422.98,279.45,422.48,279.45z"/>
				</g>
				<g>
					<path class="st10" d="M388.29,295.81l-1.64-6.84c-0.25-1.05-1.3-1.69-2.35-1.44l-2.54,0.61c-1.05,0.25-1.63,1.55-1.63,1.55
						l-3.44,2.34l1.26,5.28l4.2,0.81c0,0,1.11,0.89,2.16,0.64l2.54-0.61C387.9,297.91,388.54,296.86,388.29,295.81z"/>
					<path class="st9" d="M383.93,299.31c-0.89,0-1.7-0.52-1.98-0.72l-4.4-0.85l-1.42-5.93l3.62-2.46c0.2-0.38,0.85-1.44,1.91-1.7
						l2.54-0.61c1.3-0.31,2.64,0.52,2.95,1.81l1.64,6.84c0.15,0.64,0.05,1.29-0.3,1.85c-0.34,0.56-0.88,0.95-1.52,1.1l-2.54,0.61
						C384.27,299.29,384.1,299.31,383.93,299.31z M378.36,296.88l4,0.78l0.1,0.08c0.01,0.01,1,0.72,1.73,0.55l2.54-0.61
						c0.78-0.19,1.26-0.97,1.07-1.75l-1.64-6.84c-0.18-0.77-0.98-1.26-1.75-1.07l-2.54,0.61c-0.79,0.19-1.29,1.26-1.3,1.27
						l-0.06,0.13l-3.27,2.23L378.36,296.88z"/>
				</g>
				<g>
					<path class="st10" d="M416.06,289.53c0.25,1.05-0.39,2.1-1.44,2.35l-25.37,6.07c-1.05,0.25-2.1-0.4-2.35-1.44l-1.8-7.52
						c-0.25-1.05,0.4-2.1,1.44-2.35l25.37-6.07c1.05-0.25,2.1,0.4,2.35,1.44L416.06,289.53z"/>
					<path class="st9" d="M388.8,298.5c-1.14,0-2.12-0.77-2.38-1.88l-1.8-7.52c-0.15-0.64-0.05-1.29,0.29-1.85
						c0.34-0.56,0.88-0.95,1.52-1.1l25.37-6.07c1.31-0.31,2.64,0.52,2.95,1.81l1.8,7.52c0.15,0.64,0.05,1.29-0.29,1.85
						c-0.34,0.56-0.88,0.95-1.52,1.1l-25.37,6.07C389.18,298.48,388.99,298.5,388.8,298.5z M412.37,281.01
						c-0.11,0-0.23,0.01-0.34,0.04l-25.37,6.07c-0.38,0.09-0.7,0.32-0.9,0.65c-0.2,0.33-0.26,0.72-0.17,1.1l1.8,7.52
						c0.18,0.77,0.97,1.26,1.75,1.07l25.37-6.07c0.38-0.09,0.7-0.32,0.9-0.65c0.2-0.33,0.26-0.72,0.17-1.1l-1.8-7.52
						C413.62,281.47,413.04,281.01,412.37,281.01z"/>
				</g>
				<g>
					
						<rect x="364.92" y="295.64" transform="matrix(0.9726 -0.2324 0.2324 0.9726 -58.6673 94.3274)" class="st9" width="12.14" height="1"/>
				</g>
				<g>
					<line class="st10" x1="394.3" y1="284.78" x2="395.32" y2="289.03"/>
					
						<rect x="394.31" y="284.72" transform="matrix(0.9726 -0.2325 0.2325 0.9726 -55.887 99.6577)" class="st9" width="1" height="4.36"/>
				</g>
				<g>
					<line class="st10" x1="398.15" y1="283.86" x2="399.16" y2="288.11"/>
					
						<rect x="398.15" y="283.8" transform="matrix(0.9725 -0.2327 0.2327 0.9725 -55.604 100.6159)" class="st9" width="1" height="4.36"/>
				</g>
				<g>
					<line class="st10" x1="401.99" y1="282.94" x2="403.01" y2="287.19"/>
					
						<rect x="402" y="282.88" transform="matrix(0.9725 -0.2327 0.2327 0.9725 -55.2842 101.4853)" class="st9" width="1" height="4.36"/>
				</g>
			</g>
			<g>
				<path class="st10" d="M420.33,292.7c0.14,0.66-0.29,1.31-0.95,1.45l-3.76,0.78c-0.66,0.14-1.31-0.29-1.45-0.95l-3.32-16.02
					c-0.14-0.66,0.29-1.31,0.95-1.45l3.76-0.78c0.66-0.14,1.31,0.29,1.45,0.95L420.33,292.7z"/>
				<path class="st9" d="M415.37,295.45c-0.81,0-1.52-0.58-1.69-1.37l-3.32-16.02c-0.19-0.93,0.41-1.84,1.34-2.04l3.76-0.78
					c0.92-0.19,1.85,0.43,2.04,1.34l3.32,16.02c0.19,0.93-0.41,1.84-1.34,2.04l-3.76,0.78
					C415.61,295.44,415.49,295.45,415.37,295.45z M415.81,276.21c-0.05,0-0.1,0-0.15,0.02L411.9,277c-0.39,0.08-0.64,0.46-0.56,0.86
					l3.32,16.02c0.08,0.38,0.46,0.65,0.86,0.56l3.76-0.78c0.39-0.08,0.64-0.47,0.56-0.86l-3.32-16.02
					C416.45,276.45,416.15,276.21,415.81,276.21z"/>
			</g>
		</g>
	</g>
	<g class="st7">
		<g>
			<path class="st9" d="M485.88,320.09l-0.4-0.05c-2.69-0.32-10.86-1.29-12.4-9.9c-0.98-5.5,1.71-10.07,4.09-14.12
				c1.4-2.38,2.72-4.63,2.98-6.64c0.18-1.4-0.12-2.55-0.89-3.43c-1.74-1.98-5.34-2.01-5.38-2.01h-23.99v-1h23.99
				c0.17,0,4.08,0.03,6.13,2.35c0.97,1.1,1.35,2.52,1.14,4.22c-0.28,2.22-1.66,4.55-3.11,7.03c-2.29,3.89-4.88,8.3-3.97,13.43
				c1.41,7.89,8.76,8.76,11.53,9.09l0.28,0.03l0.28-0.03c2.77-0.33,10.12-1.2,11.53-9.09c0.91-5.1-1.68-9.5-3.96-13.37
				c-1.47-2.49-2.86-4.85-3.12-7.09c-0.2-1.71,0.2-3.13,1.18-4.23c2.05-2.31,5.92-2.33,6.08-2.33h23.99v1h-23.99
				c-0.04,0-3.59,0.03-5.34,2c-0.78,0.88-1.09,2.04-0.93,3.45c0.24,2.03,1.57,4.3,2.99,6.7c2.37,4.02,5.06,8.59,4.08,14.06
				c-1.54,8.62-9.71,9.59-12.4,9.9L485.88,320.09z"/>
		</g>
		<g>
			<path class="st8" d="M482.92,297.59c-1.4,3.26-4.7,6.74-4.54,10.45c0.19,4.48,6.65,6.68,10.41,5.23
				c6.57-2.53,3.27-12.22,1.3-16.68c0,0-7.16-16.16,1.34-27.91c8.5-11.76,14.56-17.59,14.56-17.59s-8.49-1.07-18.27,13.86
				c-3.14,4.8-5.42,11.94-4.96,17.69c0.38,4.74,2,9.79,0.35,14.47C483.05,297.28,482.99,297.43,482.92,297.59z"/>
			<path class="st9" d="M486.2,314.22L486.2,314.22c-3.87,0-8.15-2.35-8.32-6.15c-0.11-2.64,1.37-5.08,2.8-7.43
				c0.68-1.13,1.33-2.19,1.78-3.24c0.06-0.15,0.12-0.3,0.17-0.44c1.16-3.3,0.63-6.88,0.12-10.34c-0.19-1.29-0.39-2.63-0.49-3.92
				c-0.45-5.49,1.58-12.73,5.04-18.01c8.57-13.09,16.18-14.11,18.3-14.11c0.29,0,0.45,0.02,0.45,0.02l1.03,0.14l-0.74,0.72
				c-0.06,0.06-6.13,5.95-14.5,17.52c-8.19,11.33-1.57,26.76-1.29,27.42c1.5,3.39,3.76,9.69,2.01,13.91
				c-0.67,1.62-1.88,2.78-3.58,3.44C488.16,314.06,487.22,314.22,486.2,314.22z M504.75,251.64c-2.54,0.32-9.21,2.28-16.62,13.6
				c-3.35,5.11-5.31,12.09-4.88,17.38c0.1,1.26,0.3,2.58,0.49,3.86c0.53,3.58,1.08,7.28-0.17,10.82c-0.06,0.17-0.13,0.33-0.2,0.5
				c-0.48,1.11-1.14,2.2-1.84,3.36c-1.36,2.23-2.76,4.54-2.66,6.87c0.14,3.21,3.9,5.19,7.32,5.19c0.89,0,1.72-0.14,2.42-0.41
				c1.46-0.56,2.45-1.51,3.02-2.89c1.66-4.02-0.84-10.51-2-13.12c-0.3-0.68-7.13-16.62,1.39-28.41
				C497.59,259.31,502.76,253.7,504.75,251.64z"/>
		</g>
	</g>
	<g class="st7">
		<g>
			<g>
				<g>
					<path class="st10" d="M515.07,604.93c-1.23-1.37-2.95-1.06-4.34-0.42c-0.49-18.15-12.54-30.11-27.34-30.11
						c-14.76,0-26.79,11.9-27.34,29.96c-1.32-0.52-2.85-0.67-3.97,0.58c-2.2,2.45-1.66,10.73,6.59,13.9
						c5.21,13.22,16.95,23.6,24.71,23.6c8.48,0,19.8-10.33,24.8-23.5C516.72,615.84,517.29,607.41,515.07,604.93z"/>
					<path class="st9" d="M483.4,642.93c-8.35,0-20.04-11.06-25.1-23.72c-3.9-1.56-6.63-4.55-7.52-8.22
						c-0.61-2.52-0.23-5.09,0.94-6.4c0.95-1.06,2.27-1.38,3.87-0.93c0.81-17.29,12.42-29.77,27.81-29.77
						c15.44,0,27.05,12.52,27.82,29.89c1.75-0.6,3.21-0.32,4.23,0.82c1.19,1.33,1.56,3.94,0.92,6.49c-0.94,3.72-3.77,6.71-7.78,8.23
						C503.56,632.36,492.3,642.93,483.4,642.93z M454.26,604.46c-0.73,0-1.31,0.26-1.79,0.79c-0.77,0.86-1.33,2.95-0.71,5.49
						c0.48,2.01,2.05,5.66,7.11,7.61l0.21,0.08l0.08,0.2c5.41,13.72,17.12,23.29,24.25,23.29c8.42,0,19.57-10.61,24.34-23.18
						l0.08-0.21l0.22-0.08c5.21-1.89,6.85-5.58,7.36-7.62c0.65-2.58,0.1-4.7-0.69-5.58c-0.86-0.96-2.13-1.05-3.75-0.3l-0.69,0.31
						l-0.02-0.75c-0.46-17.17-11.75-29.63-26.84-29.63c-15.03,0-26.32,12.4-26.84,29.48l-0.02,0.71l-0.66-0.26
						C455.29,604.58,454.74,604.46,454.26,604.46z"/>
				</g>
			</g>
			<g>
				<path class="st10" d="M487.31,599.42c0,0,8.61-3.15,12.75-2.32c4.14,0.83,4.85,2.32,4.85,2.32"/>
				<path class="st9" d="M487.49,599.89l-0.34-0.94c0.36-0.13,8.79-3.19,13.02-2.34c4.26,0.85,5.12,2.42,5.2,2.59l-0.9,0.43
					c0,0-0.75-1.29-4.5-2.04C496.01,596.8,487.57,599.86,487.49,599.89z"/>
			</g>
			<g>
				<path class="st10" d="M478.04,599.42c0,0-8.61-3.15-12.75-2.32c-4.14,0.83-4.85,2.32-4.85,2.32"/>
				<path class="st9" d="M477.87,599.89c-0.08-0.03-8.54-3.09-12.48-2.3c-3.75,0.75-4.49,2.04-4.5,2.06l-0.9-0.44
					c0.08-0.18,0.94-1.74,5.2-2.59c4.22-0.85,12.67,2.21,13.02,2.34L477.87,599.89z"/>
			</g>
			<g>
				<path class="st10" d="M464.34,606.49c0,0,5.8,0.88,11.43,0"/>
				<path class="st9" d="M470.29,607.38c-3.33,0-5.86-0.38-6.02-0.4l0.15-0.99c0.06,0.01,5.8,0.86,11.28,0l0.15,0.99
					C473.93,607.28,472,607.38,470.29,607.38z"/>
			</g>
			<g>
				<path class="st10" d="M490.4,606.49c0,0,5.8,0.88,11.43,0"/>
				<path class="st9" d="M496.34,607.38c-3.33,0-5.86-0.38-6.02-0.4l0.15-0.99c0.06,0.01,5.79,0.86,11.28,0l0.15,0.99
					C499.99,607.28,498.06,607.38,496.34,607.38z"/>
			</g>
		</g>
		<g>
			<path class="st8" d="M438.4,572.36c0,0,1.46,7.03-5.82,9.52c0,0,7.29-1.48,12.01,8.04c0,0-2.52-10.03,4.13-12.52
				C448.72,577.39,441.52,578.43,438.4,572.36z"/>
			<path class="st9" d="M444.59,590.42c-0.18,0-0.36-0.1-0.45-0.28c-3.51-7.08-8.49-7.84-10.46-7.84c-0.62,0-1,0.07-1,0.07
				c-0.26,0.05-0.51-0.11-0.58-0.36c-0.07-0.25,0.07-0.52,0.32-0.6c6.76-2.32,5.55-8.68,5.49-8.95c-0.05-0.25,0.09-0.49,0.32-0.57
				c0.24-0.08,0.5,0.02,0.61,0.24c2.16,4.21,6.36,4.83,8.66,4.83c0.69,0,1.14-0.06,1.14-0.06c0.25-0.03,0.49,0.12,0.55,0.37
				c0.06,0.25-0.07,0.5-0.31,0.59c-6.16,2.31-3.84,11.84-3.82,11.93c0.06,0.25-0.07,0.5-0.31,0.59
				C444.71,590.41,444.65,590.42,444.59,590.42z M434.87,581.37c2.24,0.28,5.84,1.5,8.84,6c-0.23-2.8-0.01-7.12,3-9.44
				c-2.01-0.13-5.4-0.81-7.71-3.73C438.91,576.23,438.19,579.38,434.87,581.37z"/>
		</g>
		<g>
			<path class="st8" d="M464.05,549.12c0,0-1.39,7.04-9.07,6.5c0,0,7.29,1.47,7.94,12.08c0,0,1.58-10.22,8.68-9.93
				C471.59,557.78,464.56,555.93,464.05,549.12z"/>
			<path class="st9" d="M462.91,568.21c-0.01,0-0.02,0-0.02,0c-0.25-0.01-0.46-0.21-0.48-0.47c-0.61-10.07-7.25-11.56-7.54-11.62
				c-0.26-0.05-0.43-0.3-0.39-0.56c0.04-0.26,0.25-0.45,0.53-0.43c7.16,0.49,8.53-6.04,8.54-6.1c0.05-0.25,0.25-0.43,0.52-0.4
				c0.25,0.01,0.45,0.21,0.47,0.46c0.48,6.38,7.11,8.19,7.17,8.21c0.25,0.06,0.41,0.3,0.37,0.56c-0.04,0.25-0.26,0.42-0.51,0.43
				c-6.55-0.27-8.15,9.41-8.16,9.5C463.37,568.03,463.16,568.21,462.91,568.21z M457.26,556.06c2,1.16,4.81,3.68,5.82,8.92
				c0.87-2.68,2.74-6.54,6.46-7.49c-1.91-0.95-4.68-2.9-5.66-6.42C463.01,552.9,461.11,555.52,457.26,556.06z"/>
		</g>
	</g>
	<g class="st7">
		<g>
			<path class="st10" d="M109.72,387.57c3.71-3.29,7.32-6.67,10.87-10.13c2.11-2.05,4.58-4.12,6.29-6.53
				c2.42-3.41,3.39-7.95,6.59-10.78c3.29-2.91,10.2-3.67,13.08,0.37c5.8,8.15-8.46,14.8-12.49,19.75
				c-1.83,2.25-9.99,9.29-15.06,13.23C113.95,397.43,109.72,387.57,109.72,387.57z"/>
			<path class="st9" d="M116.57,394.92c-4.19,0-7.18-6.86-7.3-7.15l-0.14-0.33l0.27-0.24c3.45-3.06,7-6.37,10.85-10.11
				c0.49-0.48,1-0.95,1.51-1.43c1.69-1.58,3.43-3.22,4.72-5.03c0.93-1.31,1.67-2.84,2.38-4.33c1.12-2.34,2.28-4.76,4.29-6.54
				c1.78-1.57,4.55-2.55,7.24-2.55c2.87,0,5.21,1.07,6.59,3c4.51,6.33-2.25,11.72-7.68,16.05c-1.94,1.55-3.77,3.01-4.82,4.3
				c-1.82,2.24-9.85,9.19-15.14,13.31C118.44,394.57,117.51,394.92,116.57,394.92z M110.33,387.69c0.63,1.32,3.16,6.22,6.23,6.22
				c0.72,0,1.44-0.28,2.14-0.82c5.14-4,13.23-10.99,14.98-13.15c1.12-1.38,2.99-2.87,4.98-4.45c5.37-4.28,11.45-9.13,7.49-14.69
				c-1.19-1.67-3.24-2.58-5.77-2.58c-2.45,0-4.97,0.88-6.57,2.3c-1.86,1.64-2.92,3.87-4.05,6.22c-0.73,1.52-1.48,3.09-2.47,4.47
				c-1.35,1.89-3.13,3.56-4.85,5.18c-0.51,0.48-1.01,0.95-1.5,1.42C117.18,381.45,113.71,384.69,110.33,387.69z"/>
		</g>
		<g>
			<g>
				<path class="st8" d="M119.01,411.99c0,1.59-1.29,2.87-2.87,2.87h-13.07c-1.59,0-2.87-1.29-2.87-2.87v-4.54
					c0-1.59,1.29-2.87,2.87-2.87h13.07c1.59,0,2.87,1.29,2.87,2.87V411.99z"/>
				<path class="st9" d="M116.14,415.36h-13.07c-1.86,0-3.37-1.51-3.37-3.37v-4.54c0-1.86,1.51-3.37,3.37-3.37h13.07
					c1.86,0,3.37,1.51,3.37,3.37v4.54C119.51,413.85,118,415.36,116.14,415.36z M103.07,405.08c-1.31,0-2.37,1.06-2.37,2.37v4.54
					c0,1.31,1.06,2.37,2.37,2.37h13.07c1.31,0,2.37-1.06,2.37-2.37v-4.54c0-1.31-1.06-2.37-2.37-2.37H103.07z"/>
			</g>
			<g>
				<g>
					<path class="st8" d="M75.15,381.78c1.11,15.24,16.11,27.31,34.45,27.31c18.35,0,33.34-12.07,34.45-27.31H75.15z"/>
					<path class="st9" d="M109.6,409.59c-18.46,0-33.81-12.2-34.95-27.77l-0.04-0.54h69.98l-0.04,0.54
						C143.42,397.39,128.07,409.59,109.6,409.59z M75.69,382.28c1.41,14.8,16.18,26.31,33.91,26.31c17.73,0,32.5-11.51,33.91-26.31
						H75.69z"/>
				</g>
			</g>
		</g>
	</g>
	<g class="st7">
		<g>
			<path class="st10" d="M262.31,444.25c0,1.41-1.14,2.55-2.55,2.55h-22.44c-1.41,0-2.55-1.14-2.55-2.55v-50.01
				c0-1.41,1.14-2.55,2.55-2.55h22.44c1.41,0,2.55,1.14,2.55,2.55V444.25z"/>
			<path class="st9" d="M259.75,447.3h-22.44c-1.68,0-3.05-1.37-3.05-3.05v-50.01c0-1.68,1.37-3.05,3.05-3.05h22.44
				c1.68,0,3.05,1.37,3.05,3.05v50.01C262.81,445.93,261.44,447.3,259.75,447.3z M237.32,392.19c-1.13,0-2.05,0.92-2.05,2.05v50.01
				c0,1.13,0.92,2.05,2.05,2.05h22.44c1.13,0,2.05-0.92,2.05-2.05v-50.01c0-1.13-0.92-2.05-2.05-2.05H237.32z"/>
		</g>
		<g>
			<path class="st10" d="M223.25,444.25c0,1.41-1.14,2.55-2.55,2.55h-11.21c-1.41,0-2.55-1.14-2.55-2.55v-4.43
				c0-1.41,1.14-2.55,2.55-2.55h11.21c1.41,0,2.55,1.14,2.55,2.55V444.25z"/>
			<path class="st9" d="M220.7,447.3h-11.21c-1.68,0-3.05-1.37-3.05-3.05v-4.43c0-1.68,1.37-3.05,3.05-3.05h11.21
				c1.68,0,3.05,1.37,3.05,3.05v4.43C223.75,445.93,222.38,447.3,220.7,447.3z M209.49,437.77c-1.13,0-2.05,0.92-2.05,2.05v4.43
				c0,1.13,0.92,2.05,2.05,2.05h11.21c1.13,0,2.05-0.92,2.05-2.05v-4.43c0-1.13-0.92-2.05-2.05-2.05H209.49z"/>
		</g>
		<g>
			<polygon class="st10" points="223.25,438.19 206.94,438.19 200.38,380.27 228.63,380.27 			"/>
			<path class="st9" d="M223.7,438.69h-17.21l-6.66-58.93h29.36L223.7,438.69z M207.38,437.69h15.41l5.29-56.93h-27.14
				L207.38,437.69z"/>
		</g>
		<g>
			<rect x="200.38" y="384.74" class="st9" width="28.25" height="1"/>
		</g>
		<g>
			<path class="st8" d="M220.61,412.21c0,1.41-1.14,2.55-2.55,2.55h-6.85c-1.41,0-2.55-1.14-2.55-2.55v-14.79
				c0-1.41,1.14-2.55,2.55-2.55h6.85c1.41,0,2.55,1.14,2.55,2.55V412.21z"/>
			<path class="st9" d="M218.06,415.26h-6.85c-1.68,0-3.05-1.37-3.05-3.05v-14.79c0-1.68,1.37-3.05,3.05-3.05h6.85
				c1.68,0,3.05,1.37,3.05,3.05v14.79C221.11,413.89,219.74,415.26,218.06,415.26z M211.2,395.37c-1.13,0-2.05,0.92-2.05,2.05v14.79
				c0,1.13,0.92,2.05,2.05,2.05h6.85c1.13,0,2.05-0.92,2.05-2.05v-14.79c0-1.13-0.92-2.05-2.05-2.05H211.2z"/>
		</g>
		<g>
			<path class="st8" d="M254.51,421.71c0,1.41-1.14,2.55-2.55,2.55h-6.85c-1.41,0-2.55-1.14-2.55-2.55v-14.79
				c0-1.41,1.14-2.55,2.55-2.55h6.85c1.41,0,2.55,1.14,2.55,2.55V421.71z"/>
			<path class="st9" d="M251.96,424.76h-6.85c-1.68,0-3.05-1.37-3.05-3.05v-14.79c0-1.68,1.37-3.05,3.05-3.05h6.85
				c1.68,0,3.05,1.37,3.05,3.05v14.79C255.01,423.39,253.64,424.76,251.96,424.76z M245.11,404.87c-1.13,0-2.05,0.92-2.05,2.05
				v14.79c0,1.13,0.92,2.05,2.05,2.05h6.85c1.13,0,2.05-0.92,2.05-2.05v-14.79c0-1.13-0.92-2.05-2.05-2.05H245.11z"/>
		</g>
		<g>
			<rect x="244.14" y="388.47" class="st10" width="8.79" height="3.23"/>
			<path class="st9" d="M253.43,392.19h-9.79v-4.23h9.79V392.19z M244.64,391.19h7.79v-2.23h-7.79V391.19z"/>
		</g>
		<g>
			<path class="st10" d="M256.69,386.13c0,1.41-1.14,2.55-2.55,2.55h-11.21c-1.41,0-2.55-1.14-2.55-2.55v-4.43
				c0-1.41,1.14-2.55,2.55-2.55h11.21c1.41,0,2.55,1.14,2.55,2.55V386.13z"/>
			<path class="st9" d="M254.14,389.18h-11.21c-1.68,0-3.05-1.37-3.05-3.05v-4.43c0-1.68,1.37-3.05,3.05-3.05h11.21
				c1.68,0,3.05,1.37,3.05,3.05v4.43C257.19,387.81,255.82,389.18,254.14,389.18z M242.93,379.65c-1.13,0-2.05,0.92-2.05,2.05v4.43
				c0,1.13,0.92,2.05,2.05,2.05h11.21c1.13,0,2.05-0.92,2.05-2.05v-4.43c0-1.13-0.92-2.05-2.05-2.05H242.93z"/>
		</g>
	</g>
	<g class="st7">
		<g>
			<path class="st9" d="M364.5,415.66l-0.4-0.05c-2.69-0.32-10.86-1.29-12.4-9.9c-0.98-5.5,1.71-10.07,4.09-14.12
				c1.4-2.38,2.72-4.63,2.98-6.64c0.18-1.4-0.12-2.55-0.89-3.43c-1.74-1.98-5.34-2.01-5.38-2.01h-32.1v-1h32.1
				c0.17,0,4.08,0.03,6.13,2.35c0.97,1.1,1.35,2.52,1.14,4.22c-0.28,2.22-1.66,4.55-3.11,7.03c-2.29,3.89-4.88,8.3-3.97,13.43
				c1.41,7.88,8.76,8.76,11.53,9.09l0.28,0.03l0.28-0.03c2.77-0.33,10.12-1.2,11.53-9.09c0.91-5.11-1.68-9.5-3.96-13.37
				c-1.47-2.49-2.86-4.85-3.12-7.09c-0.2-1.71,0.2-3.13,1.18-4.23c2.05-2.31,5.92-2.33,6.08-2.33h33.26v1H376.5
				c-0.04,0-3.59,0.03-5.34,2c-0.78,0.88-1.09,2.04-0.93,3.45c0.24,2.03,1.57,4.3,2.99,6.7c2.37,4.02,5.06,8.59,4.08,14.06
				c-1.54,8.61-9.71,9.58-12.4,9.9L364.5,415.66z"/>
		</g>
		<g>
			<polygon class="st8" points="338.92,387.57 336.1,390.41 338.86,393.16 323.97,393.16 323.97,397.08 339.29,397.08 
				337.01,400.42 340.32,402.67 347.98,394.5 			"/>
			<path class="st9" d="M340.39,403.32l-4.07-2.77l2.02-2.97h-14.87v-4.92h14.19l-2.26-2.25l3.48-3.5l9.84,7.53L340.39,403.32z
				 M337.71,400.28l2.54,1.73l6.99-7.45l-8.27-6.32l-2.16,2.17l3.27,3.26h-15.61v2.92h15.76L337.71,400.28z"/>
		</g>
		<g>
			<polygon class="st8" points="389.56,387.57 392.38,390.41 389.61,393.16 404.51,393.16 404.51,397.08 389.19,397.08 
				391.46,400.42 388.16,402.67 380.5,394.5 			"/>
			<path class="st9" d="M388.09,403.32l-8.33-8.88l9.84-7.53l3.48,3.5l-2.26,2.25h14.19v4.92h-14.87l2.02,2.97L388.09,403.32z
				 M381.24,394.56l6.99,7.45l2.54-1.73l-2.52-3.71h15.76v-2.92H388.4l3.27-3.26l-2.16-2.17L381.24,394.56z"/>
		</g>
	</g>
	<g class="st7">
		<g>
			<g>
				<g>
					<path class="st10" d="M455.06,381.18c-1.22,1.86-14.24,11.96-10.15,22.91c4.09,10.95,19.17,7.97,20.75,8.71"/>
					<path class="st9" d="M465.44,413.26c-0.23-0.11-1.32-0.1-2.29-0.09c-4.97,0.03-15.34,0.1-18.71-8.9
						c-3.51-9.4,5.09-18.1,8.77-21.82c0.7-0.71,1.25-1.26,1.43-1.54l0.84,0.55c-0.23,0.36-0.76,0.89-1.55,1.69
						c-3.54,3.58-11.83,11.97-8.54,20.77c3.12,8.35,13.02,8.28,17.76,8.25c1.55-0.01,2.31-0.01,2.73,0.19L465.44,413.26z"/>
				</g>
				<g>
					<path class="st10" d="M503.22,381.18c1.22,1.86,14.24,11.96,10.15,22.91c-4.09,10.95-19.17,7.97-20.75,8.71"/>
					<path class="st9" d="M492.84,413.26l-0.43-0.9c0.41-0.19,1.18-0.2,2.72-0.19c4.74,0.03,14.64,0.1,17.76-8.25
						c3.29-8.8-5-17.19-8.54-20.77c-0.8-0.8-1.32-1.34-1.55-1.69l0.84-0.55c0.18,0.27,0.73,0.83,1.43,1.54
						c3.67,3.72,12.28,12.42,8.77,21.82c-3.37,9-13.75,8.94-18.71,8.9C494.16,413.16,493.06,413.15,492.84,413.26z"/>
				</g>
				<g>
					<path class="st10" d="M502.54,399.17c0,0-13.52,4.28-15.32,13.21c-1.8,8.93-4.77,7.67-8.12,8.49
						c-3.35-0.81-6.32,0.44-8.12-8.49c-1.8-8.93-15.32-13.21-15.32-13.21s-4.81,1.92-1.49,4.13c0,0,3.9,2.82,12.81,2.39"/>
					<path class="st9" d="M479.1,421.38l-0.12-0.03c-0.52-0.13-1.05-0.2-1.56-0.28c-2.76-0.4-5.36-0.78-6.94-8.6
						c-0.49-2.44-1.92-4.53-3.7-6.28c-8.83,0.39-12.74-2.38-12.91-2.5c-0.98-0.66-1.45-1.4-1.37-2.2c0.17-1.64,2.68-2.69,2.96-2.8
						l0.17-0.07l0.17,0.05c0.56,0.18,13.82,4.47,15.66,13.59c1.44,7.13,3.5,7.43,6.1,7.81c0.49,0.07,1,0.15,1.53,0.27
						c0.53-0.12,1.04-0.2,1.53-0.27c2.61-0.38,4.67-0.68,6.1-7.81c1.83-9.11,15.09-13.41,15.66-13.59l0.3,0.95
						c-0.13,0.04-13.26,4.3-14.98,12.83c-1.58,7.82-4.18,8.2-6.94,8.6c-0.51,0.07-1.03,0.15-1.56,0.28L479.1,421.38z M455.69,399.71
						c-0.68,0.3-2.09,1.1-2.17,1.91c-0.04,0.4,0.27,0.83,0.94,1.27c0.05,0.04,3.56,2.48,11.27,2.35
						C461.74,401.88,456.68,400.05,455.69,399.71z"/>
				</g>
				<g>
					<path class="st10" d="M466.01,345.95c0,0-0.65,25.63-4,34.68"/>
					<path class="st9" d="M462.48,380.8l-0.94-0.35c3.28-8.88,3.96-34.27,3.97-34.52l1,0.03
						C466.48,347.01,465.82,371.77,462.48,380.8z"/>
				</g>
				<g>
					<path class="st10" d="M492.63,342.69c0,0-0.44,28.47,2.71,35.13"/>
					<path class="st9" d="M494.88,378.04c-3.16-6.69-2.77-34.19-2.75-35.35l1,0.02c0,0.28-0.41,28.43,2.66,34.91L494.88,378.04z"/>
				</g>
				<g>
					<path class="st9" d="M491.23,406.2l-0.02-1c2.96-0.05,11.04-0.61,12.84-2.59c0.43-0.47,0.59-0.89,0.48-1.25
						c-0.28-0.91-2.07-1.54-2.68-1.69l0.24-0.97c0.3,0.07,2.91,0.76,3.4,2.37c0.22,0.72-0.01,1.47-0.69,2.22
						C502.34,405.98,491.68,406.19,491.23,406.2z"/>
				</g>
			</g>
		</g>
		<g>
			<path class="st8" d="M479.9,382.97c0,1.17-0.95,2.13-2.13,2.13c-1.17,0-2.13-0.95-2.13-2.13c0-1.17,0.95-2.13,2.13-2.13
				C478.95,380.84,479.9,381.79,479.9,382.97z"/>
			<path class="st9" d="M477.77,385.6c-1.45,0-2.63-1.18-2.63-2.63s1.18-2.63,2.63-2.63c1.45,0,2.63,1.18,2.63,2.63
				S479.22,385.6,477.77,385.6z M477.77,381.34c-0.9,0-1.63,0.73-1.63,1.63c0,0.9,0.73,1.63,1.63,1.63c0.9,0,1.63-0.73,1.63-1.63
				C479.4,382.07,478.67,381.34,477.77,381.34z"/>
		</g>
		<g>
			<path class="st8" d="M462.01,391.17c0,1.17-0.95,2.13-2.13,2.13c-1.17,0-2.13-0.95-2.13-2.13c0-1.17,0.95-2.13,2.13-2.13
				C461.06,389.04,462.01,389.99,462.01,391.17z"/>
			<path class="st9" d="M459.88,393.79c-1.45,0-2.63-1.18-2.63-2.63c0-1.45,1.18-2.63,2.63-2.63c1.45,0,2.63,1.18,2.63,2.63
				C462.51,392.62,461.33,393.79,459.88,393.79z M459.88,389.54c-0.9,0-1.63,0.73-1.63,1.63c0,0.9,0.73,1.63,1.63,1.63
				c0.9,0,1.63-0.73,1.63-1.63C461.51,390.27,460.78,389.54,459.88,389.54z"/>
		</g>
		<g>
			<path class="st8" d="M475.21,400.31c0,1.17-0.95,2.13-2.13,2.13c-1.17,0-2.13-0.95-2.13-2.13c0-1.17,0.95-2.13,2.13-2.13
				C474.26,398.18,475.21,399.13,475.21,400.31z"/>
			<path class="st9" d="M473.08,402.93c-1.45,0-2.63-1.18-2.63-2.63c0-1.45,1.18-2.63,2.63-2.63c1.45,0,2.63,1.18,2.63,2.63
				C475.71,401.76,474.53,402.93,473.08,402.93z M473.08,398.68c-0.9,0-1.63,0.73-1.63,1.63c0,0.9,0.73,1.63,1.63,1.63
				c0.9,0,1.63-0.73,1.63-1.63C474.71,399.41,473.98,398.68,473.08,398.68z"/>
		</g>
		<g>
			<path class="st8" d="M479.9,414.93c0,1.17-0.95,2.13-2.13,2.13c-1.17,0-2.13-0.95-2.13-2.13c0-1.17,0.95-2.13,2.13-2.13
				C478.95,412.8,479.9,413.76,479.9,414.93z"/>
			<path class="st9" d="M477.77,417.56c-1.45,0-2.63-1.18-2.63-2.63c0-1.45,1.18-2.63,2.63-2.63c1.45,0,2.63,1.18,2.63,2.63
				C480.4,416.38,479.22,417.56,477.77,417.56z M477.77,413.3c-0.9,0-1.63,0.73-1.63,1.63c0,0.9,0.73,1.63,1.63,1.63
				c0.9,0,1.63-0.73,1.63-1.63C479.4,414.03,478.67,413.3,477.77,413.3z"/>
		</g>
		<g>
			<path class="st8" d="M494.73,386.06c0,1.17-0.95,2.13-2.13,2.13c-1.17,0-2.13-0.95-2.13-2.13c0-1.17,0.95-2.13,2.13-2.13
				C493.78,383.93,494.73,384.88,494.73,386.06z"/>
			<path class="st9" d="M492.6,388.68c-1.45,0-2.63-1.18-2.63-2.63c0-1.45,1.18-2.63,2.63-2.63c1.45,0,2.63,1.18,2.63,2.63
				C495.23,387.51,494.05,388.68,492.6,388.68z M492.6,384.43c-0.9,0-1.63,0.73-1.63,1.63c0,0.9,0.73,1.63,1.63,1.63
				c0.9,0,1.63-0.73,1.63-1.63C494.23,385.16,493.5,384.43,492.6,384.43z"/>
		</g>
		<g>
			<path class="st8" d="M507.06,394.86c0,1.17-0.95,2.13-2.13,2.13c-1.17,0-2.13-0.95-2.13-2.13s0.95-2.13,2.13-2.13
				C506.11,392.74,507.06,393.69,507.06,394.86z"/>
			<path class="st9" d="M504.93,397.49c-1.45,0-2.63-1.18-2.63-2.63s1.18-2.63,2.63-2.63c1.45,0,2.63,1.18,2.63,2.63
				S506.38,397.49,504.93,397.49z M504.93,393.24c-0.9,0-1.63,0.73-1.63,1.63s0.73,1.63,1.63,1.63c0.9,0,1.63-0.73,1.63-1.63
				S505.83,393.24,504.93,393.24z"/>
		</g>
		<g>
			<path class="st8" d="M488.01,396.99c0,1.17-0.95,2.13-2.13,2.13c-1.17,0-2.13-0.95-2.13-2.13c0-1.17,0.95-2.13,2.13-2.13
				C487.06,394.86,488.01,395.82,488.01,396.99z"/>
			<path class="st9" d="M485.88,399.62c-1.45,0-2.63-1.18-2.63-2.63c0-1.45,1.18-2.63,2.63-2.63c1.45,0,2.63,1.18,2.63,2.63
				C488.51,398.44,487.33,399.62,485.88,399.62z M485.88,395.36c-0.9,0-1.63,0.73-1.63,1.63c0,0.9,0.73,1.63,1.63,1.63
				c0.9,0,1.63-0.73,1.63-1.63C487.51,396.09,486.78,395.36,485.88,395.36z"/>
		</g>
	</g>
	<g class="st7">
		<g>
			<g>
				<g>
					<path class="st10" d="M152.33,501.3c-1.32-1.47-3.16-1.13-4.65-0.46c-0.52-19.47-13.45-32.31-29.34-32.31
						c-15.84,0-28.74,12.76-29.33,32.15c-1.41-0.55-3.05-0.72-4.26,0.62c-2.36,2.63-1.78,11.52,7.07,14.92
						c5.59,14.19,18.19,25.33,26.52,25.33c9.1,0,21.25-11.08,26.61-25.21C154.09,513.02,154.71,503.97,152.33,501.3z"/>
					<path class="st9" d="M118.34,542.04c-8.95,0-21.48-11.86-26.9-25.44c-4.18-1.67-7.11-4.87-8.06-8.81
						c-0.65-2.69-0.25-5.43,1-6.83c1.02-1.13,2.44-1.47,4.16-0.97c0.85-18.56,13.3-31.96,29.81-31.96
						c16.57,0,29.01,13.45,29.81,32.08c1.88-0.66,3.46-0.37,4.55,0.85c1.27,1.42,1.66,4.21,0.98,6.94c-1,3.99-4.04,7.19-8.34,8.81
						C139.96,530.7,127.88,542.04,118.34,542.04z M87.08,500.77c-0.79,0-1.43,0.28-1.95,0.87c-1.02,1.14-1.34,3.58-0.78,5.93
						c0.52,2.16,2.21,6.1,7.65,8.19l0.21,0.08l0.08,0.2c5.8,14.74,18.39,25.01,26.05,25.01c9.05,0,21.03-11.4,26.15-24.89l0.08-0.21
						l0.22-0.08c5.61-2.03,7.37-6.01,7.92-8.2c0.7-2.78,0.1-5.07-0.75-6.03c-0.94-1.04-2.31-1.14-4.07-0.33l-0.69,0.31l-0.02-0.75
						c-0.5-18.44-12.62-31.83-28.84-31.83c-16.15,0-28.27,13.32-28.83,31.66l-0.02,0.71l-0.66-0.26
						C88.19,500.9,87.6,500.77,87.08,500.77z"/>
				</g>
			</g>
			<g>
				<path class="st10" d="M122.54,495.39c0,0,9.24-3.38,13.68-2.49c4.44,0.89,5.2,2.49,5.2,2.49"/>
				<path class="st9" d="M122.72,495.86l-0.34-0.94c0.38-0.14,9.43-3.42,13.95-2.51c4.55,0.91,5.47,2.58,5.56,2.76l-0.9,0.43
					c0,0-0.8-1.4-4.85-2.21C131.88,492.54,122.81,495.83,122.72,495.86z"/>
			</g>
			<g>
				<path class="st10" d="M112.59,495.39c0,0-9.24-3.38-13.68-2.49c-4.44,0.89-5.2,2.49-5.2,2.49"/>
				<path class="st9" d="M112.42,495.86c-0.09-0.03-9.16-3.32-13.41-2.47c-4.05,0.81-4.85,2.21-4.85,2.22l-0.9-0.44
					c0.09-0.19,1-1.85,5.56-2.76c4.53-0.91,13.57,2.37,13.95,2.51L112.42,495.86z"/>
			</g>
			<g>
				<path class="st10" d="M97.9,502.98c0,0,6.23,0.94,12.26,0"/>
				<path class="st9" d="M104.28,503.9c-3.57,0-6.28-0.4-6.45-0.43l0.15-0.99c0.06,0.01,6.23,0.92,12.11,0l0.15,0.99
					C108.18,503.8,106.12,503.9,104.28,503.9z"/>
			</g>
			<g>
				<path class="st10" d="M125.85,502.98c0,0,6.23,0.94,12.26,0"/>
				<path class="st9" d="M132.23,503.9c-3.57,0-6.28-0.4-6.45-0.43l0.15-0.99c0.06,0.01,6.23,0.92,12.11,0l0.15,0.99
					C136.14,503.8,134.07,503.9,132.23,503.9z"/>
			</g>
		</g>
		<g>
			<path class="st8" d="M91.82,516.22c0,0,8.22-2.54,14.36,1.15c6.14,3.69,7.73,10.3,3.97,21.48
				C110.16,538.85,97.34,531.64,91.82,516.22z"/>
			<path class="st9" d="M110.44,539.58l-0.53-0.3c-0.13-0.07-13.05-7.48-18.56-22.9l-0.18-0.49l0.5-0.15
				c0.12-0.04,2.87-0.88,6.42-0.88c3.25,0,6.06,0.7,8.35,2.07c6.59,3.96,7.92,10.97,4.19,22.07L110.44,539.58z M92.48,516.56
				c4.83,12.97,14.99,20.01,17.4,21.54c3.31-10.23,2.05-16.69-3.95-20.3c-2.13-1.28-4.77-1.93-7.83-1.93
				C95.57,515.87,93.42,516.32,92.48,516.56z"/>
		</g>
		<g>
			<path class="st8" d="M145.58,515.85c0,0-8.22-2.54-14.36,1.15c-6.14,3.69-7.73,10.3-3.97,21.48
				C127.24,538.48,140.06,531.27,145.58,515.85z"/>
			<path class="st9" d="M126.96,539.21l-0.19-0.57c-3.73-11.1-2.4-18.11,4.19-22.07c2.29-1.38,5.1-2.07,8.35-2.07
				c3.55,0,6.31,0.84,6.42,0.88l0.5,0.15l-0.18,0.49c-5.51,15.42-18.43,22.83-18.56,22.9L126.96,539.21z M139.3,515.49
				c-3.06,0-5.7,0.65-7.83,1.93c-6,3.6-7.26,10.06-3.95,20.3c2.42-1.53,12.57-8.56,17.4-21.54
				C143.98,515.95,141.83,515.49,139.3,515.49z"/>
		</g>
	</g>
	<g class="st7">
		<g>
			<path class="st9" d="M240.67,521.63c-3,0-5.32-0.99-6.9-2.93c-4.41-5.44-1.99-16.86-0.54-23.69c0.21-1,0.4-1.88,0.53-2.6
				c0.1-0.56,0.32-1.28,0.55-2.04c0.51-1.71,1.15-3.83,0.75-4.97c-0.27-0.77-0.81-1.33-1.61-1.69c-1.69-0.75-4.26-0.42-5.93,0.29
				c-10.48,4.45-31.62,4.5-32.51,4.5v-1c0.22,0,21.83-0.05,32.12-4.42c1.81-0.77,4.68-1.19,6.73-0.28c1.06,0.47,1.79,1.23,2.15,2.27
				c0.51,1.45-0.15,3.65-0.74,5.59c-0.22,0.73-0.43,1.43-0.52,1.94c-0.13,0.72-0.32,1.61-0.54,2.63
				c-1.32,6.21-3.77,17.78,0.34,22.85c1.4,1.72,3.4,2.56,6.12,2.56h1.06c2.76-0.15,4.89-1.15,6.28-2.98
				c3.95-5.19,1.63-15.84,0.24-22.2c-0.24-1.1-0.45-2.07-0.6-2.85c-0.09-0.51-0.3-1.2-0.52-1.94c-0.58-1.94-1.25-4.14-0.74-5.59
				c0.41-1.18,1.32-2.05,2.63-2.52c1.9-0.69,4.61-0.45,6.31,0.56c7.24,4.33,33.89,4.39,34.16,4.39l0,1
				c-1.11,0-27.19-0.07-34.67-4.53c-1.26-0.75-3.64-1.14-5.45-0.48c-1.03,0.38-1.72,1.02-2.03,1.91c-0.4,1.14,0.24,3.26,0.75,4.97
				c0.23,0.76,0.45,1.48,0.55,2.04c0.14,0.78,0.35,1.73,0.59,2.82c1.43,6.53,3.81,17.46-0.42,23.02c-1.58,2.07-3.95,3.21-7.05,3.37
				L240.67,521.63z"/>
		</g>
		<g>
			<path class="st9" d="M252.44,479.89c-0.04-0.09-3.85-9.36-12.26-9.36c-8.36,0-10.62,9.19-10.64,9.29l-0.97-0.23
				c0.02-0.1,2.47-10.06,11.62-10.06c9.09,0,13.15,9.89,13.19,9.99L252.44,479.89z"/>
		</g>
		<g>
			<path class="st8" d="M242.48,484.38c0,0,8.84,29.23-0.75,32.42h-1.5c-9.59-3.2-0.75-32.42-0.75-32.42H242.48z"/>
			<path class="st9" d="M241.81,517.31l-1.74-0.03c-9.94-3.31-1.44-31.83-1.07-33.04l0.11-0.36h3.75l0.11,0.36
				c0.37,1.21,8.86,29.73-1.07,33.04L241.81,517.31z M240.31,516.31h1.34c8.36-2.95,1.41-28.12,0.46-31.42h-2.26
				C238.9,488.19,231.96,513.36,240.31,516.31z"/>
		</g>
	</g>
	<g class="st7">
		<g>
			<path class="st10" d="M374.86,481.41c0,0,7.74,3.13,7.27,15.39v29.34c0,0-0.68,2.65-3.63,3.61h-17.03h1.9h-17.03
				c-2.94-0.96-3.63-3.61-3.63-3.61V496.8c-0.47-12.26,7.27-15.39,7.27-15.39H374.86z"/>
			<path class="st9" d="M378.58,530.25l-32.4-0.02c-3.17-1.04-3.92-3.84-3.96-3.96l-0.02-0.13V496.8
				c-0.48-12.45,7.26-15.72,7.59-15.86l0.19-0.04l25.06,0.04c0.33,0.13,8.06,3.4,7.59,15.88l-0.02,29.44
				c-0.03,0.12-0.79,2.92-3.96,3.96L378.58,530.25z M363.37,529.25h15.05c2.37-0.81,3.1-2.82,3.21-3.18V496.8
				c0.42-11.12-6.07-14.52-6.88-14.89h-24.66c-0.86,0.39-7.31,3.68-6.88,14.87v29.29c0.11,0.37,0.83,2.36,3.21,3.18H363.37z"/>
		</g>
		<g>
			<g>
				<path class="st8" d="M342.71,501.68v24.46c0,0,0.68,2.65,3.63,3.61h15.13h1.9h15.13c2.94-0.96,3.63-3.61,3.63-3.61v-24.46
					H342.71z"/>
				<path class="st9" d="M378.58,530.25l-32.4-0.02c-3.17-1.04-3.92-3.84-3.96-3.96l-0.02-0.13v-24.96h40.42l-0.02,25.09
					c-0.03,0.12-0.79,2.92-3.96,3.96L378.58,530.25z M346.42,529.25h32c2.38-0.81,3.09-2.81,3.21-3.18v-23.89h-38.42v23.89
					C343.33,526.44,344.04,528.43,346.42,529.25z"/>
			</g>
		</g>
		<g>
			<path class="st10" d="M365.59,509.02c0,1.35-1.07,2.45-2.39,2.45h-1.55c-1.32,0-2.39-1.1-2.39-2.45v-60.5
				c0-1.35,1.07-2.45,2.39-2.45h1.55c1.32,0,2.39,1.1,2.39,2.45V509.02z"/>
			<path class="st9" d="M363.2,511.97h-1.55c-1.6,0-2.89-1.33-2.89-2.95v-60.5c0-1.63,1.3-2.95,2.89-2.95h1.55
				c1.6,0,2.89,1.33,2.89,2.95v60.5C366.09,510.65,364.79,511.97,363.2,511.97z M361.65,446.56c-1.04,0-1.89,0.88-1.89,1.95v60.5
				c0,1.08,0.85,1.95,1.89,1.95h1.55c1.04,0,1.89-0.88,1.89-1.95v-60.5c0-1.08-0.85-1.95-1.89-1.95H361.65z"/>
		</g>
		<g>
			<path class="st10" d="M375.4,479.16c0,1.35-1.07,2.45-2.39,2.45H351.3c-1.32,0-2.39-1.1-2.39-2.45V468.7
				c0-1.35,1.07-2.45,2.39-2.45H373c1.32,0,2.39,1.1,2.39,2.45V479.16z"/>
			<path class="st9" d="M373,482.12H351.3c-1.6,0-2.89-1.33-2.89-2.95V468.7c0-1.63,1.3-2.95,2.89-2.95H373
				c1.6,0,2.89,1.33,2.89,2.95v10.46C375.9,480.79,374.6,482.12,373,482.12z M351.3,466.75c-1.05,0-1.89,0.88-1.89,1.95v10.46
				c0,1.08,0.85,1.95,1.89,1.95H373c1.04,0,1.89-0.88,1.89-1.95V468.7c0-1.08-0.85-1.95-1.89-1.95H351.3z"/>
		</g>
		<g>
			<g>
				<path class="st10" d="M362.15,456.4c-5.31,0-9.61,4.41-9.61,9.85h19.22C371.76,460.81,367.46,456.4,362.15,456.4z"/>
				<path class="st9" d="M372.26,466.75h-20.22v-0.5c0-5.71,4.53-10.35,10.11-10.35c5.57,0,10.11,4.64,10.11,10.35V466.75z
					 M353.06,465.75h18.19c-0.25-4.92-4.24-8.85-9.1-8.85C357.29,456.9,353.31,460.83,353.06,465.75z"/>
			</g>
		</g>
	</g>
	<g class="st7">
		<g>
			<path class="st9" d="M450.65,529.87c-0.76-3.43-1.08-6.97-1.38-10.39c-0.28-3.16-0.57-6.44-1.22-9.59
				c-0.79-3.85-2.04-7.65-3.24-11.33c-0.88-2.68-1.79-5.45-2.52-8.23c-1.48-5.63-1.16-11.18,0.94-16.5
				c0.93-2.35,2.16-4.58,3.35-6.75c1.56-2.84,3.18-5.77,4.08-8.94l0.96,0.28c-0.94,3.27-2.58,6.26-4.17,9.14
				c-1.17,2.14-2.39,4.34-3.29,6.63c-2.02,5.12-2.33,10.46-0.91,15.88c0.72,2.75,1.63,5.51,2.5,8.17c1.22,3.71,2.48,7.54,3.28,11.44
				c0.66,3.21,0.95,6.51,1.24,9.7c0.3,3.39,0.61,6.89,1.36,10.26L450.65,529.87z"/>
		</g>
		<g>
			<path class="st9" d="M496.56,529.87l-0.98-0.22c0.75-3.37,1.06-6.87,1.36-10.26c0.29-3.19,0.58-6.49,1.24-9.7
				c0.8-3.91,2.06-7.74,3.28-11.44c0.88-2.67,1.78-5.42,2.5-8.17c1.42-5.42,1.12-10.76-0.91-15.88c-0.91-2.29-2.12-4.5-3.29-6.63
				c-1.59-2.89-3.23-5.87-4.17-9.14l0.96-0.28c0.9,3.17,2.52,6.1,4.08,8.94c1.19,2.16,2.42,4.4,3.35,6.75
				c2.1,5.32,2.42,10.88,0.94,16.5c-0.73,2.78-1.64,5.55-2.52,8.23c-1.21,3.68-2.46,7.48-3.24,11.33c-0.65,3.15-0.94,6.43-1.22,9.59
				C497.63,522.9,497.32,526.44,496.56,529.87z"/>
		</g>
		<g>
			<polygon class="st9" points="470.52,529.84 469.53,529.68 473.23,506.24 476.96,528.69 475.97,528.86 473.26,512.5 			"/>
		</g>
		<g>
			<path class="st8" d="M443.13,491.52c0,0,27.78,5.83,61.08,0l-4.08,12.55c0,0-21.62-1.09-26.88,5.29c0,0-6.6-7.21-26.35-5.9
				C446.89,503.47,443.5,492.85,443.13,491.52z"/>
			<path class="st9" d="M473.27,510.13l-0.39-0.42c-0.05-0.06-5.64-5.9-21.33-5.9c-1.49,0-3.04,0.05-4.62,0.16l-0.39,0.03
				l-0.12-0.37c-0.14-0.43-3.4-10.64-3.76-11.96l-0.22-0.79l0.8,0.17c0.12,0.03,12.51,2.58,30.34,2.58
				c10.48,0,20.76-0.87,30.55-2.58l0.82-0.14l-4.46,13.71l-0.38-0.02c-0.01,0-1.42-0.07-3.56-0.07c-5.61,0-19.06,0.5-22.92,5.18
				L473.27,510.13z M451.55,502.81c14.02,0,20.13,4.48,21.67,5.84c4.33-4.46,16.39-5.14,23.33-5.14c1.51,0,2.66,0.03,3.22,0.05
				l3.71-11.41c-9.6,1.63-19.66,2.46-29.9,2.46c-15.33,0-26.67-1.88-29.73-2.44c0.75,2.46,2.88,9.13,3.4,10.78
				C448.71,502.86,450.16,502.81,451.55,502.81z"/>
		</g>
		<g>
			<circle class="st9" cx="472.62" cy="476.58" r="1.13"/>
		</g>
		<g>
			<g>
				<g>
					<path class="st10" d="M541.09,474.39c0.2,0.84-0.32,1.69-1.16,1.89l-20.41,4.88c-0.84,0.2-1.69-0.32-1.89-1.16l-1.45-6.05
						c-0.2-0.84,0.32-1.69,1.16-1.89l20.41-4.88c0.84-0.2,1.69,0.32,1.89,1.16L541.09,474.39z"/>
					<path class="st9" d="M519.16,481.71c-0.96,0-1.79-0.65-2.01-1.59l-1.45-6.05c-0.13-0.54-0.04-1.09,0.25-1.56
						c0.29-0.47,0.74-0.8,1.28-0.93l20.41-4.88c1.09-0.27,2.23,0.44,2.49,1.53l1.45,6.05c0.26,1.11-0.42,2.23-1.53,2.49l-20.41,4.88
						C519.48,481.69,519.32,481.71,519.16,481.71z M538.12,467.64c-0.08,0-0.17,0.01-0.25,0.03l-20.41,4.88
						c-0.28,0.07-0.51,0.24-0.66,0.48c-0.15,0.24-0.19,0.53-0.13,0.8l1.45,6.05c0.13,0.57,0.71,0.92,1.29,0.79l20.41-4.88
						c0.57-0.14,0.93-0.71,0.79-1.29l-1.45-6.05C539.04,467.98,538.61,467.64,538.12,467.64z"/>
				</g>
				<g>
					<path class="st10" d="M503.93,484l-1.64-6.84c-0.25-1.05-1.3-1.69-2.35-1.44l-2.54,0.61c-1.05,0.25-1.63,1.55-1.63,1.55
						l-3.44,2.34l1.26,5.28l4.2,0.81c0,0,1.11,0.89,2.16,0.64l2.54-0.61C503.53,486.1,504.18,485.05,503.93,484z"/>
					<path class="st9" d="M499.56,487.5L499.56,487.5c-0.89,0-1.7-0.51-1.98-0.72l-4.4-0.85l-1.42-5.93l3.62-2.46
						c0.2-0.38,0.85-1.44,1.91-1.7l2.54-0.61c1.31-0.31,2.64,0.52,2.95,1.81l1.64,6.84c0.31,1.31-0.5,2.64-1.81,2.95l-2.54,0.61
						C499.9,487.48,499.73,487.5,499.56,487.5z M494,485.07l4,0.78l0.1,0.08c0.01,0.01,1,0.72,1.73,0.55l2.54-0.61
						c0.78-0.19,1.26-0.97,1.07-1.75l-1.64-6.84c-0.18-0.76-0.97-1.26-1.75-1.07l-2.54,0.61c-0.79,0.19-1.29,1.26-1.3,1.27
						l-0.06,0.13l-3.27,2.23L494,485.07z"/>
				</g>
				<g>
					<path class="st10" d="M531.7,477.72c0.25,1.05-0.39,2.1-1.44,2.35l-25.37,6.07c-1.05,0.25-2.1-0.4-2.35-1.44l-1.8-7.52
						c-0.25-1.05,0.4-2.1,1.44-2.35l25.37-6.07c1.05-0.25,2.1,0.4,2.35,1.44L531.7,477.72z"/>
					<path class="st9" d="M504.44,486.69c-1.14,0-2.12-0.77-2.38-1.88l-1.8-7.52c-0.15-0.64-0.05-1.29,0.29-1.85
						c0.34-0.56,0.88-0.95,1.52-1.1l25.37-6.07c1.3-0.31,2.64,0.52,2.95,1.81l1.8,7.52c0.15,0.64,0.05,1.29-0.29,1.85
						c-0.34,0.56-0.88,0.95-1.52,1.1l-25.37,6.07C504.82,486.67,504.63,486.69,504.44,486.69z M528.01,469.2
						c-0.11,0-0.23,0.01-0.34,0.04l-25.37,6.07c-0.38,0.09-0.7,0.32-0.9,0.65c-0.2,0.33-0.26,0.72-0.17,1.1l1.8,7.52
						c0.18,0.77,0.97,1.25,1.75,1.07l25.37-6.07c0.38-0.09,0.7-0.32,0.9-0.65c0.2-0.33,0.26-0.72,0.17-1.1l-1.8-7.52
						C529.26,469.66,528.68,469.2,528.01,469.2z"/>
				</g>
				<g>
					
						<rect x="480.55" y="483.83" transform="matrix(0.9726 -0.2324 0.2324 0.9726 -99.2291 126.3406)" class="st9" width="12.14" height="1"/>
				</g>
				<g>
					<line class="st10" x1="509.94" y1="472.97" x2="510.95" y2="477.22"/>
					
						<rect x="509.94" y="472.91" transform="matrix(0.9726 -0.2325 0.2325 0.9726 -96.4621 131.6814)" class="st9" width="1" height="4.36"/>
				</g>
				<g>
					<line class="st10" x1="513.78" y1="472.05" x2="514.8" y2="476.3"/>
					
						<rect x="513.79" y="471.99" transform="matrix(0.9726 -0.2327 0.2327 0.9726 -96.2142 132.6777)" class="st9" width="1" height="4.36"/>
				</g>
				<g>
					<line class="st10" x1="517.63" y1="471.13" x2="518.64" y2="475.38"/>
					
						<rect x="517.64" y="471.07" transform="matrix(0.9726 -0.2327 0.2327 0.9726 -95.8936 133.5457)" class="st9" width="1" height="4.36"/>
				</g>
			</g>
			<g>
				<path class="st10" d="M535.97,480.89c0.14,0.66-0.29,1.31-0.95,1.45l-3.76,0.78c-0.66,0.14-1.31-0.29-1.45-0.95l-3.32-16.02
					c-0.14-0.66,0.29-1.31,0.95-1.45l3.76-0.78c0.66-0.14,1.31,0.29,1.45,0.95L535.97,480.89z"/>
				<path class="st9" d="M531,483.64c-0.81,0-1.52-0.58-1.69-1.37l-3.32-16.02c-0.19-0.93,0.41-1.84,1.34-2.04l3.76-0.78
					c0.92-0.19,1.85,0.43,2.04,1.34l3.32,16.02c0.19,0.93-0.41,1.84-1.34,2.04l-3.76,0.78C531.24,483.63,531.12,483.64,531,483.64z
					 M531.44,464.4c-0.05,0-0.1,0-0.15,0.01l-3.76,0.78c-0.19,0.04-0.35,0.15-0.46,0.31c-0.11,0.16-0.14,0.35-0.1,0.54l3.32,16.02
					c0.08,0.38,0.47,0.64,0.86,0.56l3.76-0.78c0.39-0.08,0.64-0.47,0.56-0.86l-3.32-16.02C532.08,464.64,531.78,464.4,531.44,464.4z
					"/>
			</g>
		</g>
	</g>
	<g class="st7">
		<g>
			<g>
				<path class="st10" d="M142.17,597.29c-1.26-1.41-3.03-1.08-4.45-0.44c-0.5-18.64-12.87-30.93-28.08-30.93
					c-15.16,0-27.51,12.22-28.07,30.77c-1.35-0.53-2.92-0.69-4.08,0.59c-2.25,2.52-1.7,11.02,6.77,14.28
					c5.35,13.58,17.41,24.24,25.38,24.24c8.71,0,20.34-10.6,25.47-24.13C143.86,608.5,144.45,599.83,142.17,597.29z"/>
				<path class="st9" d="M109.64,636.3c-8.57,0-20.57-11.36-25.77-24.35c-4-1.6-6.81-4.67-7.72-8.44c-0.62-2.58-0.24-5.22,0.96-6.56
					c0.97-1.09,2.33-1.41,3.97-0.95c0.82-17.76,12.74-30.58,28.55-30.58c15.86,0,27.77,12.87,28.55,30.7
					c1.8-0.63,3.3-0.34,4.35,0.83c1.22,1.36,1.6,4.04,0.94,6.66c-0.96,3.82-3.87,6.89-7.98,8.45
					C130.34,625.45,118.77,636.3,109.64,636.3z M79.71,596.8c-0.75,0-1.36,0.27-1.85,0.82c-0.8,0.89-1.37,3.04-0.74,5.65
					c0.5,2.06,2.11,5.83,7.31,7.82l0.21,0.08l0.08,0.2c5.55,14.1,17.59,23.92,24.92,23.92c8.66,0,20.11-10.9,25.01-23.81l0.08-0.21
					l0.22-0.08c5.36-1.94,7.04-5.74,7.57-7.84c0.67-2.65,0.1-4.84-0.71-5.75c-0.89-0.99-2.19-1.08-3.87-0.31l-0.69,0.31l-0.02-0.75
					c-0.47-17.64-12.07-30.44-27.58-30.44c-15.44,0-27.04,12.74-27.57,30.29l-0.02,0.71l-0.66-0.26
					C80.77,596.92,80.21,596.8,79.71,596.8z"/>
			</g>
		</g>
		<g>
			<g>
				<path class="st8" d="M109.83,565.93v69.87c8.69-0.15,20.19-10.7,25.28-24.13c0.06-0.02,0.11-0.05,0.17-0.07
					c1.4-5.72,2.08-11.04,2.42-15.07C137.07,578.15,124.86,566.03,109.83,565.93z"/>
				<path class="st9" d="M109.33,636.3v-70.88l0.5,0c15.82,0.11,27.76,13.18,28.37,31.08c-0.44,5.29-1.26,10.39-2.43,15.21
					l-0.06,0.26l-0.2,0.07c-5.1,13.23-16.57,24.09-25.67,24.25L109.33,636.3z M110.33,566.43v68.84
					c8.68-0.54,19.49-11.06,24.32-23.79l0.08-0.21l0.13-0.05c1.13-4.7,1.92-9.66,2.35-14.74
					C136.61,579.39,125.34,566.81,110.33,566.43z"/>
			</g>
		</g>
		<g>
			<ellipse class="st10" cx="123.76" cy="599.79" rx="8.19" ry="4.43"/>
			<path class="st9" d="M123.76,604.72c-4.87,0-8.69-2.16-8.69-4.93c0-2.76,3.82-4.93,8.69-4.93c4.87,0,8.69,2.16,8.69,4.93
				C132.46,602.55,128.64,604.72,123.76,604.72z M123.76,595.87c-4.17,0-7.69,1.8-7.69,3.93c0,2.13,3.52,3.93,7.69,3.93
				c4.17,0,7.69-1.8,7.69-3.93C131.46,597.66,127.93,595.87,123.76,595.87z"/>
		</g>
		<g>
			<ellipse class="st10" cx="95.66" cy="599.79" rx="8.19" ry="4.43"/>
			<path class="st9" d="M95.66,604.72c-4.87,0-8.69-2.16-8.69-4.93c0-2.76,3.82-4.93,8.69-4.93c4.87,0,8.69,2.16,8.69,4.93
				C104.35,602.55,100.54,604.72,95.66,604.72z M95.66,595.87c-4.17,0-7.69,1.8-7.69,3.93c0,2.13,3.52,3.93,7.69,3.93
				c4.17,0,7.69-1.8,7.69-3.93C103.35,597.66,99.83,595.87,95.66,595.87z"/>
		</g>
	</g>
	<g class="st7">
		<g>
			<polygon class="st10" points="277.16,590.86 286.83,588.75 286.83,600.39 278.75,599.64 			"/>
			<path class="st9" d="M287.33,600.94l-9-0.84l-1.75-9.62l10.75-2.35V600.94z M279.18,599.17l7.15,0.67v-10.47l-8.59,1.88
				L279.18,599.17z"/>
		</g>
		<g>
			<polygon class="st10" points="250.33,605.76 255.16,623.31 255.16,632.81 234.39,632.81 226.98,632.81 206.2,632.81 
				206.2,623.31 211.04,605.76 			"/>
			<path class="st9" d="M255.66,633.31H205.7l0.02-10.13l4.94-17.92h40.05l4.95,18.05V633.31z M206.7,632.31h47.96v-8.92
				l-4.72-17.12h-38.53l-4.72,17.12V632.31z"/>
		</g>
		<g>
			<path class="st10" d="M257.25,604.28c0,1.41-1.14,2.55-2.55,2.55h-48.03c-1.41,0-2.55-1.14-2.55-2.55v-34.95
				c0-1.41,1.14-2.55,2.55-2.55h48.03c1.41,0,2.55,1.14,2.55,2.55V604.28z"/>
			<path class="st9" d="M254.7,607.33h-48.03c-1.68,0-3.05-1.37-3.05-3.05v-34.95c0-1.68,1.37-3.05,3.05-3.05h48.03
				c1.68,0,3.05,1.37,3.05,3.05v34.95C257.75,605.96,256.38,607.33,254.7,607.33z M206.67,567.28c-1.13,0-2.05,0.92-2.05,2.05v34.95
				c0,1.13,0.92,2.05,2.05,2.05h48.03c1.13,0,2.05-0.92,2.05-2.05v-34.95c0-1.13-0.92-2.05-2.05-2.05H206.67z"/>
		</g>
		<g>
			<rect x="211.25" y="573.97" class="st10" width="38.87" height="25.66"/>
			<path class="st9" d="M250.62,600.14h-39.87v-26.66h39.87V600.14z M211.75,599.14h37.87v-24.66h-37.87V599.14z"/>
		</g>
		<g>
			<path class="st8" d="M220.48,620.45c0,1.98-1.6,3.58-3.58,3.58s-3.58-1.6-3.58-3.58c0-1.98,1.6-3.58,3.58-3.58
				S220.48,618.47,220.48,620.45z"/>
			<path class="st9" d="M216.9,624.53c-2.25,0-4.08-1.83-4.08-4.08c0-2.25,1.83-4.08,4.08-4.08c2.25,0,4.08,1.83,4.08,4.08
				C220.98,622.7,219.15,624.53,216.9,624.53z M216.9,617.37c-1.7,0-3.08,1.38-3.08,3.08c0,1.7,1.38,3.08,3.08,3.08
				s3.08-1.38,3.08-3.08C219.98,618.75,218.6,617.37,216.9,617.37z"/>
		</g>
		<g>
			<path class="st8" d="M234.26,620.45c0,1.98-1.6,3.58-3.58,3.58s-3.58-1.6-3.58-3.58c0-1.98,1.6-3.58,3.58-3.58
				S234.26,618.47,234.26,620.45z"/>
			<path class="st9" d="M230.68,624.53c-2.25,0-4.08-1.83-4.08-4.08c0-2.25,1.83-4.08,4.08-4.08c2.25,0,4.08,1.83,4.08,4.08
				C234.76,622.7,232.93,624.53,230.68,624.53z M230.68,617.37c-1.7,0-3.08,1.38-3.08,3.08c0,1.7,1.38,3.08,3.08,3.08
				s3.08-1.38,3.08-3.08C233.76,618.75,232.38,617.37,230.68,617.37z"/>
		</g>
		<g>
			<path class="st8" d="M248.05,620.45c0,1.98-1.6,3.58-3.58,3.58s-3.58-1.6-3.58-3.58c0-1.98,1.6-3.58,3.58-3.58
				S248.05,618.47,248.05,620.45z"/>
			<path class="st9" d="M244.47,624.53c-2.25,0-4.08-1.83-4.08-4.08c0-2.25,1.83-4.08,4.08-4.08c2.25,0,4.08,1.83,4.08,4.08
				C248.55,622.7,246.72,624.53,244.47,624.53z M244.47,617.37c-1.7,0-3.08,1.38-3.08,3.08c0,1.7,1.38,3.08,3.08,3.08
				c1.7,0,3.08-1.38,3.08-3.08C247.55,618.75,246.17,617.37,244.47,617.37z"/>
		</g>
		<g>
			<path class="st9" d="M270.56,620.95h-26.01v-1h26.01c1.13,0,2.05-0.92,2.05-2.05v-13.71h1v13.71
				C273.61,619.58,272.24,620.95,270.56,620.95z"/>
		</g>
		<g>
			<path class="st10" d="M278.75,605.86c0,1.41-1.14,2.55-2.55,2.55h-6.18c-1.41,0-2.55-1.14-2.55-2.55v-12.44
				c0-1.41,1.14-2.55,2.55-2.55h6.18c1.41,0,2.55,1.14,2.55,2.55V605.86z"/>
			<path class="st9" d="M276.2,608.91h-6.18c-1.68,0-3.05-1.37-3.05-3.05v-12.44c0-1.68,1.37-3.05,3.05-3.05h6.18
				c1.68,0,3.05,1.37,3.05,3.05v12.44C279.25,607.54,277.88,608.91,276.2,608.91z M270.02,591.36c-1.13,0-2.05,0.92-2.05,2.05v12.44
				c0,1.13,0.92,2.05,2.05,2.05h6.18c1.13,0,2.05-0.92,2.05-2.05v-12.44c0-1.13-0.92-2.05-2.05-2.05H270.02z"/>
		</g>
		<g>
			
				<rect x="291.11" y="586.81" transform="matrix(0.9637 -0.2668 0.2668 0.9637 -145.9633 100.4107)" class="st9" width="10.78" height="1"/>
		</g>
		<g>
			
				<rect x="296.54" y="598.2" transform="matrix(0.2461 -0.9692 0.9692 0.2461 -360.524 742.4979)" class="st9" width="1" height="9.61"/>
		</g>
		<g>
			<rect x="292.38" y="594.15" class="st9" width="9.31" height="1"/>
		</g>
	</g>
	<g class="st7">
		<g>
			<g>
				<path class="st10" d="M348.38,638.95c0,1.41-1.14,2.55-2.55,2.55h-1.16c-1.41,0-2.55-1.14-2.55-2.55V618.4
					c0-1.41,1.14-2.55,2.55-2.55h1.16c1.41,0,2.55,1.14,2.55,2.55V638.95z"/>
				<path class="st9" d="M345.83,642h-1.16c-1.68,0-3.05-1.37-3.05-3.05V618.4c0-1.68,1.37-3.05,3.05-3.05h1.16
					c1.68,0,3.05,1.37,3.05,3.05v20.55C348.88,640.63,347.51,642,345.83,642z M344.67,616.34c-1.13,0-2.05,0.92-2.05,2.05v20.55
					c0,1.13,0.92,2.05,2.05,2.05h1.16c1.13,0,2.05-0.92,2.05-2.05V618.4c0-1.13-0.92-2.05-2.05-2.05H344.67z"/>
			</g>
			<g>
				<g>
					<path class="st10" d="M340.55,591.75c-1.37,0-2.48-1.15-2.48-2.57v-3.44c0-1.42,1.11-2.57,2.48-2.57h8.93
						c1.37,0,2.48,1.15,2.48,2.57v3.44c0,1.42-1.11,2.57-2.48,2.57H340.55z"/>
					<path class="st9" d="M349.48,592.25h-8.93c-1.64,0-2.98-1.38-2.98-3.07v-3.44c0-1.69,1.33-3.07,2.98-3.07h8.93
						c1.64,0,2.98,1.38,2.98,3.07v3.44C352.45,590.87,351.12,592.25,349.48,592.25z M340.55,583.66c-1.09,0-1.98,0.93-1.98,2.07
						v3.44c0,1.14,0.89,2.07,1.98,2.07h8.93c1.09,0,1.98-0.93,1.98-2.07v-3.44c0-1.14-0.89-2.07-1.98-2.07H340.55z"/>
				</g>
				<g>
					<path class="st10" d="M340.11,621.85c-1.37,0-2.48-1.15-2.48-2.57v-26.95c0-1.42,1.11-2.57,2.48-2.57h9.82
						c1.37,0,2.47,1.15,2.47,2.57v26.95c0,1.42-1.11,2.57-2.47,2.57H340.11z"/>
					<path class="st9" d="M349.92,622.35h-9.82c-1.64,0-2.98-1.38-2.98-3.07v-26.95c0-1.69,1.33-3.07,2.98-3.07h9.82
						c1.64,0,2.97,1.38,2.97,3.07v26.95C352.9,620.97,351.57,622.35,349.92,622.35z M340.11,590.25c-1.09,0-1.98,0.93-1.98,2.07
						v26.95c0,1.14,0.89,2.07,1.98,2.07h9.82c1.09,0,1.97-0.93,1.97-2.07v-26.95c0-1.14-0.89-2.07-1.97-2.07H340.11z"/>
				</g>
				<g>
					<polygon class="st10" points="350.52,583.16 348.65,578.03 341.75,578.03 339.5,583.16 					"/>
					<path class="st9" d="M351.24,583.66h-12.5l2.68-6.14H349L351.24,583.66z M340.27,582.66h9.54l-1.51-4.14h-6.22L340.27,582.66z"
						/>
				</g>
				<g>
					<rect x="344.75" y="549.23" class="st9" width="1" height="28.22"/>
				</g>
				<g>
					<line class="st10" x1="352.4" y1="602.84" x2="346.86" y2="602.84"/>
					<rect x="346.86" y="602.34" class="st9" width="5.54" height="1"/>
				</g>
				<g>
					<line class="st10" x1="352.4" y1="608.05" x2="346.86" y2="608.05"/>
					<rect x="346.86" y="607.55" class="st9" width="5.54" height="1"/>
				</g>
				<g>
					<line class="st10" x1="352.4" y1="613.26" x2="346.86" y2="613.26"/>
					<rect x="346.86" y="612.76" class="st9" width="5.54" height="1"/>
				</g>
			</g>
			<g>
				<rect x="333.52" y="620.56" class="st10" width="22.99" height="3.58"/>
				<path class="st9" d="M357.01,624.64h-23.99v-4.58h23.99V624.64z M334.02,623.64h21.99v-2.58h-21.99V623.64z"/>
			</g>
		</g>
		<g>
			<g>
				<path class="st10" d="M377.26,638.95c0,1.41-1.14,2.55-2.55,2.55h-1.16c-1.41,0-2.55-1.14-2.55-2.55V618.4
					c0-1.41,1.14-2.55,2.55-2.55h1.16c1.41,0,2.55,1.14,2.55,2.55V638.95z"/>
				<path class="st9" d="M374.71,642h-1.16c-1.68,0-3.05-1.37-3.05-3.05V618.4c0-1.68,1.37-3.05,3.05-3.05h1.16
					c1.68,0,3.05,1.37,3.05,3.05v20.55C377.76,640.63,376.39,642,374.71,642z M373.55,616.34c-1.13,0-2.05,0.92-2.05,2.05v20.55
					c0,1.13,0.92,2.05,2.05,2.05h1.16c1.13,0,2.05-0.92,2.05-2.05V618.4c0-1.13-0.92-2.05-2.05-2.05H373.55z"/>
			</g>
			<g>
				<g>
					<path class="st10" d="M369.43,591.75c-1.37,0-2.48-1.15-2.48-2.57v-3.44c0-1.42,1.11-2.57,2.48-2.57h8.93
						c1.37,0,2.48,1.15,2.48,2.57v3.44c0,1.42-1.11,2.57-2.48,2.57H369.43z"/>
					<path class="st9" d="M378.36,592.25h-8.93c-1.64,0-2.98-1.38-2.98-3.07v-3.44c0-1.69,1.33-3.07,2.98-3.07h8.93
						c1.64,0,2.98,1.38,2.98,3.07v3.44C381.33,590.87,380,592.25,378.36,592.25z M369.43,583.66c-1.09,0-1.98,0.93-1.98,2.07v3.44
						c0,1.14,0.89,2.07,1.98,2.07h8.93c1.09,0,1.98-0.93,1.98-2.07v-3.44c0-1.14-0.89-2.07-1.98-2.07H369.43z"/>
				</g>
				<g>
					<path class="st10" d="M368.99,621.85c-1.37,0-2.48-1.15-2.48-2.57v-26.95c0-1.42,1.11-2.57,2.48-2.57h9.82
						c1.37,0,2.47,1.15,2.47,2.57v26.95c0,1.42-1.11,2.57-2.47,2.57H368.99z"/>
					<path class="st9" d="M378.8,622.35h-9.82c-1.64,0-2.98-1.38-2.98-3.07v-26.95c0-1.69,1.34-3.07,2.98-3.07h9.82
						c1.64,0,2.97,1.38,2.97,3.07v26.95C381.78,620.97,380.45,622.35,378.8,622.35z M368.99,590.25c-1.09,0-1.98,0.93-1.98,2.07
						v26.95c0,1.14,0.89,2.07,1.98,2.07h9.82c1.09,0,1.97-0.93,1.97-2.07v-26.95c0-1.14-0.89-2.07-1.97-2.07H368.99z"/>
				</g>
				<g>
					<polygon class="st10" points="379.4,583.16 377.53,578.03 370.63,578.03 368.38,583.16 					"/>
					<path class="st9" d="M380.12,583.66h-12.5l2.68-6.14h7.58L380.12,583.66z M369.15,582.66h9.54l-1.51-4.14h-6.22L369.15,582.66z
						"/>
				</g>
				<g>
					<rect x="373.63" y="549.23" class="st9" width="1" height="28.22"/>
				</g>
				<g>
					<line class="st10" x1="381.28" y1="602.84" x2="375.74" y2="602.84"/>
					<rect x="375.74" y="602.34" class="st9" width="5.54" height="1"/>
				</g>
				<g>
					<line class="st10" x1="381.28" y1="608.05" x2="375.74" y2="608.05"/>
					<rect x="375.74" y="607.55" class="st9" width="5.54" height="1"/>
				</g>
				<g>
					<line class="st10" x1="381.28" y1="613.26" x2="375.74" y2="613.26"/>
					<rect x="375.74" y="612.76" class="st9" width="5.54" height="1"/>
				</g>
			</g>
			<g>
				<rect x="362.4" y="620.56" class="st10" width="22.99" height="3.58"/>
				<path class="st9" d="M385.89,624.64H361.9v-4.58h23.99V624.64z M362.9,623.64h21.99v-2.58H362.9V623.64z"/>
			</g>
		</g>
	</g>
</g>
<g id="Layer_6">
	<g>
		<path class="st11" d="M116.49,24.81c0,0,1.46,7.03-5.82,9.52c0,0,7.29-1.48,12.01,8.04c0,0-2.52-10.03,4.13-12.52
			C126.81,29.85,119.61,30.89,116.49,24.81z"/>
		<path class="st9" d="M122.68,42.87c-0.18,0-0.36-0.1-0.45-0.28c-3.51-7.08-8.49-7.84-10.46-7.84c-0.62,0-1,0.07-1,0.07
			c-0.26,0.05-0.51-0.11-0.58-0.36c-0.07-0.25,0.07-0.52,0.32-0.6c6.76-2.32,5.55-8.68,5.49-8.95c-0.05-0.25,0.09-0.49,0.32-0.57
			c0.24-0.08,0.5,0.02,0.61,0.24c2.16,4.21,6.36,4.83,8.66,4.83c0.69,0,1.14-0.06,1.14-0.06c0.25-0.03,0.49,0.12,0.55,0.37
			c0.06,0.25-0.07,0.5-0.31,0.59c-6.17,2.31-3.84,11.84-3.82,11.93c0.06,0.25-0.07,0.5-0.31,0.59
			C122.8,42.86,122.74,42.87,122.68,42.87z M112.96,33.83c2.24,0.28,5.84,1.5,8.84,6c-0.23-2.8-0.01-7.12,3-9.44
			c-2.01-0.13-5.4-0.81-7.71-3.73C117,28.69,116.28,31.83,112.96,33.83z"/>
	</g>
	<g>
		<path class="st11" d="M142.14,1.58c0,0-1.39,7.04-9.07,6.5c0,0,7.29,1.47,7.94,12.08c0,0,1.58-10.22,8.68-9.93
			C149.68,10.24,142.65,8.39,142.14,1.58z"/>
		<path class="st9" d="M141.01,20.67c-0.01,0-0.02,0-0.02,0c-0.25-0.01-0.46-0.21-0.48-0.47c-0.61-10.07-7.25-11.56-7.54-11.62
			c-0.26-0.05-0.43-0.3-0.39-0.56c0.04-0.26,0.25-0.45,0.53-0.43c7.16,0.49,8.53-6.04,8.54-6.1c0.05-0.25,0.25-0.43,0.52-0.4
			c0.25,0.01,0.45,0.21,0.47,0.46c0.48,6.38,7.11,8.19,7.17,8.21c0.25,0.06,0.41,0.3,0.37,0.56c-0.04,0.25-0.26,0.42-0.51,0.43
			c-6.55-0.27-8.15,9.41-8.16,9.5C141.46,20.49,141.25,20.67,141.01,20.67z M135.35,8.51c2,1.16,4.81,3.68,5.82,8.92
			c0.87-2.68,2.74-6.54,6.46-7.49c-1.91-0.95-4.68-2.9-5.66-6.42C141.1,5.36,139.2,7.98,135.35,8.51z"/>
	</g>
</g>
<g id="Layer_4">
	<g>
		<g>
			<g>
				<path class="st10" d="M292.9,52.12c-1.32-1.47-3.16-1.13-4.65-0.46c-0.52-19.47-13.45-32.31-29.34-32.31
					c-15.84,0-28.74,12.76-29.33,32.15c-1.41-0.55-3.05-0.72-4.26,0.62c-2.36,2.63-1.78,11.52,7.07,14.92
					c5.59,14.19,18.19,25.33,26.52,25.33c9.1,0,21.25-11.08,26.61-25.21C294.66,63.84,295.28,54.79,292.9,52.12z"/>
				<path class="st9" d="M258.91,92.86c-8.95,0-21.48-11.86-26.9-25.44c-4.18-1.67-7.11-4.87-8.06-8.81c-0.65-2.69-0.25-5.43,1-6.83
					c1.02-1.13,2.44-1.47,4.16-0.97c0.85-18.56,13.3-31.96,29.81-31.96c16.57,0,29.01,13.45,29.81,32.08
					c1.88-0.66,3.46-0.37,4.55,0.85c1.27,1.42,1.66,4.21,0.98,6.94c-1,3.99-4.04,7.19-8.34,8.81
					C280.53,81.52,268.45,92.86,258.91,92.86z M227.65,51.59c-0.79,0-1.43,0.28-1.95,0.87c-1.02,1.14-1.34,3.58-0.78,5.93
					c0.52,2.16,2.21,6.1,7.65,8.19l0.21,0.08l0.08,0.2c5.8,14.74,18.39,25.01,26.05,25.01c9.05,0,21.03-11.4,26.15-24.89l0.08-0.21
					l0.22-0.08c5.61-2.03,7.37-6.01,7.92-8.2c0.7-2.78,0.1-5.07-0.75-6.03c-0.94-1.04-2.31-1.14-4.07-0.33l-0.69,0.31l-0.02-0.75
					c-0.5-18.44-12.62-31.83-28.84-31.83c-16.15,0-28.27,13.32-28.83,31.66l-0.02,0.71l-0.66-0.26
					C228.76,51.72,228.17,51.59,227.65,51.59z"/>
			</g>
		</g>
		<g>
			<path class="st10" d="M263.12,46.21c0,0,9.24-3.38,13.68-2.49c4.44,0.89,5.2,2.49,5.2,2.49"/>
			<path class="st9" d="M263.29,46.68l-0.34-0.94c0.38-0.14,9.43-3.42,13.95-2.51c4.55,0.91,5.47,2.58,5.56,2.76l-0.9,0.43
				c0,0-0.8-1.4-4.85-2.21C272.45,43.36,263.38,46.65,263.29,46.68z"/>
		</g>
		<g>
			<path class="st10" d="M253.17,46.21c0,0-9.24-3.38-13.68-2.49c-4.44,0.89-5.2,2.49-5.2,2.49"/>
			<path class="st9" d="M252.99,46.68c-0.09-0.03-9.16-3.32-13.41-2.47c-4.05,0.81-4.85,2.21-4.85,2.22l-0.9-0.44
				c0.09-0.19,1-1.85,5.56-2.76c4.53-0.91,13.57,2.37,13.95,2.51L252.99,46.68z"/>
		</g>
		<g>
			<path class="st10" d="M238.47,53.8c0,0,6.23,0.94,12.26,0"/>
			<path class="st9" d="M244.85,54.72c-3.57,0-6.28-0.4-6.45-0.43l0.15-0.99c0.06,0.01,6.23,0.92,12.11,0l0.15,0.99
				C248.75,54.62,246.69,54.72,244.85,54.72z"/>
		</g>
		<g>
			<path class="st10" d="M266.43,53.8c0,0,6.23,0.94,12.26,0"/>
			<path class="st9" d="M272.8,54.72c-3.57,0-6.28-0.4-6.45-0.43l0.15-0.99c0.06,0.01,6.23,0.92,12.11,0l0.15,0.99
				C276.71,54.62,274.64,54.72,272.8,54.72z"/>
		</g>
		<g>
			<path class="st11" d="M232.39,67.04c0,0,8.22-2.54,14.36,1.15s7.73,10.3,3.97,21.48C250.73,89.67,237.91,82.46,232.39,67.04z"/>
			<path class="st9" d="M251.01,90.4l-0.53-0.3c-0.13-0.07-13.05-7.48-18.56-22.9l-0.18-0.49l0.5-0.15
				c0.12-0.04,2.87-0.88,6.42-0.88c3.25,0,6.06,0.7,8.35,2.07c6.59,3.96,7.92,10.97,4.19,22.07L251.01,90.4z M233.05,67.38
				c4.83,12.97,14.99,20.01,17.4,21.54c3.31-10.23,2.05-16.69-3.95-20.3c-2.13-1.28-4.77-1.93-7.83-1.93
				C236.14,66.69,233.99,67.14,233.05,67.38z"/>
		</g>
		<g>
			<path class="st11" d="M286.15,66.67c0,0-8.22-2.54-14.36,1.15c-6.14,3.69-7.73,10.3-3.97,21.48
				C267.81,89.3,280.64,82.09,286.15,66.67z"/>
			<path class="st9" d="M267.53,90.03l-0.19-0.57c-3.73-11.1-2.4-18.11,4.19-22.07c2.29-1.38,5.1-2.07,8.35-2.07
				c3.55,0,6.31,0.84,6.42,0.88l0.5,0.15l-0.18,0.49c-5.51,15.42-18.43,22.83-18.56,22.9L267.53,90.03z M279.87,66.31
				c-3.06,0-5.7,0.65-7.83,1.93c-6,3.6-7.26,10.06-3.95,20.3c2.42-1.53,12.57-8.56,17.4-21.54
				C284.55,66.77,282.4,66.31,279.87,66.31z"/>
		</g>
	</g>
	<g>
		<g>
			<g>
				<path class="st10" d="M191.01,53.54c-1.32-1.47-3.16-1.13-4.65-0.46c-0.52-19.47-13.45-32.31-29.34-32.31
					c-15.84,0-28.74,12.76-29.33,32.15c-1.41-0.55-3.05-0.72-4.26,0.62c-2.36,2.63-1.78,11.52,7.07,14.92
					c5.59,14.19,18.19,25.33,26.52,25.33c9.1,0,21.25-11.08,26.61-25.21C192.78,65.26,193.39,56.2,191.01,53.54z"/>
				<path class="st9" d="M157.03,94.28c-8.95,0-21.48-11.86-26.9-25.44c-4.18-1.67-7.11-4.87-8.06-8.81c-0.65-2.69-0.25-5.43,1-6.83
					c1.02-1.13,2.44-1.47,4.16-0.97c0.85-18.56,13.3-31.96,29.81-31.96c16.57,0,29.01,13.45,29.81,32.08
					c1.88-0.66,3.46-0.37,4.55,0.85c1.27,1.42,1.66,4.21,0.98,6.94c-1,3.99-4.04,7.19-8.34,8.81
					C178.64,82.94,166.56,94.28,157.03,94.28z M125.76,53.01c-0.79,0-1.43,0.28-1.95,0.87c-1.02,1.14-1.34,3.58-0.78,5.93
					c0.52,2.16,2.21,6.1,7.65,8.19l0.21,0.08l0.08,0.2c5.8,14.74,18.39,25.01,26.05,25.01c9.05,0,21.03-11.4,26.15-24.89l0.08-0.21
					l0.22-0.08c5.61-2.03,7.37-6.01,7.92-8.2c0.7-2.78,0.1-5.07-0.75-6.03c-0.94-1.04-2.31-1.14-4.07-0.33l-0.69,0.31l-0.02-0.75
					c-0.5-18.44-12.62-31.83-28.84-31.83c-16.15,0-28.27,13.32-28.83,31.66l-0.02,0.71l-0.66-0.26
					C126.87,53.14,126.28,53.01,125.76,53.01z"/>
			</g>
		</g>
		<g>
			<path class="st10" d="M161.23,47.63c0,0,9.24-3.38,13.68-2.49c4.44,0.89,5.2,2.49,5.2,2.49"/>
			<path class="st9" d="M161.4,48.1l-0.34-0.94c0.38-0.14,9.43-3.42,13.95-2.51c4.55,0.91,5.47,2.58,5.56,2.76l-0.9,0.43
				c0,0-0.8-1.4-4.85-2.21C170.56,44.78,161.49,48.07,161.4,48.1z"/>
		</g>
		<g>
			<path class="st10" d="M151.28,47.63c0,0-9.24-3.38-13.68-2.49c-4.44,0.89-5.2,2.49-5.2,2.49"/>
			<path class="st9" d="M151.11,48.1c-0.09-0.03-9.16-3.32-13.41-2.47c-4.05,0.81-4.85,2.21-4.85,2.22l-0.9-0.44
				c0.09-0.19,1-1.85,5.56-2.76c4.53-0.91,13.57,2.37,13.95,2.51L151.11,48.1z"/>
		</g>
		<g>
			<path class="st10" d="M136.58,55.22c0,0,6.23,0.94,12.26,0"/>
			<path class="st9" d="M142.96,56.14c-3.57,0-6.28-0.4-6.45-0.43l0.15-0.99c0.06,0.01,6.23,0.92,12.11,0l0.15,0.99
				C146.87,56.03,144.8,56.14,142.96,56.14z"/>
		</g>
		<g>
			<path class="st10" d="M164.54,55.22c0,0,6.23,0.94,12.26,0"/>
			<path class="st9" d="M170.92,56.14c-3.57,0-6.28-0.4-6.45-0.43l0.15-0.99c0.06,0.01,6.23,0.92,12.11,0l0.15,0.99
				C174.82,56.03,172.76,56.14,170.92,56.14z"/>
		</g>
	</g>
</g>
<g id="Layer_5">
	<g>
		<g>
			<g>
				<g>
					<path class="st10" d="M81.99,54.41c-1.32-1.47-3.16-1.13-4.65-0.46C76.82,34.48,63.89,21.64,48,21.64
						c-15.84,0-28.74,12.76-29.33,32.15c-1.41-0.55-3.05-0.72-4.26,0.62c-2.36,2.63-1.78,11.52,7.07,14.92
						C27.07,83.51,39.67,94.65,48,94.65c9.1,0,21.25-11.08,26.61-25.21C83.76,66.12,84.37,57.07,81.99,54.41z"/>
					<path class="st9" d="M48,95.15c-8.95,0-21.48-11.86-26.9-25.44c-4.18-1.67-7.11-4.87-8.06-8.81c-0.65-2.69-0.25-5.43,1-6.83
						c1.02-1.13,2.44-1.47,4.16-0.97C19.05,34.54,31.49,21.14,48,21.14c16.57,0,29.01,13.45,29.81,32.08
						c1.88-0.66,3.46-0.37,4.55,0.85c1.27,1.42,1.66,4.21,0.98,6.94c-1,3.99-4.04,7.19-8.34,8.81C69.62,83.81,57.54,95.15,48,95.15z
						 M16.74,53.88c-0.79,0-1.43,0.28-1.95,0.87c-1.02,1.14-1.34,3.58-0.78,5.93c0.52,2.16,2.21,6.1,7.65,8.19l0.21,0.08l0.08,0.2
						C27.76,83.88,40.34,94.15,48,94.15c9.05,0,21.03-11.4,26.15-24.89l0.08-0.21l0.22-0.08c5.61-2.03,7.37-6.01,7.92-8.2
						c0.7-2.78,0.1-5.07-0.75-6.03c-0.94-1.04-2.31-1.14-4.07-0.33l-0.69,0.31l-0.02-0.75C76.34,35.53,64.22,22.14,48,22.14
						c-16.15,0-28.27,13.32-28.83,31.66l-0.02,0.71l-0.66-0.26C17.85,54.01,17.26,53.88,16.74,53.88z"/>
				</g>
			</g>
			<g>
				<path class="st10" d="M52.21,48.5c0,0,9.24-3.38,13.68-2.49c4.44,0.89,5.2,2.49,5.2,2.49"/>
				<path class="st9" d="M52.38,48.97l-0.34-0.94c0.38-0.14,9.43-3.42,13.95-2.51c4.55,0.91,5.47,2.58,5.56,2.76l-0.9,0.43
					c0,0-0.8-1.4-4.85-2.21C61.54,45.65,52.47,48.94,52.38,48.97z"/>
			</g>
			<g>
				<path class="st10" d="M42.26,48.5c0,0-9.24-3.38-13.68-2.49c-4.44,0.89-5.2,2.49-5.2,2.49"/>
				<path class="st9" d="M42.08,48.97c-0.09-0.03-9.16-3.32-13.41-2.47c-4.05,0.81-4.85,2.21-4.85,2.22l-0.9-0.44
					c0.09-0.19,1-1.85,5.56-2.76c4.53-0.91,13.57,2.37,13.95,2.51L42.08,48.97z"/>
			</g>
			<g>
				<path class="st10" d="M27.56,56.09c0,0,6.23,0.94,12.26,0"/>
				<path class="st9" d="M33.94,57.01c-3.57,0-6.28-0.4-6.45-0.43l0.15-0.99c0.06,0.01,6.23,0.92,12.11,0l0.15,0.99
					C37.84,56.9,35.78,57.01,33.94,57.01z"/>
			</g>
			<g>
				<path class="st10" d="M55.52,56.09c0,0,6.23,0.94,12.26,0"/>
				<path class="st9" d="M61.89,57.01c-3.57,0-6.28-0.4-6.45-0.43l0.15-0.99c0.06,0.01,6.23,0.92,12.11,0l0.15,0.99
					C65.8,56.9,63.73,57.01,61.89,57.01z"/>
			</g>
		</g>
		<g>
			<g>
				<path class="st11" d="M2.19,31.8c0.68,1.18,9.13,5.85,6.84,13.54c-3.07,10.27,7.21,26.21,9.06,29.19
					c1.85,2.98,3.8,2.53,5.5,2.84c1.7,0.31-2.75-7.26-3.49-9.22c-0.74-1.96-1.15-15.59-1.14-17c0.01-1.41,2.55-2.08,2.55-2.08
					s3.1,5.81,3.73,6.96c0.63,1.15,3.18,2.1,3.55-2.41c0.36-4.52-13.2-27.73-13.29-28.52"/>
			</g>
			<path class="st9" d="M23.69,77.87c-0.06,0-0.12-0.01-0.18-0.02c-0.3-0.05-0.61-0.08-0.93-0.12c-1.46-0.14-3.27-0.32-4.9-2.95
				l-0.2-0.31C7.61,58.68,7.18,49.84,8.56,45.2c1.74-5.84-3.13-9.93-5.48-11.9c-0.71-0.6-1.14-0.95-1.32-1.27l0.84-0.48
				c0.09,0.16,0.6,0.59,1.1,1.01c2.5,2.1,7.71,6.47,5.78,12.91c-1.33,4.44-0.87,12.99,8.81,28.48l0.2,0.32
				c1.38,2.22,2.74,2.36,4.17,2.5c0.28,0.03,0.55,0.05,0.82,0.1c-0.08-0.95-1.64-4.04-2.51-5.76c-0.6-1.18-1.11-2.2-1.34-2.79
				c-0.79-2.08-1.18-15.91-1.17-17.18c0.01-1.73,2.61-2.47,2.91-2.54l0.37-0.1l0.18,0.34c0,0,3.1,5.81,3.73,6.96
				c0.23,0.42,0.81,0.79,1.32,0.68c0.7-0.15,1.19-1.21,1.32-2.9c0.26-3.22-7.34-17.23-11-23.96c-1.99-3.66-2.27-4.2-2.3-4.46
				l0.96-0.12c0.08,0.23,1.06,2.03,2.19,4.12c3.98,7.34,11.39,20.99,11.11,24.5c-0.22,2.8-1.26,3.6-2.09,3.77
				c-1,0.22-1.97-0.44-2.37-1.17c-0.53-0.98-2.86-5.33-3.54-6.61c-0.7,0.25-1.82,0.8-1.83,1.5c-0.01,1.64,0.41,15,1.11,16.83
				c0.2,0.54,0.71,1.54,1.3,2.69c2.26,4.48,2.97,6.19,2.44,6.9C24.15,77.77,23.94,77.87,23.69,77.87z"/>
		</g>
		<g>
			<path class="st11" d="M94.26,32.15c-0.68,1.18-9.13,5.85-6.84,13.54c3.07,10.27-7.21,26.21-9.06,29.19
				c-1.85,2.98-3.8,2.53-5.5,2.84c-1.7,0.31,2.75-7.26,3.49-9.22c0.74-1.96,1.15-15.59,1.14-17c-0.01-1.41-2.55-2.08-2.55-2.08
				s-3.1,5.81-3.73,6.96c-0.63,1.15-3.18,2.1-3.55-2.41c-0.36-4.52,13.2-27.73,13.29-28.52"/>
			<path class="st9" d="M72.76,78.22c-0.25,0-0.46-0.1-0.6-0.29c-0.53-0.71,0.18-2.43,2.44-6.9c0.59-1.16,1.09-2.16,1.29-2.69
				c0.69-1.82,1.12-15.18,1.11-16.83c0-0.67-1.07-1.23-1.82-1.5c-0.68,1.28-3.01,5.63-3.54,6.61c-0.4,0.73-1.36,1.38-2.37,1.17
				c-0.83-0.18-1.86-0.97-2.09-3.77c-0.28-3.51,7.13-17.17,11.11-24.5c1.13-2.09,2.11-3.89,2.2-4.16l0.95,0.17
				c-0.03,0.26-0.31,0.8-2.3,4.46c-3.65,6.73-11.25,20.74-11,23.96c0.14,1.7,0.62,2.75,1.32,2.9c0.51,0.11,1.09-0.27,1.31-0.68
				c0.63-1.15,3.73-6.96,3.73-6.96l0.18-0.34l0.37,0.1c0.3,0.08,2.9,0.82,2.91,2.54c0.01,1.26-0.38,15.09-1.17,17.18
				c-0.22,0.58-0.74,1.6-1.34,2.79c-0.87,1.72-2.43,4.81-2.51,5.76c0.27-0.04,0.55-0.07,0.82-0.1c1.44-0.14,2.79-0.27,4.17-2.5
				l0.2-0.32c9.69-15.49,10.14-24.04,8.81-28.48c-1.92-6.45,3.28-10.82,5.78-12.91c0.49-0.42,1.01-0.84,1.1-1.01l0.84,0.48
				c-0.18,0.31-0.61,0.67-1.32,1.27c-2.34,1.97-7.22,6.06-5.48,11.9c1.38,4.63,0.96,13.47-8.92,29.27l-0.2,0.31
				c-1.64,2.63-3.45,2.81-4.9,2.95c-0.32,0.03-0.63,0.06-0.93,0.12C72.88,78.22,72.82,78.22,72.76,78.22z"/>
		</g>
	</g>
</g>
</svg>
